<svg width="127" height="132" viewBox="0 0 127 132" fill="none" xmlns="http://www.w3.org/2000/svg">
<g clip-path="url(#clip0)">
<path d="M63.5 128C98.5701 128 127 99.3462 127 64C127 28.6538 98.5701 0 63.5 0C28.4299 0 0 28.6538 0 64C0 99.3462 28.4299 128 63.5 128Z" fill="white"/>
<path d="M105.597 121.105L92.1092 108.121V34.0697H92.0545L81.3585 23.8226V23.7788H29.8599V111.679H79.7272L80.1433 112.095L78.6982 113.54L95.6016 131.089C96.6854 132.272 98.4918 132.305 99.6304 131.177L105.662 125.134C106.801 123.995 106.768 122.189 105.597 121.105Z" fill="#005D8F"/>
<path d="M96.5322 29.0995V106.698H34.272V18.7976H85.7705V29.0995H96.5322Z" fill="#0077B5"/>
<path d="M85.7266 18.7976V29.0995H96.4773L85.7266 18.7976Z" fill="white"/>
<path d="M62.3309 84.5283H40.7637V89.411H62.3309V84.5283Z" fill="white"/>
<path d="M87.4999 91.6772H40.7637V94.5127H87.4999V91.6772Z" fill="white"/>
<path d="M83.7777 96.7244H40.7637V99.5708H83.7777V96.7244Z" fill="white"/>
<path d="M87.4999 71.9165H40.7637V74.752H87.4999V71.9165Z" fill="white"/>
<path d="M83.7777 76.9634H40.7637V79.8098H83.7777V76.9634Z" fill="white"/>
<path d="M83.7777 40.0913H40.7637V44.974H83.7777V40.0913Z" fill="white"/>
<path d="M87.4999 47.2402H40.7637V50.0757H87.4999V47.2402Z" fill="white"/>
<path d="M78.6869 52.2869H40.7637V55.1334H78.6869V52.2869Z" fill="white"/>
<path d="M80.6357 32.5154H40.7637V35.3619H80.6357V32.5154Z" fill="white"/>
<path d="M90.0289 59.0747H40.7637V61.9102H90.0289V59.0747Z" fill="white"/>
<path d="M76.8696 64.1216H40.7637V66.9571H76.8696V64.1216Z" fill="white"/>
<path d="M73.3445 99.8005C70.8265 100.917 68.0567 101.552 65.1227 101.552C64.8818 101.552 64.6519 101.541 64.4111 101.53" fill="#343432"/>
<path d="M85.4526 80.5105C85.4635 80.7404 85.4745 80.9703 85.4745 81.2111C85.4745 84.1452 84.8395 86.9149 83.7119 89.4329" fill="#343432"/>
<path d="M65.8342 60.881C65.6043 60.87 65.3635 60.8591 65.1336 60.8591C53.8902 60.8591 44.7925 69.9677 44.7925 81.2001C44.7925 81.43 44.8035 81.6709 44.8035 81.9008C45.1648 92.5749 53.7479 101.158 64.422 101.519C64.6519 101.53 64.8927 101.541 65.1336 101.541C68.0567 101.541 70.8374 100.906 73.3554 99.7895C73.6619 99.6472 73.9794 99.5049 74.275 99.3516L74.5925 99.1107L75.5887 98.1145L84.566 107.092L83.1209 108.537L100.024 126.086C101.108 127.269 102.915 127.301 104.053 126.174L110.085 120.131C111.213 119.003 111.18 117.186 109.998 116.102L92.4265 99.1764L90.9923 100.611L82.0808 91.6991L83.2522 90.3415C83.4055 90.035 83.5478 89.7285 83.6901 89.411C84.8178 86.893 85.4527 84.1232 85.4527 81.1892C85.4527 80.9483 85.4418 80.7184 85.4308 80.4885C85.0915 69.8363 76.4974 61.2532 65.8342 60.881ZM77.5375 81.2111C77.5375 88.0644 71.976 93.6149 65.1336 93.6149C58.2803 93.6149 52.7297 88.0534 52.7297 81.2111C52.7297 74.3577 58.2803 68.7962 65.1336 68.7962C71.976 68.7962 77.5375 74.3577 77.5375 81.2111Z" fill="white"/>
<path d="M79.7928 81.2111C79.7928 73.1097 73.2241 66.541 65.1227 66.541C57.0213 66.541 50.4526 73.1097 50.4526 81.2111C50.4526 89.3015 57.0213 95.8812 65.1227 95.8812C73.2241 95.8812 79.7928 89.3125 79.7928 81.2111Z" fill="#005D8F"/>
<path d="M59.0027 87.3419C58.3678 87.9769 57.3387 87.9769 56.6928 87.3419C54.6346 85.2837 52.029 79.6894 56.9117 73.3068C57.4591 72.5952 58.4882 72.4529 59.1998 73.0003C59.9114 73.5477 60.0537 74.5658 59.5063 75.2884C55.1163 81.036 58.8385 84.8787 59.0027 85.0429C59.6377 85.6778 59.6377 86.7069 59.0027 87.3419Z" fill="white"/>
</g>
<defs>
<clipPath id="clip0">
<rect width="127" height="132" fill="white"/>
</clipPath>
</defs>
</svg>
