<svg width="97" height="97" viewBox="0 0 97 97" fill="none" xmlns="http://www.w3.org/2000/svg">
<path d="M0 20C0 8.95431 8.95431 0 20 0H77C88.0457 0 97 8.95431 97 20V77C97 88.0457 88.0457 97 77 97H20C8.95431 97 0 88.0457 0 77V20Z" fill="#E1F5FF"/>
<path d="M26.7289 74.6496C26.7289 76.8284 28.3427 78.611 30.3169 78.611H74.4153C76.3895 78.611 78.0001 76.8284 78.0001 74.6496V36.7498H26.7289V74.6496Z" fill="white"/>
<path d="M78.0001 39.4839V30.9311C78.0001 28.9569 76.3863 27.3431 74.4153 27.3431H30.3169C28.3427 27.3431 26.7289 28.9569 26.7289 30.9311V39.4839H78.0001V39.4839Z" fill="white"/>
<path d="M37.1717 43.4062H34.7101C33.6055 43.4062 32.7101 44.3017 32.7101 45.4062V48.0043C32.7101 49.1089 33.6055 50.0043 34.7101 50.0043H37.1717C38.2763 50.0043 39.1717 49.1089 39.1717 48.0043V45.4062C39.1717 44.3017 38.2763 43.4062 37.1717 43.4062Z" fill="white"/>
<path d="M45.3832 43.4062H42.9215C41.8169 43.4062 40.9215 44.3017 40.9215 45.4062V48.0043C40.9215 49.1089 41.8169 50.0043 42.9215 50.0043H45.3832C46.4877 50.0043 47.3832 49.1089 47.3832 48.0043V45.4062C47.3832 44.3017 46.4877 43.4062 45.3832 43.4062Z" fill="white"/>
<path d="M53.5948 43.4062H51.1332C50.0286 43.4062 49.1332 44.3017 49.1332 45.4062V48.0043C49.1332 49.1089 50.0286 50.0043 51.1332 50.0043H53.5948C54.6994 50.0043 55.5948 49.1089 55.5948 48.0043V45.4062C55.5948 44.3017 54.6994 43.4062 53.5948 43.4062Z" fill="white"/>
<path d="M61.8066 43.4062H59.345C58.2404 43.4062 57.345 44.3017 57.345 45.4062V48.0043C57.345 49.1089 58.2404 50.0043 59.345 50.0043H61.8066C62.9112 50.0043 63.8066 49.1089 63.8066 48.0043V45.4062C63.8066 44.3017 62.9112 43.4062 61.8066 43.4062Z" fill="white"/>
<path d="M70.0187 43.4062H67.557C66.4524 43.4062 65.557 44.3017 65.557 45.4062V48.0043C65.557 49.1089 66.4524 50.0043 67.557 50.0043H70.0187C71.1232 50.0043 72.0187 49.1089 72.0187 48.0043V45.4062C72.0187 44.3017 71.1232 43.4062 70.0187 43.4062Z" fill="white"/>
<path d="M37.1715 51.6408H34.7098C33.6053 51.6408 32.7098 52.5362 32.7098 53.6408V56.2388C32.7098 57.3434 33.6053 58.2388 34.7098 58.2388H37.1715C38.2761 58.2388 39.1715 57.3434 39.1715 56.2388V53.6408C39.1715 52.5362 38.2761 51.6408 37.1715 51.6408Z" fill="white"/>
<path d="M45.3832 51.6408H42.9215C41.8169 51.6408 40.9215 52.5362 40.9215 53.6408V56.2388C40.9215 57.3434 41.8169 58.2388 42.9215 58.2388H45.3832C46.4877 58.2388 47.3832 57.3434 47.3832 56.2388V53.6408C47.3832 52.5362 46.4877 51.6408 45.3832 51.6408Z" fill="white"/>
<path d="M53.5948 51.6408H51.1332C50.0286 51.6408 49.1332 52.5362 49.1332 53.6408V56.2388C49.1332 57.3434 50.0286 58.2388 51.1332 58.2388H53.5948C54.6994 58.2388 55.5948 57.3434 55.5948 56.2388V53.6408C55.5948 52.5362 54.6994 51.6408 53.5948 51.6408Z" fill="white"/>
<path d="M61.8066 51.6408H59.345C58.2404 51.6408 57.345 52.5362 57.345 53.6408V56.2388C57.345 57.3434 58.2404 58.2388 59.345 58.2388H61.8066C62.9112 58.2388 63.8066 57.3434 63.8066 56.2388V53.6408C63.8066 52.5362 62.9112 51.6408 61.8066 51.6408Z" fill="white"/>
<path d="M70.0187 51.6408H67.557C66.4524 51.6408 65.557 52.5362 65.557 53.6408V56.2388C65.557 57.3434 66.4524 58.2388 67.557 58.2388H70.0187C71.1232 58.2388 72.0187 57.3434 72.0187 56.2388V53.6408C72.0187 52.5362 71.1232 51.6408 70.0187 51.6408Z" fill="white"/>
<path d="M37.1715 59.8721H34.7098C33.6053 59.8721 32.7098 60.7676 32.7098 61.8721V64.4702C32.7098 65.5748 33.6053 66.4702 34.7098 66.4702H37.1715C38.2761 66.4702 39.1715 65.5748 39.1715 64.4702V61.8721C39.1715 60.7676 38.2761 59.8721 37.1715 59.8721Z" fill="white"/>
<path d="M45.3832 59.8721H42.9215C41.8169 59.8721 40.9215 60.7676 40.9215 61.8721V64.4702C40.9215 65.5748 41.8169 66.4702 42.9215 66.4702H45.3832C46.4877 66.4702 47.3832 65.5748 47.3832 64.4702V61.8721C47.3832 60.7676 46.4877 59.8721 45.3832 59.8721Z" fill="white"/>
<path d="M53.5948 59.8721H51.1332C50.0286 59.8721 49.1332 60.7676 49.1332 61.8721V64.4702C49.1332 65.5748 50.0286 66.4702 51.1332 66.4702H53.5948C54.6994 66.4702 55.5948 65.5748 55.5948 64.4702V61.8721C55.5948 60.7676 54.6994 59.8721 53.5948 59.8721Z" fill="white"/>
<path d="M61.8066 59.8721H59.345C58.2404 59.8721 57.345 60.7676 57.345 61.8721V64.4702C57.345 65.5748 58.2404 66.4702 59.345 66.4702H61.8066C62.9112 66.4702 63.8066 65.5748 63.8066 64.4702V61.8721C63.8066 60.7676 62.9112 59.8721 61.8066 59.8721Z" fill="white"/>
<path d="M70.0187 59.8721H67.557C66.4524 59.8721 65.557 60.7676 65.557 61.8721V64.4702C65.557 65.5748 66.4524 66.4702 67.557 66.4702H70.0187C71.1232 66.4702 72.0187 65.5748 72.0187 64.4702V61.8721C72.0187 60.7676 71.1232 59.8721 70.0187 59.8721Z" fill="white"/>
<path d="M37.1715 68.1067H34.7098C33.6053 68.1067 32.7098 69.0021 32.7098 70.1067V72.7015C32.7098 73.8061 33.6053 74.7015 34.7098 74.7015H37.1715C38.2761 74.7015 39.1715 73.8061 39.1715 72.7015V70.1067C39.1715 69.0021 38.2761 68.1067 37.1715 68.1067Z" fill="white"/>
<path d="M45.3834 68.1067H42.9218C41.8172 68.1067 40.9218 69.0021 40.9218 70.1067V72.7015C40.9218 73.8061 41.8172 74.7015 42.9218 74.7015H45.3834C46.488 74.7015 47.3834 73.8061 47.3834 72.7015V70.1067C47.3834 69.0021 46.488 68.1067 45.3834 68.1067Z" fill="white"/>
<path d="M53.5951 68.1067H51.1334C50.0289 68.1067 49.1334 69.0021 49.1334 70.1067V72.7015C49.1334 73.8061 50.0289 74.7015 51.1334 74.7015H53.5951C54.6997 74.7015 55.5951 73.8061 55.5951 72.7015V70.1067C55.5951 69.0021 54.6997 68.1067 53.5951 68.1067Z" fill="white"/>
<path opacity="0.2" d="M35.1094 31.798C35.1094 32.8014 34.2944 33.6164 33.291 33.6164C32.2877 33.6164 31.4727 32.8014 31.4727 31.798C31.4727 30.7947 32.2877 29.9797 33.291 29.9797C34.2944 29.9764 35.1094 30.7915 35.1094 31.798Z" fill="white"/>
<path d="M32.5964 30.1017C32.7587 30.2324 32.9827 30.3185 33.229 30.3217C33.481 30.3281 33.7329 30.2484 33.9121 30.1017C34.0801 29.9646 34.1864 29.7765 34.1864 29.566C34.1864 29.4608 34.1864 29.3588 34.1864 29.2536C34.1864 28.0228 34.1864 26.7953 34.1864 25.5645C34.1864 25.539 34.1864 25.5103 34.1864 25.4848C34.1864 25.2744 34.0801 25.0863 33.9121 24.9492C33.7329 24.8025 33.481 24.7228 33.229 24.7292C32.9827 24.7356 32.7587 24.8185 32.5964 24.9492C32.4284 25.0863 32.322 25.2744 32.322 25.4848C32.322 25.5135 32.322 25.539 32.322 25.5645C32.322 26.7953 32.322 28.0228 32.322 29.2536C32.322 29.3588 32.322 29.4608 32.322 29.566C32.322 29.7765 32.4284 29.9646 32.5964 30.1017Z" fill="white"/>
<path opacity="0.2" d="M41.8442 31.798C41.8442 32.8014 41.0292 33.6164 40.0259 33.6164C39.0225 33.6164 38.2075 32.8014 38.2075 31.798C38.2075 30.7947 39.0225 29.9797 40.0259 29.9797C41.0325 29.9764 41.8442 30.7915 41.8442 31.798Z" fill="white"/>
<path d="M39.1219 30.1017C39.2842 30.2324 39.5082 30.3185 39.7545 30.3217C40.0065 30.3281 40.2584 30.2484 40.4376 30.1017C40.6056 29.9646 40.7119 29.7765 40.7119 29.566C40.7119 29.4608 40.7119 29.3588 40.7119 29.2536C40.7119 28.0228 40.7119 26.7953 40.7119 25.5645C40.7119 25.539 40.7119 25.5103 40.7119 25.4848C40.7119 25.2744 40.6056 25.0863 40.4376 24.9492C40.2584 24.8025 40.0065 24.7228 39.7545 24.7292C39.5082 24.7356 39.2842 24.8185 39.1219 24.9492C38.9539 25.0863 38.8475 25.2744 38.8475 25.4848C38.8475 25.5135 38.8475 25.539 38.8475 25.5645C38.8475 26.7953 38.8475 28.0228 38.8475 29.2536C38.8475 29.3588 38.8475 29.4608 38.8475 29.566C38.8475 29.7765 38.9539 29.9646 39.1219 30.1017Z" fill="white"/>
<path opacity="0.2" d="M67.0187 31.798C67.0187 32.8014 66.2037 33.6164 65.2003 33.6164C64.197 33.6164 63.382 32.8014 63.382 31.798C63.382 30.7947 64.197 29.9797 65.2003 29.9797C66.2037 29.9764 67.0187 30.7915 67.0187 31.798Z" fill="white"/>
<path d="M64.2914 30.1017C64.4538 30.2324 64.6778 30.3185 64.9241 30.3217C65.176 30.3281 65.428 30.2484 65.6072 30.1017C65.7751 29.9646 65.8815 29.7765 65.8815 29.566C65.8815 29.4608 65.8815 29.3588 65.8815 29.2536C65.8815 28.0228 65.8815 26.7953 65.8815 25.5645C65.8815 25.539 65.8815 25.5103 65.8815 25.4848C65.8815 25.2744 65.7751 25.0863 65.6072 24.9492C65.428 24.8025 65.176 24.7228 64.9241 24.7292C64.6778 24.7356 64.4538 24.8185 64.2914 24.9492C64.1235 25.0863 64.0171 25.2744 64.0171 25.4848C64.0171 25.5135 64.0171 25.539 64.0171 25.5645C64.0171 26.7953 64.0171 28.0228 64.0171 29.2536C64.0171 29.3588 64.0171 29.4608 64.0171 29.566C64.0171 29.7765 64.1235 29.9646 64.2914 30.1017Z" fill="white"/>
<path opacity="0.2" d="M73.7528 31.798C73.7528 32.8014 72.9378 33.6164 71.9344 33.6164C70.9311 33.6164 70.1161 32.8014 70.1161 31.798C70.1161 30.7947 70.9311 29.9797 71.9344 29.9797C72.941 29.9764 73.7528 30.7915 73.7528 31.798Z" fill="white"/>
<path d="M70.8167 30.1017C70.9791 30.2324 71.203 30.3185 71.4494 30.3217C71.7013 30.3281 71.9533 30.2484 72.1324 30.1017C72.3004 29.9646 72.4068 29.7765 72.4068 29.566C72.4068 29.4608 72.4068 29.3588 72.4068 29.2536C72.4068 28.0228 72.4068 26.7953 72.4068 25.5645C72.4068 25.539 72.4068 25.5103 72.4068 25.4848C72.4068 25.2744 72.3004 25.0863 72.1324 24.9492C71.9533 24.8025 71.7013 24.7228 71.4494 24.7292C71.203 24.7356 70.9791 24.8185 70.8167 24.9492C70.6487 25.0863 70.5424 25.2744 70.5424 25.4848C70.5424 25.5135 70.5424 25.539 70.5424 25.5645C70.5424 26.7953 70.5424 28.0228 70.5424 29.2536C70.5424 29.3588 70.5424 29.4608 70.5424 29.566C70.5424 29.7765 70.6487 29.9646 70.8167 30.1017Z" fill="white"/>
<path d="M50.9093 70.9605C50.7861 70.7344 50.5029 70.6512 50.277 70.7745C50.0509 70.8977 49.9677 71.1809 50.091 71.4068L50.9093 70.9605ZM51.4323 72.7373L51.0594 73.017C51.1405 73.1251 51.2645 73.1927 51.3993 73.2023C51.534 73.2118 51.6664 73.1625 51.7619 73.0669L51.4323 72.7373ZM54.5584 70.2703C54.7405 70.0882 54.7405 69.7932 54.5584 69.6111C54.3764 69.4291 54.0813 69.4291 53.8993 69.6111L54.5584 70.2703ZM50.5001 71.1836C50.091 71.4068 50.091 71.4069 50.091 71.4069C50.091 71.4069 50.091 71.4069 50.091 71.4069C50.091 71.407 50.0911 71.4071 50.0911 71.4071C50.0912 71.4073 50.0913 71.4076 50.0915 71.4079C50.0918 71.4085 50.0923 71.4094 50.0929 71.4105C50.0942 71.4128 50.0961 71.4161 50.0984 71.4205C50.1032 71.4293 50.1102 71.4419 50.1192 71.4582C50.1371 71.4908 50.1629 71.5376 50.1949 71.595C50.2588 71.7097 50.3474 71.8672 50.446 72.038C50.6378 72.3706 50.8844 72.7836 51.0594 73.017L51.8052 72.4577C51.6695 72.2767 51.45 71.9129 51.2534 71.5722C51.1578 71.4064 51.0716 71.2532 51.0092 71.1413C50.9781 71.0854 50.953 71.04 50.9357 71.0086C50.9271 70.9929 50.9204 70.9807 50.9159 70.9726C50.9137 70.9685 50.912 70.9654 50.9109 70.9633C50.9103 70.9623 50.9099 70.9616 50.9097 70.9611C50.9095 70.9608 50.9094 70.9607 50.9094 70.9605L50.9093 70.9605C50.9093 70.9605 50.9093 70.9605 50.9093 70.9604C50.9093 70.9604 50.9093 70.9605 50.5001 71.1836ZM51.7619 73.0669L54.5584 70.2703L53.8993 69.6111L51.1028 72.4078L51.7619 73.0669Z" fill="white"/>
<path d="M43.4517 70.9605C43.3284 70.7344 43.0453 70.6512 42.8193 70.7745C42.5933 70.8977 42.51 71.1809 42.6333 71.4068L43.4517 70.9605ZM43.9747 72.7373L43.6018 73.017C43.6829 73.1251 43.8069 73.1927 43.9416 73.2023C44.0764 73.2118 44.2087 73.1625 44.3042 73.0669L43.9747 72.7373ZM47.1008 70.2703C47.2828 70.0882 47.2828 69.7932 47.1008 69.6111C46.9188 69.4291 46.6237 69.4291 46.4417 69.6111L47.1008 70.2703ZM43.0425 71.1836C42.6333 71.4068 42.6333 71.4069 42.6333 71.4069C42.6333 71.4069 42.6333 71.4069 42.6334 71.4069C42.6334 71.407 42.6334 71.4071 42.6334 71.4071C42.6336 71.4073 42.6337 71.4076 42.6339 71.4079C42.6342 71.4085 42.6347 71.4094 42.6353 71.4105C42.6365 71.4128 42.6384 71.4161 42.6408 71.4205C42.6456 71.4293 42.6525 71.4419 42.6615 71.4582C42.6794 71.4908 42.7053 71.5376 42.7373 71.595C42.8012 71.7097 42.8897 71.8672 42.9884 72.038C43.1802 72.3706 43.4268 72.7836 43.6018 73.017L44.3475 72.4577C44.2118 72.2767 43.9923 71.9129 43.7958 71.5722C43.7002 71.4064 43.6139 71.2532 43.5516 71.1413C43.5204 71.0854 43.4953 71.04 43.4781 71.0086C43.4694 70.9929 43.4628 70.9807 43.4583 70.9726C43.4561 70.9685 43.4544 70.9654 43.4533 70.9633C43.4527 70.9623 43.4523 70.9616 43.452 70.9611C43.4519 70.9608 43.4518 70.9607 43.4517 70.9605L43.4517 70.9605C43.4517 70.9605 43.4517 70.9605 43.4517 70.9604C43.4517 70.9604 43.4517 70.9605 43.0425 71.1836ZM44.3042 73.0669L47.1008 70.2703L46.4417 69.6111L43.6451 72.4078L44.3042 73.0669Z" fill="white"/>
<path d="M23 71.9566C23 74.1805 24.6473 76.0002 26.6624 76.0002H71.6758C73.6909 76.0002 75.3349 74.1805 75.3349 71.9566V33.2705H23V71.9566Z" fill="#506FFF"/>
<path d="M75.3349 36.0612V27.331C75.3349 25.3158 73.6876 23.6685 71.6758 23.6685H26.6624C24.6473 23.6685 23 25.3158 23 27.331V36.0612H75.3349V36.0612Z" fill="#3146CC"/>
<path d="M33.7012 40.0649H31.1055C30.0009 40.0649 29.1055 40.9604 29.1055 42.0649V44.7999C29.1055 45.9044 30.0009 46.7999 31.1055 46.7999H33.7012C34.8058 46.7999 35.7012 45.9044 35.7012 44.7999V42.0649C35.7012 40.9604 34.8058 40.0649 33.7012 40.0649Z" fill="white"/>
<path d="M42.0829 40.0649H39.4872C38.3826 40.0649 37.4872 40.9604 37.4872 42.0649V44.7999C37.4872 45.9044 38.3826 46.7999 39.4872 46.7999H42.0829C43.1875 46.7999 44.0829 45.9044 44.0829 44.7999V42.0649C44.0829 40.9604 43.1875 40.0649 42.0829 40.0649Z" fill="white"/>
<path d="M50.465 40.0649H47.8693C46.7647 40.0649 45.8693 40.9604 45.8693 42.0649V44.7999C45.8693 45.9044 46.7647 46.7999 47.8693 46.7999H50.465C51.5696 46.7999 52.465 45.9044 52.465 44.7999V42.0649C52.465 40.9604 51.5696 40.0649 50.465 40.0649Z" fill="white"/>
<path d="M58.8472 40.0649H56.2515C55.1469 40.0649 54.2515 40.9604 54.2515 42.0649V44.7999C54.2515 45.9044 55.1469 46.7999 56.2515 46.7999H58.8472C59.9518 46.7999 60.8472 45.9044 60.8472 44.7999V42.0649C60.8472 40.9604 59.9518 40.0649 58.8472 40.0649Z" fill="white"/>
<path d="M67.2296 40.0649H64.6339C63.5293 40.0649 62.6339 40.9604 62.6339 42.0649V44.7999C62.6339 45.9044 63.5293 46.7999 64.6339 46.7999H67.2296C68.3342 46.7999 69.2296 45.9044 69.2296 44.7999V42.0649C69.2296 40.9604 68.3342 40.0649 67.2296 40.0649Z" fill="white"/>
<path d="M33.7008 48.4703H31.1051C30.0005 48.4703 29.1051 49.3658 29.1051 50.4703V53.2053C29.1051 54.3098 30.0005 55.2053 31.1051 55.2053H33.7008C34.8054 55.2053 35.7008 54.3098 35.7008 53.2053V50.4703C35.7008 49.3658 34.8054 48.4703 33.7008 48.4703Z" fill="white"/>
<path d="M42.0829 48.4703H39.4872C38.3826 48.4703 37.4872 49.3658 37.4872 50.4703V53.2053C37.4872 54.3098 38.3826 55.2053 39.4872 55.2053H42.0829C43.1875 55.2053 44.0829 54.3098 44.0829 53.2053V50.4703C44.0829 49.3658 43.1875 48.4703 42.0829 48.4703Z" fill="white"/>
<path d="M50.465 48.4703H47.8693C46.7647 48.4703 45.8693 49.3658 45.8693 50.4703V53.2053C45.8693 54.3098 46.7647 55.2053 47.8693 55.2053H50.465C51.5696 55.2053 52.465 54.3098 52.465 53.2053V50.4703C52.465 49.3658 51.5696 48.4703 50.465 48.4703Z" fill="white"/>
<path d="M58.8472 48.4703H56.2515C55.1469 48.4703 54.2515 49.3658 54.2515 50.4703V53.2053C54.2515 54.3098 55.1469 55.2053 56.2515 55.2053H58.8472C59.9518 55.2053 60.8472 54.3098 60.8472 53.2053V50.4703C60.8472 49.3658 59.9518 48.4703 58.8472 48.4703Z" fill="white"/>
<path d="M67.2296 48.4703H64.6339C63.5293 48.4703 62.6339 49.3658 62.6339 50.4703V53.2053C62.6339 54.3098 63.5293 55.2053 64.6339 55.2053H67.2296C68.3342 55.2053 69.2296 54.3098 69.2296 53.2053V50.4703C69.2296 49.3658 68.3342 48.4703 67.2296 48.4703Z" fill="white"/>
<path d="M33.7008 56.8724H31.1051C30.0005 56.8724 29.1051 57.7679 29.1051 58.8724V61.6074C29.1051 62.7119 30.0005 63.6074 31.1051 63.6074H33.7008C34.8054 63.6074 35.7008 62.7119 35.7008 61.6074V58.8724C35.7008 57.7679 34.8054 56.8724 33.7008 56.8724Z" fill="white"/>
<path d="M42.0829 56.8724H39.4872C38.3826 56.8724 37.4872 57.7679 37.4872 58.8724V61.6074C37.4872 62.7119 38.3826 63.6074 39.4872 63.6074H42.0829C43.1875 63.6074 44.0829 62.7119 44.0829 61.6074V58.8724C44.0829 57.7679 43.1875 56.8724 42.0829 56.8724Z" fill="white"/>
<path d="M50.465 56.8724H47.8693C46.7647 56.8724 45.8693 57.7679 45.8693 58.8724V61.6074C45.8693 62.7119 46.7647 63.6074 47.8693 63.6074H50.465C51.5696 63.6074 52.465 62.7119 52.465 61.6074V58.8724C52.465 57.7679 51.5696 56.8724 50.465 56.8724Z" fill="white"/>
<path d="M58.8472 56.8724H56.2515C55.1469 56.8724 54.2515 57.7679 54.2515 58.8724V61.6074C54.2515 62.7119 55.1469 63.6074 56.2515 63.6074H58.8472C59.9518 63.6074 60.8472 62.7119 60.8472 61.6074V58.8724C60.8472 57.7679 59.9518 56.8724 58.8472 56.8724Z" fill="white"/>
<path d="M67.2296 56.8724H64.6339C63.5293 56.8724 62.6339 57.7679 62.6339 58.8724V61.6074C62.6339 62.7119 63.5293 63.6074 64.6339 63.6074H67.2296C68.3342 63.6074 69.2296 62.7119 69.2296 61.6074V58.8724C69.2296 57.7679 68.3342 56.8724 67.2296 56.8724Z" fill="white"/>
<path d="M33.7008 65.2778H31.1051C30.0005 65.2778 29.1051 66.1733 29.1051 67.2778V70.0095C29.1051 71.114 30.0005 72.0095 31.1051 72.0095H33.7008C34.8054 72.0095 35.7008 71.114 35.7008 70.0095V67.2778C35.7008 66.1733 34.8054 65.2778 33.7008 65.2778Z" fill="white"/>
<path d="M42.0831 65.2778H39.4874C38.3829 65.2778 37.4874 66.1733 37.4874 67.2778V70.0095C37.4874 71.114 38.3829 72.0095 39.4874 72.0095H42.0831C43.1877 72.0095 44.0831 71.114 44.0831 70.0095V67.2778C44.0831 66.1733 43.1877 65.2778 42.0831 65.2778Z" fill="#F4A42B"/>
<path d="M50.4651 65.2778H47.8694C46.7648 65.2778 45.8694 66.1733 45.8694 67.2778V70.0095C45.8694 71.114 46.7648 72.0095 47.8694 72.0095H50.4651C51.5697 72.0095 52.4651 71.114 52.4651 70.0095V67.2778C52.4651 66.1733 51.5697 65.2778 50.4651 65.2778Z" fill="#F4A42B"/>
<path opacity="0.2" d="M31.5545 28.2158C31.5545 29.2399 30.7225 30.0719 29.6984 30.0719C28.6742 30.0719 27.8423 29.2399 27.8423 28.2158C27.8423 27.1916 28.6742 26.3597 29.6984 26.3597C30.7225 26.3564 31.5545 27.1883 31.5545 28.2158Z" fill="black"/>
<path d="M28.9894 26.4843C29.1551 26.6178 29.3837 26.7057 29.6352 26.7089C29.8924 26.7154 30.1495 26.6341 30.3324 26.4843C30.5039 26.3444 30.6124 26.1524 30.6124 25.9376C30.6124 25.8302 30.6124 25.726 30.6124 25.6186C30.6124 24.3624 30.6124 23.1093 30.6124 21.8531C30.6124 21.827 30.6124 21.7977 30.6124 21.7717C30.6124 21.5569 30.5039 21.3649 30.3324 21.2249C30.1495 21.0752 29.8924 20.9939 29.6352 21.0004C29.3837 21.0069 29.1551 21.0915 28.9894 21.2249C28.8179 21.3649 28.7094 21.5569 28.7094 21.7717C28.7094 21.801 28.7094 21.827 28.7094 21.8531C28.7094 23.1093 28.7094 24.3624 28.7094 25.6186C28.7094 25.726 28.7094 25.8302 28.7094 25.9376C28.7094 26.1524 28.8179 26.3444 28.9894 26.4843Z" fill="#F4A42B"/>
<path opacity="0.2" d="M38.429 28.2158C38.429 29.2399 37.597 30.0719 36.5729 30.0719C35.5487 30.0719 34.7168 29.2399 34.7168 28.2158C34.7168 27.1916 35.5487 26.3597 36.5729 26.3597C37.6004 26.3564 38.429 27.1883 38.429 28.2158Z" fill="black"/>
<path d="M35.65 26.4843C35.8158 26.6178 36.0444 26.7057 36.2958 26.7089C36.553 26.7154 36.8102 26.6341 36.993 26.4843C37.1645 26.3444 37.2731 26.1524 37.2731 25.9376C37.2731 25.8302 37.2731 25.726 37.2731 25.6186C37.2731 24.3624 37.2731 23.1093 37.2731 21.8531C37.2731 21.827 37.2731 21.7977 37.2731 21.7717C37.2731 21.5569 37.1645 21.3649 36.993 21.2249C36.8102 21.0752 36.553 20.9939 36.2958 21.0004C36.0444 21.0069 35.8158 21.0915 35.65 21.2249C35.4786 21.3649 35.37 21.5569 35.37 21.7717C35.37 21.801 35.37 21.827 35.37 21.8531C35.37 23.1093 35.37 24.3624 35.37 25.6186C35.37 25.726 35.37 25.8302 35.37 25.9376C35.37 26.1524 35.4786 26.3444 35.65 26.4843Z" fill="#F4A42B"/>
<path opacity="0.2" d="M64.1257 28.2158C64.1257 29.2399 63.2938 30.0719 62.2697 30.0719C61.2455 30.0719 60.4136 29.2399 60.4136 28.2158C60.4136 27.1916 61.2455 26.3597 62.2697 26.3597C63.2938 26.3564 64.1257 27.1883 64.1257 28.2158Z" fill="black"/>
<path d="M61.3418 26.4843C61.5075 26.6178 61.7361 26.7057 61.9876 26.7089C62.2448 26.7154 62.5019 26.6341 62.6848 26.4843C62.8563 26.3444 62.9649 26.1524 62.9649 25.9376C62.9649 25.8302 62.9649 25.726 62.9649 25.6186C62.9649 24.3624 62.9649 23.1093 62.9649 21.8531C62.9649 21.827 62.9649 21.7977 62.9649 21.7717C62.9649 21.5569 62.8563 21.3649 62.6848 21.2249C62.5019 21.0752 62.2448 20.9939 61.9876 21.0004C61.7361 21.0069 61.5075 21.0915 61.3418 21.2249C61.1704 21.3649 61.0618 21.5569 61.0618 21.7717C61.0618 21.801 61.0618 21.827 61.0618 21.8531C61.0618 23.1093 61.0618 24.3624 61.0618 25.6186C61.0618 25.726 61.0618 25.8302 61.0618 25.9376C61.0618 26.1524 61.1704 26.3444 61.3418 26.4843Z" fill="#F4A42B"/>
<path opacity="0.2" d="M70.9996 28.2158C70.9996 29.2399 70.1677 30.0719 69.1436 30.0719C68.1194 30.0719 67.2875 29.2399 67.2875 28.2158C67.2875 27.1916 68.1194 26.3597 69.1436 26.3597C70.171 26.3564 70.9996 27.1883 70.9996 28.2158Z" fill="black"/>
<path d="M68.0026 26.4843C68.1683 26.6178 68.3969 26.7057 68.6484 26.7089C68.9055 26.7154 69.1627 26.6341 69.3456 26.4843C69.517 26.3444 69.6256 26.1524 69.6256 25.9376C69.6256 25.8302 69.6256 25.726 69.6256 25.6186C69.6256 24.3624 69.6256 23.1093 69.6256 21.8531C69.6256 21.827 69.6256 21.7977 69.6256 21.7717C69.6256 21.5569 69.517 21.3649 69.3456 21.2249C69.1627 21.0752 68.9055 20.9939 68.6484 21.0004C68.3969 21.0069 68.1683 21.0915 68.0026 21.2249C67.8311 21.3649 67.7225 21.5569 67.7225 21.7717C67.7225 21.801 67.7225 21.827 67.7225 21.8531C67.7225 23.1093 67.7225 24.3624 67.7225 25.6186C67.7225 25.726 67.7225 25.8302 67.7225 25.9376C67.7225 26.1524 67.8311 26.3444 68.0026 26.4843Z" fill="#F4A42B"/>
<path d="M47.6821 68.1909C47.5563 67.9602 47.2673 67.8752 47.0366 68.001C46.8059 68.1268 46.7209 68.4158 46.8468 68.6465L47.6821 68.1909ZM48.216 70.0046L47.8354 70.2901C47.9181 70.4004 48.0447 70.4694 48.1822 70.4792C48.3198 70.4889 48.4549 70.4386 48.5524 70.341L48.216 70.0046ZM51.4069 67.4864C51.5928 67.3006 51.5928 66.9994 51.4069 66.8135C51.2211 66.6277 50.92 66.6277 50.7342 66.8135L51.4069 67.4864ZM47.2644 68.4187C46.8468 68.6465 46.8468 68.6466 46.8468 68.6466C46.8468 68.6466 46.8468 68.6466 46.8468 68.6466C46.8468 68.6467 46.8469 68.6467 46.8469 68.6468C46.847 68.647 46.8472 68.6473 46.8473 68.6476C46.8477 68.6482 46.8482 68.6491 46.8488 68.6502C46.8501 68.6526 46.852 68.656 46.8544 68.6604C46.8593 68.6694 46.8664 68.6823 46.8756 68.699C46.8938 68.7322 46.9202 68.78 46.9529 68.8386C47.0181 68.9557 47.1085 69.1164 47.2092 69.2908C47.405 69.6303 47.6567 70.0519 47.8354 70.2901L48.5966 69.7191C48.458 69.5344 48.234 69.1631 48.0333 68.8153C47.9358 68.6461 47.8477 68.4897 47.7841 68.3754C47.7523 68.3184 47.7267 68.272 47.7091 68.24C47.7002 68.224 47.6934 68.2116 47.6889 68.2033C47.6866 68.1991 47.6849 68.1959 47.6837 68.1938C47.6832 68.1928 47.6827 68.192 47.6825 68.1915C47.6823 68.1913 47.6822 68.1911 47.6822 68.191L47.6821 68.1909C47.6821 68.1909 47.6821 68.1909 47.6821 68.1908C47.6821 68.1908 47.6821 68.1909 47.2644 68.4187ZM48.5524 70.341L51.4069 67.4864L50.7342 66.8135L47.8796 69.6682L48.5524 70.341Z" fill="white"/>
<path d="M40.0699 68.1909C39.9441 67.9602 39.6551 67.8752 39.4245 68.001C39.1937 68.1268 39.1087 68.4158 39.2346 68.6465L40.0699 68.1909ZM40.6038 70.0046L40.2232 70.2901C40.306 70.4004 40.4325 70.4694 40.57 70.4792C40.7076 70.4889 40.8427 70.4386 40.9402 70.341L40.6038 70.0046ZM43.7948 67.4864C43.9806 67.3006 43.9806 66.9994 43.7948 66.8135C43.609 66.6277 43.3078 66.6277 43.122 66.8135L43.7948 67.4864ZM39.6523 68.4187C39.2346 68.6465 39.2346 68.6466 39.2346 68.6466C39.2346 68.6466 39.2346 68.6466 39.2347 68.6466C39.2347 68.6467 39.2347 68.6467 39.2347 68.6468C39.2348 68.647 39.235 68.6473 39.2352 68.6476C39.2355 68.6482 39.236 68.6491 39.2366 68.6502C39.2379 68.6526 39.2398 68.656 39.2422 68.6604C39.2471 68.6694 39.2542 68.6823 39.2634 68.699C39.2817 68.7322 39.3081 68.78 39.3407 68.8386C39.4059 68.9557 39.4963 69.1164 39.597 69.2908C39.7928 69.6303 40.0445 70.0519 40.2232 70.2901L40.9844 69.7191C40.8459 69.5344 40.6218 69.1631 40.4212 68.8153C40.3236 68.6461 40.2355 68.4897 40.1719 68.3754C40.1401 68.3184 40.1145 68.272 40.0969 68.24C40.0881 68.224 40.0813 68.2116 40.0767 68.2033C40.0744 68.1991 40.0727 68.1959 40.0716 68.1938C40.071 68.1928 40.0705 68.192 40.0703 68.1915C40.0702 68.1913 40.07 68.1911 40.07 68.191L40.0699 68.1909C40.0699 68.1909 40.0699 68.1909 40.0699 68.1908C40.0699 68.1908 40.0699 68.1909 39.6523 68.4187ZM40.9402 70.341L43.7948 67.4864L43.122 66.8135L40.2674 69.6682L40.9402 70.341Z" fill="white"/>
</svg>
