<?xml version="1.0" encoding="UTF-8"?>
<!DOCTYPE svg PUBLIC "-//W3C//DTD SVG 1.1//EN" "http://www.w3.org/Graphics/SVG/1.1/DTD/svg11.dtd">
<!-- Creator: CorelDRAW X7 -->
<svg xmlns="http://www.w3.org/2000/svg" xml:space="preserve" width="100mm" height="100mm" version="1.1" style="shape-rendering:geometricPrecision; text-rendering:geometricPrecision; image-rendering:optimizeQuality; fill-rule:evenodd; clip-rule:evenodd"
viewBox="0 0 10000 10000"
 xmlns:xlink="http://www.w3.org/1999/xlink">
 <defs>
  <style type="text/css">
   <![CDATA[
    .fil2 {fill:#FEFEFE}
    .fil5 {fill:#FEF9C2}
    .fil1 {fill:#0C44AC}
    .fil3 {fill:#B80900}
    .fil4 {fill:#CD0A00}
    .fil0 {fill:#FCE25B}
   ]]>
  </style>
 </defs>
 <g id="Layer_x0020_1">
  <metadata id="CorelCorpID_0Corel-Layer"/>
  <circle class="fil0" cx="5072" cy="5378" r="4263"/>
  <g id="_2834041460000">
   <path class="fil1" d="M4277 7231c125,31 305,74 324,76l911 0c55,0 226,-51 319,-80l0 -15 0 -203 0 -475 -1554 0 0 476 0 203 0 18z"/>
   <path class="fil1" d="M4596 7618c-3,0 -172,-17 -319,-81l0 1055 78 119c195,166 441,257 695,257l8 0c254,0 499,-91 694,-257l79 -96 0 -1054c-88,36 -196,57 -319,57l-916 0z"/>
   <path class="fil2" d="M5831 7009l0 203 0 15c-93,29 -264,80 -319,80l-911 0c-19,-2 -199,-45 -324,-76l0 -18 0 -203c-137,58 -220,155 -220,277 0,121 104,200 220,250 147,64 316,81 319,81l916 0c123,0 231,-21 319,-57 136,-58 219,-156 219,-278 0,-119 -83,-216 -219,-274z"/>
   <path class="fil2" d="M5831 7537l0 202 0 16c-93,28 -264,80 -319,80l-911 0c-19,-3 -199,-46 -324,-77l0 -17 0 -204c-137,58 -220,156 -220,277 0,121 104,200 220,250 147,64 316,82 319,82l916 0c123,0 231,-21 319,-58 136,-58 219,-156 219,-277 0,-120 -83,-217 -219,-274z"/>
   <path class="fil2" d="M5831 8064l0 203 0 15c-93,29 -264,80 -319,80l-911 0c-19,-2 -199,-45 -324,-76l0 -18 0 -203c-137,58 -220,155 -220,277 0,121 104,200 220,250 147,63 316,81 319,81l916 0c123,0 231,-21 319,-58 136,-58 219,-155 219,-277 0,-119 -83,-216 -219,-274z"/>
   <path class="fil3" d="M3476 4485c0,205 45,401 126,578 168,364 466,738 550,1126l130 820 773 97 0 -1148 0 -1473 0 -1473c-872,0 -1579,659 -1579,1473z"/>
   <path class="fil4" d="M6608 4485c0,205 -45,401 -127,578 -167,364 -465,738 -549,1126l-130 820 -773 97 0 -1148 0 -1473 0 -1473c872,0 1579,659 1579,1473z"/>
   <path class="fil4" d="M2250 7258c-20,0 -39,-8 -55,-23 -30,-30 -30,-79 0,-110l1226 -1225c30,-30 79,-30 110,0 30,30 30,79 0,110l-1226 1225c-15,15 -35,23 -55,23z"/>
   <path class="fil4" d="M2816 4452l-1733 0c-43,0 -77,-35 -77,-78 0,-43 34,-78 77,-78l1733 0c43,0 78,35 78,78 0,43 -35,78 -78,78z"/>
   <path class="fil4" d="M3468 2867c-20,0 -40,-7 -55,-23l-1225 -1225c-31,-30 -31,-79 0,-110 30,-30 79,-30 110,0l1225 1225c30,31 30,80 0,110 -15,16 -35,23 -55,23z"/>
   <path class="fil4" d="M5049 2208c-43,0 -77,-35 -77,-78l0 -1733c0,-43 34,-78 77,-78 43,0 78,35 78,78l0 1733c0,43 -35,78 -78,78z"/>
   <path class="fil4" d="M6634 2860c-20,0 -40,-8 -55,-23 -31,-31 -31,-80 0,-110l1225 -1226c30,-30 80,-30 110,0 30,31 30,80 0,110l-1226 1226c-15,15 -35,23 -54,23z"/>
   <path class="fil4" d="M9026 4441l-1733 0c-43,0 -78,-35 -78,-78 0,-43 35,-78 78,-78l1733 0c43,0 78,35 78,78 0,43 -35,78 -78,78z"/>
   <path class="fil4" d="M7867 7250c-20,0 -40,-7 -55,-22l-1226 -1226c-30,-30 -30,-79 0,-110 31,-30 80,-30 110,0l1226 1226c30,30 30,79 0,110 -16,15 -35,22 -55,22z"/>
   <path class="fil5" d="M3849 4509c-53,0 -97,-44 -97,-97 0,-619 504,-1123 1123,-1123 53,0 97,44 97,97 0,53 -44,97 -97,97 -512,0 -929,417 -929,929 0,53 -44,97 -97,97z"/>
  </g>
 </g>
</svg>
