<svg width="97" height="97" viewBox="0 0 97 97" fill="none" xmlns="http://www.w3.org/2000/svg">
<path d="M0 20C0 8.95431 8.9543 0 20 0H77C88.0457 0 97 8.9543 97 20V77C97 88.0457 88.0457 97 77 97H20C8.95431 97 0 88.0457 0 77V20Z" fill="#E1F5FF"/>
<mask id="mask0_848:374" style="mask-type:alpha" maskUnits="userSpaceOnUse" x="14" y="11" width="70" height="70">
<path d="M84 46C84 65.3299 68.3299 81 49 81C29.6701 81 14 65.3299 14 46C14 26.6701 29.6701 11 49 11C68.3299 11 84 26.6701 84 46Z" fill="#E8EFFF"/>
</mask>
<g mask="url(#mask0_848:374)">
<path d="M84 46C84 65.3299 68.3299 81 49 81C29.6701 81 14 65.3299 14 46C14 26.6701 29.6701 11 49 11C68.3299 11 84 26.6701 84 46Z" fill="#E1F5FF"/>
<path d="M67.9582 53.2917H41.7082C37.6811 53.2917 34.4165 56.5563 34.4165 60.5834V91.2084C34.4165 95.2354 37.6811 98.5 41.7082 98.5H67.9582C71.9852 98.5 75.2498 95.2354 75.2498 91.2084V60.5834C75.2498 56.5563 71.9852 53.2917 67.9582 53.2917Z" fill="#B7C8EC"/>
<path d="M63.5833 28.5503H28.5833C25.3617 28.5503 22.75 31.162 22.75 34.3836V85.4253C22.75 88.6469 25.3617 91.2586 28.5833 91.2586H63.5833C66.805 91.2586 69.4167 88.6469 69.4167 85.4253V34.3836C69.4167 31.162 66.805 28.5503 63.5833 28.5503Z" fill="#506FFF"/>
<path fill-rule="evenodd" clip-rule="evenodd" d="M69.4167 83.2126V34.3333C69.4167 31.1117 66.8049 28.5 63.5833 28.5H28.5833C25.3617 28.5 22.75 31.1117 22.75 34.3333V82.7299L27.5776 88.0402V42.1781H29.941C33.9682 42.1781 37.2327 38.9135 37.2327 34.8865V34.1322H53.3247V34.8865C53.3247 38.9135 56.5893 42.1781 60.6164 42.1781H64.5891V83.2126H69.4167Z" fill="#3146CC"/>
<path d="M55.7864 51.8866C55.7934 51.1571 55.2079 50.5602 54.4784 50.5532L37.3105 50.3877C36.5812 50.3807 35.9843 50.9662 35.9771 51.6957C35.9701 52.425 36.5558 53.0219 37.2851 53.029L54.453 53.1944C55.1823 53.2014 55.7794 52.6159 55.7864 51.8866Z" fill="white"/>
<path d="M47.7733 60.5602C47.7803 59.8308 47.1948 59.2338 46.4653 59.2268L37.2211 59.1377C36.4918 59.1307 35.8948 59.7162 35.8878 60.4457C35.8808 61.175 36.4663 61.7719 37.1957 61.7789L46.44 61.868C47.1693 61.875 47.7663 61.2895 47.7733 60.5602Z" fill="#A7B7FF"/>
<path d="M51.9168 62.0417C52.7222 62.0417 53.3752 61.3887 53.3752 60.5833C53.3752 59.7779 52.7222 59.125 51.9168 59.125C51.1114 59.125 50.4585 59.7779 50.4585 60.5833C50.4585 61.3887 51.1114 62.0417 51.9168 62.0417Z" fill="white"/>
<path d="M40.25 69.3333H37.3333C36.5279 69.3333 35.875 69.9862 35.875 70.7916C35.875 71.5971 36.5279 72.25 37.3333 72.25H40.25C41.0554 72.25 41.7083 71.5971 41.7083 70.7916C41.7083 69.9862 41.0554 69.3333 40.25 69.3333Z" fill="white"/>
<path d="M40.25 69.3333H37.3333C36.5279 69.3333 35.875 69.9862 35.875 70.7916C35.875 71.5971 36.5279 72.25 37.3333 72.25H40.25C41.0554 72.25 41.7083 71.5971 41.7083 70.7916C41.7083 69.9862 41.0554 69.3333 40.25 69.3333Z" fill="white"/>
<path d="M56.2915 69.3333H44.6248C43.8194 69.3333 43.1665 69.9862 43.1665 70.7916C43.1665 71.5971 43.8194 72.25 44.6248 72.25H56.2915C57.0969 72.25 57.7498 71.5971 57.7498 70.7916C57.7498 69.9862 57.0969 69.3333 56.2915 69.3333Z" fill="#A7B7FF"/>
<path d="M60.6665 46C67.9152 46 73.7915 40.1237 73.7915 32.875C73.7915 25.6263 67.9152 19.75 60.6665 19.75C53.4178 19.75 47.5415 25.6263 47.5415 32.875C47.5415 40.1237 53.4178 46 60.6665 46Z" fill="#F4A42B"/>
<path d="M57.2519 31.6221C56.9627 31.0917 56.2983 30.8963 55.768 31.1857C55.2376 31.4748 55.0422 32.1393 55.3316 32.6695L57.2519 31.6221ZM58.4792 35.7916L57.6042 36.4479C57.7945 36.7015 58.0855 36.8602 58.4016 36.8826C58.718 36.9051 59.0284 36.7893 59.2526 36.565L58.4792 35.7916ZM65.8151 30.0025C66.2422 29.5754 66.2422 28.8829 65.8151 28.4558C65.3879 28.0287 64.6955 28.0287 64.2684 28.4558L65.8151 30.0025ZM56.2917 32.1458C55.3316 32.6695 55.3316 32.6696 55.3316 32.6696C55.3316 32.6696 55.3316 32.6698 55.3317 32.6698C55.3317 32.6699 55.3319 32.6701 55.3319 32.6702C55.3321 32.6707 55.3324 32.6713 55.3329 32.672C55.3336 32.6734 55.3348 32.6755 55.3362 32.6781C55.3391 32.6835 55.3435 32.6914 55.3491 32.7016C55.3603 32.7221 55.3766 32.7519 55.3978 32.7901C55.4398 32.8665 55.5004 32.9763 55.5755 33.1111C55.7255 33.3803 55.9333 33.7498 56.1647 34.1507C56.6149 34.9311 57.1936 35.9003 57.6042 36.4479L59.3542 35.1354C59.0357 34.7107 58.5206 33.8572 58.0594 33.0576C57.8351 32.6686 57.6327 32.309 57.4864 32.0464C57.4133 31.9153 57.3544 31.8087 57.3139 31.735C57.2936 31.6983 57.278 31.6697 57.2675 31.6506C57.2622 31.6409 57.2583 31.6337 57.2557 31.6288C57.2544 31.6265 57.2534 31.6248 57.2528 31.6236C57.2525 31.623 57.2522 31.6226 57.252 31.6223L57.2519 31.6221C57.2519 31.6221 57.2519 31.6221 57.2519 31.622C57.2519 31.622 57.2519 31.6221 56.2917 32.1458ZM59.2526 36.565L65.8151 30.0025L64.2684 28.4558L57.7059 35.0183L59.2526 36.565Z" fill="white"/>
<path d="M59.2085 42.8646C66.3364 42.8646 72.1147 37.0863 72.1147 29.9584C72.1147 22.8304 66.3364 17.0521 59.2085 17.0521C52.0806 17.0521 46.3022 22.8304 46.3022 29.9584C46.3022 37.0863 52.0806 42.8646 59.2085 42.8646Z" stroke="white" stroke-width="0.3"/>
</g>
</svg>
