<?xml version="1.0" encoding="UTF-8"?>
<!DOCTYPE svg PUBLIC "-//W3C//DTD SVG 1.1//EN" "http://www.w3.org/Graphics/SVG/1.1/DTD/svg11.dtd">
<!-- Creator: CorelDRAW X7 -->
<svg xmlns="http://www.w3.org/2000/svg" xml:space="preserve" width="100mm" height="100mm" version="1.1" style="shape-rendering:geometricPrecision; text-rendering:geometricPrecision; image-rendering:optimizeQuality; fill-rule:evenodd; clip-rule:evenodd"
viewBox="0 0 10000 10000"
 xmlns:xlink="http://www.w3.org/1999/xlink">
 <defs>
  <style type="text/css">
   <![CDATA[
    .fil6 {fill:#DCDDDD}
    .fil3 {fill:#0C44AC}
    .fil5 {fill:#97ADB9}
    .fil4 {fill:#98ADBA}
    .fil7 {fill:#B80900}
    .fil1 {fill:#CD0A00}
    .fil0 {fill:#FCE25B}
    .fil2 {fill:white}
   ]]>
  </style>
 </defs>
 <g id="Layer_x0020_1">
  <metadata id="CorelCorpID_0Corel-Layer"/>
  <circle class="fil0" cx="5072" cy="5378" r="4263"/>
  <g id="_2834041485536">
   <path class="fil1" d="M7483 9039l-4649 0c-177,0 -321,-144 -321,-321l0 -6584c0,-177 144,-321 321,-321l4649 0c177,0 321,144 321,321l0 6584c0,177 -144,321 -321,321z"/>
   <path class="fil2" d="M7373 8662l-4429 0c-47,0 -84,-37 -84,-84l0 -6110c0,-47 37,-85 84,-85l4429 0c46,0 84,38 84,85l0 6110c0,47 -38,84 -84,84z"/>
   <path class="fil3" d="M2513 8731l0 0c0,-2 0,-4 0,-6l0 6z"/>
   <path class="fil3" d="M2513 8731l0 0 0 20 2 -1c-1,-6 -1,-12 -2,-19z"/>
   <path class="fil3" d="M2515 8750l-2 1 0 3c1,5 2,11 3,16l1 -1c-1,-6 -2,-12 -2,-19z"/>
   <path class="fil3" d="M2517 8769l-1 1c1,6 2,13 3,19l2 -1c-1,-6 -3,-12 -4,-19z"/>
   <path class="fil3" d="M2521 8788l-2 1c2,6 3,12 5,19l2 -1c-2,-6 -4,-12 -5,-19z"/>
   <path class="fil3" d="M2526 8807l-2 1c2,6 4,12 6,18l2 0c-2,-6 -4,-12 -6,-19z"/>
   <path class="fil3" d="M2532 8826l-2 0c2,7 4,13 7,19l2 -1c-2,-6 -5,-12 -7,-18z"/>
   <path class="fil3" d="M2539 8844l-2 1c2,6 5,12 8,18l3 0c-3,-6 -6,-12 -9,-19z"/>
   <path class="fil4" d="M2548 8863l-3 0c3,6 6,12 10,18l3 0c-4,-6 -7,-12 -10,-18z"/>
   <path class="fil4" d="M2558 8881l-3 0c3,6 7,12 11,18l3 0c-4,-6 -8,-12 -11,-18z"/>
   <path class="fil4" d="M2569 8899l-3 0c4,6 8,12 13,18l3 -1c-5,-5 -9,-11 -13,-17z"/>
   <path class="fil4" d="M2582 8916l-3 1c4,6 9,12 14,17l4 0c-5,-6 -10,-12 -15,-18z"/>
   <path class="fil4" d="M2597 8934l-4 0c6,6 11,12 17,17 1,0 2,0 3,0 -5,-6 -11,-11 -16,-17z"/>
   <path class="fil4" d="M2613 8951c-1,0 -2,0 -3,0 6,6 13,12 19,17l3 -1c-6,-5 -13,-10 -19,-16z"/>
   <path class="fil4" d="M2632 8967l-3 1c7,5 15,11 22,16l3 -1c-8,-5 -15,-10 -22,-16z"/>
   <path class="fil5" d="M2654 8983l-3 1c9,5 18,10 26,15l2 0c-9,-5 -17,-10 -25,-16z"/>
   <path class="fil5" d="M2679 8999l-2 0c11,5 21,10 31,14l1 0c-11,-4 -21,-9 -30,-14z"/>
   <path class="fil5" d="M2709 9013l-1 0 4 2c-1,-1 -2,-1 -3,-2z"/>
   <path class="fil1" d="M2808 9034c-27,0 -61,-6 -96,-19 -115,-47 -196,-159 -199,-290l18 -6580 329 450 0 5983c0,47 37,84 84,84l4338 0 266 365 -4714 5c-7,1 -16,2 -26,2z"/>
   <path class="fil3" d="M3174 4480l1001 0 0 -1001 -1001 0 0 1001zm1040 39l-1079 0 0 -1079 1079 0 0 1079z"/>
   <path class="fil3" d="M3174 6109l1001 0 0 -1001 -1001 0 0 1001zm1040 39l-1079 0 0 -1079 1079 0 0 1079z"/>
   <path class="fil3" d="M3174 7739l1001 0 0 -1002 -1001 0 0 1002zm1040 38l-1079 0 0 -1078 1079 0 0 1078z"/>
   <polygon class="fil6" points="7011,3639 4788,3639 4788,3529 7011,3529 "/>
   <polygon class="fil6" points="7011,3979 4788,3979 4788,3869 7011,3869 "/>
   <polygon class="fil6" points="7011,4320 4788,4320 4788,4209 7011,4209 "/>
   <polygon class="fil6" points="7011,5305 4788,5305 4788,5194 7011,5194 "/>
   <polygon class="fil6" points="7011,5645 4788,5645 4788,5534 7011,5534 "/>
   <polygon class="fil6" points="7011,5985 4788,5985 4788,5874 7011,5874 "/>
   <polygon class="fil6" points="7011,6869 4788,6869 4788,6759 7011,6759 "/>
   <polygon class="fil6" points="7011,7209 4788,7209 4788,7099 7011,7099 "/>
   <polygon class="fil6" points="7011,7549 4788,7549 4788,7439 7011,7439 "/>
   <polygon class="fil3" points="4175,3633 4175,3479 4155,3479 4207,3440 4214,3440 4214,3600 "/>
   <polygon class="fil3" points="3253,3746 3392,3653 3600,3864 4380,3291 4438,3306 3594,4015 "/>
   <path class="fil3" d="M3272 3747l322 253 820 -688 -32 -9 -783 576 -208 -212 -119 80zm323 283l-361 -285 160 -107 207 211 776 -571 85 23 -867 729z"/>
   <polygon class="fil3" points="4175,5529 4175,5351 4214,5323 4214,5496 "/>
   <polygon class="fil3" points="3332,5576 3471,5482 3679,5693 4458,5120 4517,5136 3673,5845 "/>
   <path class="fil3" d="M3351 5576l322 254 820 -689 -32 -8 -783 576 -209 -212 -118 79zm322 283l-361 -284 160 -107 208 210 776 -570 85 23 -868 728z"/>
   <polygon class="fil3" points="4175,7030 4175,6852 4214,6824 4214,6997 "/>
   <polygon class="fil3" points="3332,7077 3471,6984 3679,7195 4458,6621 4517,6637 3673,7346 "/>
   <path class="fil7" d="M5205 1560c-114,0 -207,-93 -207,-208 0,-114 93,-207 207,-207 115,0 208,93 208,207 0,115 -93,208 -208,208zm1414 73l-787 0 0 -112c0,-343 -278,-621 -620,-621l-13 0c-343,0 -621,278 -621,621l0 112 -786 0c-41,0 -74,33 -74,74l0 794c0,40 33,73 74,73l2827 0c40,0 73,-33 73,-73l0 -794c0,-41 -33,-74 -73,-74z"/>
   <polygon class="fil7" points="6692,2445 3718,2445 3718,2321 6692,2321 "/>
   <path class="fil7" d="M6679 2532l-2944 0c-9,0 -17,-7 -17,-16l0 -38 2974 0 0 41c0,7 -6,13 -13,13z"/>
  </g>
 </g>
</svg>
