<svg width="96" height="96" viewBox="0 0 96 96" fill="none" xmlns="http://www.w3.org/2000/svg">
<circle cx="48" cy="48" r="48" fill="white"/>
<path d="M47.251 37.3562C45.6122 37.3562 44.0405 38.0073 42.8817 39.1661C41.7229 40.3249 41.0719 41.8965 41.0719 43.5353C41.0719 45.1741 41.7229 46.7458 42.8817 47.9046C44.0405 49.0634 45.6122 49.7144 47.251 49.7144C48.8898 49.7144 50.4614 49.0634 51.6202 47.9046C52.779 46.7458 53.43 45.1741 53.43 43.5353C53.43 41.8965 52.779 40.3249 51.6202 39.1661C50.4614 38.0073 48.8898 37.3562 47.251 37.3562V37.3562ZM26.2858 29.3572C26.2858 27.5576 27.0007 25.8316 28.2733 24.559C29.5459 23.2865 31.2719 22.5715 33.0715 22.5715H64.2858C65.1769 22.5715 66.0593 22.7471 66.8826 23.0881C67.7059 23.4291 68.4539 23.9289 69.0841 24.559C69.7142 25.1891 70.214 25.9372 70.555 26.7605C70.896 27.5837 71.0715 28.4661 71.0715 29.3572V68.0358C71.0715 68.5757 70.8571 69.0935 70.4753 69.4753C70.0935 69.8571 69.5757 70.0715 69.0358 70.0715H30.3573C30.3573 70.7914 30.6432 71.4818 31.1523 71.9908C31.6613 72.4998 32.3517 72.7858 33.0715 72.7858H69.0358C69.5757 72.7858 70.0935 73.0003 70.4753 73.3821C70.8571 73.7638 71.0715 74.2816 71.0715 74.8215C71.0715 75.3614 70.8571 75.8792 70.4753 76.261C70.0935 76.6428 69.5757 76.8572 69.0358 76.8572H33.0715C31.2719 76.8572 29.5459 76.1423 28.2733 74.8698C27.0007 73.5972 26.2858 71.8712 26.2858 70.0715V29.3572ZM55.6517 49.158C57.0475 47.072 57.6173 44.5414 57.2503 42.0585C56.8833 39.5756 55.6056 37.3181 53.666 35.7252C51.7264 34.1323 49.2635 33.318 46.7567 33.4407C44.2498 33.5635 41.8783 34.6145 40.1035 36.3892C38.3288 38.164 37.2778 40.5355 37.155 43.0424C37.0323 45.5492 37.8466 48.0121 39.4395 49.9517C41.0324 51.8913 43.2899 53.169 45.7728 53.536C48.2557 53.903 50.7863 53.3332 52.8723 51.9374L59.5928 58.6552L59.7747 58.8127L59.7964 58.829C60.1952 59.1183 60.6882 59.2472 61.1776 59.1902C61.667 59.1331 62.1171 58.8944 62.4388 58.5211C62.7605 58.1479 62.9302 57.6675 62.9144 57.175C62.8985 56.6826 62.6982 56.214 62.3533 55.8622L55.649 49.158H55.6517Z" fill="#FF9A3E"/>
</svg>
