<svg width="280" height="280" viewBox="0 0 280 280" fill="none" xmlns="http://www.w3.org/2000/svg">
<rect width="280" height="280" rx="50" fill="#007BB6"/>
<path d="M51 74.7475C51 69.0235 52.9933 64.3012 56.9797 60.5808C60.9662 56.8602 66.1487 55 72.527 55C78.7916 55 83.86 56.8315 87.7326 60.4949C91.7191 64.2727 93.7124 69.1952 93.7124 75.2626C93.7124 80.7576 91.7761 85.3366 87.9035 89C83.917 92.7778 78.6776 94.6667 72.1853 94.6667H72.0145C65.7499 94.6667 60.6815 92.7778 56.8089 89C52.9362 85.2222 51 80.4713 51 74.7475ZM53.221 225V110.293H91.1496V225H53.221ZM112.164 225H150.093V160.949C150.093 156.943 150.548 153.852 151.459 151.677C153.054 147.784 155.474 144.493 158.721 141.803C161.967 139.113 166.039 137.768 170.936 137.768C183.693 137.768 190.071 146.411 190.071 163.697V225H228V159.232C228 142.29 224.014 129.439 216.041 120.682C208.068 111.924 197.532 107.545 184.433 107.545C169.74 107.545 158.293 113.899 150.093 126.606V126.949H149.922L150.093 126.606V110.293H112.164C112.392 113.956 112.506 125.347 112.506 144.465C112.506 163.582 112.392 190.427 112.164 225Z" fill="white"/>
</svg>
