<svg width="96" height="96" viewBox="0 0 96 96" fill="none" xmlns="http://www.w3.org/2000/svg">
<circle cx="48" cy="48" r="48" fill="white"/>
<path d="M47.5983 64.3C45.2735 61.95 45.2735 58.425 47.5983 56.075C49.9231 53.725 53.4103 53.725 55.735 56.075L57.4786 57.8375L63 51.6688C60.9658 50.4938 59.2222 50.4937 57.188 50.4937C55.1538 50.2 53.1197 49.6125 53.1197 47.85C53.1197 46.0875 55.4444 46.675 57.188 43.4438C57.188 43.4438 65.0342 22 48.7607 22C32.7778 22 40.6239 43.4438 40.6239 43.4438C42.3675 46.3813 44.6923 45.7938 44.6923 47.85C44.6923 49.9063 42.6581 49.9063 40.6239 50.2C37.4274 50.4938 34.5214 49.9063 31.6154 55.1938C29.8718 58.425 29 69 29 69H52.2479L47.5983 64.3Z" fill="#F10C00"/>
<path d="M63 69H70C70 69 69.6667 66.3 69.3333 63L63 69Z" fill="#F10C00"/>
<path d="M57.9845 69C57.086 69 56.487 68.6991 55.8881 68.0972L49.8984 62.0787C48.7005 60.875 48.7005 59.0694 49.8984 57.8657C51.0964 56.662 52.8933 56.662 54.0912 57.8657L57.9845 61.7778L67.8674 50.9444C69.0653 49.7407 70.8622 49.7407 72.0601 50.6435C73.258 51.8472 73.258 53.6528 72.3596 54.8565L60.3803 67.7963C59.4819 68.6991 58.8829 69 57.9845 69Z" fill="#F10C00"/>
</svg>
