<?xml version="1.0" encoding="UTF-8"?>
<!DOCTYPE svg PUBLIC "-//W3C//DTD SVG 1.1//EN" "http://www.w3.org/Graphics/SVG/1.1/DTD/svg11.dtd">
<!-- Creator: CorelDRAW X7 -->
<svg xmlns="http://www.w3.org/2000/svg" xml:space="preserve" width="354.05mm" height="199.15mm" version="1.1" style="shape-rendering:geometricPrecision; text-rendering:geometricPrecision; image-rendering:optimizeQuality; fill-rule:evenodd; clip-rule:evenodd"
viewBox="0 0 35405 19915"
 xmlns:xlink="http://www.w3.org/1999/xlink">
 <defs>
  <style type="text/css">
   <![CDATA[
    .str0 {stroke:#BF0900;stroke-width:7.62}
    .fil5 {fill:#FEFEFE}
    .fil7 {fill:black}
    .fil8 {fill:#A30800}
    .fil1 {fill:#BF0900}
    .fil0 {fill:#CD0A00}
    .fil2 {fill:#DC544D}
    .fil6 {fill:#FAD11B}
    .fil4 {fill:#FEFEFE}
    .fil3 {fill:#BF0900}
   ]]>
  </style>
    <mask id="id0">
  <linearGradient id="id1" gradientUnits="userSpaceOnUse" x1="12865.8" y1="4094.85" x2="22546.1" y2="15775.1">
   <stop offset="0" style="stop-opacity:1; stop-color:white"/>
   <stop offset="1" style="stop-opacity:0; stop-color:white"/>
  </linearGradient>
     <rect style="fill:url(#id1)" x="-6" y="-33" width="35425" height="19935"/>
    </mask>
    <mask id="id2">
  <linearGradient id="id3" gradientUnits="userSpaceOnUse" x1="716.01" y1="528.56" x2="3005.43" y2="3093.32">
   <stop offset="0" style="stop-opacity:1; stop-color:white"/>
   <stop offset="1" style="stop-opacity:0.231373; stop-color:white"/>
  </linearGradient>
     <rect style="fill:url(#id3)" x="-6" y="-33" width="3734" height="3687"/>
    </mask>
 </defs>
 <g id="Layer_x0020_1">
  <metadata id="CorelCorpID_0Corel-Layer"/>
  <g id="_2834041491872">
   <polygon class="fil0" points="4,-23 35408,-23 35408,19893 4,19893 "/>
   <polygon class="fil1" style="mask:url(#id0)" points="4,-23 35408,-23 35408,19893 4,19893 "/>
   <g>
    <polygon class="fil2" points="10,14389 63,14336 10,14283 "/>
    <polygon class="fil2" points="10,15178 458,14731 396,14669 10,15054 "/>
    <polygon class="fil2" points="10,15968 852,15125 790,15063 10,15844 "/>
    <polygon class="fil2" points="10,16757 31,16736 1247,15520 1216,15489 1185,15458 10,16633 "/>
    <polygon class="fil2" points="363,17069 10,17422 10,17546 425,17131 1641,15914 1579,15852 "/>
    <polygon class="fil2" points="758,17463 10,18211 10,18335 820,17525 820,17525 2036,16309 1974,16247 758,17463 "/>
    <polygon class="fil2" points="1152,17858 10,19000 10,19124 1214,17920 2431,16704 2369,16642 "/>
    <polygon class="fil2" points="1547,18252 10,19789 10,19893 31,19893 1609,18314 2825,17098 2763,17036 1547,18252 "/>
   </g>
   <g>
    <g>
     <polygon class="fil2" points="9428,1089 9338,999 9428,908 9361,841 9271,932 9180,841 9113,908 9204,999 9113,1089 9180,1156 9271,1066 9361,1156 "/>
     <polygon class="fil2" points="10142,1089 10052,999 10142,908 10076,841 9985,932 9894,841 9827,908 9918,999 9827,1089 9894,1156 9985,1066 10076,1156 "/>
     <polygon class="fil2" points="10856,1089 10766,999 10856,908 10790,841 10699,932 10608,841 10541,908 10632,999 10541,1089 10608,1156 10699,1066 10790,1156 "/>
     <polygon class="fil2" points="11571,1089 11480,999 11571,908 11504,841 11413,932 11322,841 11255,908 11346,999 11255,1089 11322,1156 11413,1066 11504,1156 "/>
     <polygon class="fil2" points="9428,1867 9338,1777 9428,1686 9361,1619 9271,1710 9180,1619 9113,1686 9204,1777 9113,1867 9180,1934 9271,1844 9361,1934 "/>
     <polygon class="fil2" points="10142,1867 10052,1777 10142,1686 10076,1619 9985,1710 9894,1619 9827,1686 9918,1777 9827,1867 9894,1934 9985,1844 10076,1934 "/>
     <polygon class="fil2" points="10856,1867 10766,1777 10856,1686 10790,1619 10699,1710 10608,1619 10541,1686 10632,1777 10541,1867 10608,1934 10699,1844 10790,1934 "/>
     <polygon class="fil2" points="11571,1867 11480,1777 11571,1686 11504,1619 11413,1710 11322,1619 11255,1686 11346,1777 11255,1867 11322,1934 11413,1844 11504,1934 "/>
     <polygon class="fil2" points="9428,2588 9338,2497 9428,2407 9361,2340 9271,2431 9180,2340 9113,2407 9204,2497 9113,2588 9180,2655 9271,2564 9361,2655 "/>
     <polygon class="fil2" points="10142,2588 10052,2497 10142,2407 10076,2340 9985,2431 9894,2340 9827,2407 9918,2497 9827,2588 9894,2655 9985,2564 10076,2655 "/>
     <polygon class="fil2" points="10856,2588 10766,2497 10856,2407 10790,2340 10699,2431 10608,2340 10541,2407 10632,2497 10541,2588 10608,2655 10699,2564 10790,2655 "/>
     <polygon class="fil2" points="11571,2588 11480,2497 11571,2407 11504,2340 11413,2431 11322,2340 11255,2407 11346,2497 11255,2588 11322,2655 11413,2564 11504,2655 "/>
     <polygon class="fil2" points="9428,3366 9338,3275 9428,3185 9361,3118 9271,3209 9180,3118 9113,3185 9204,3275 9113,3366 9180,3433 9271,3342 9361,3433 "/>
     <polygon class="fil2" points="10142,3366 10052,3275 10142,3185 10076,3118 9985,3209 9894,3118 9827,3185 9918,3275 9827,3366 9894,3433 9985,3342 10076,3433 "/>
     <polygon class="fil2" points="10856,3366 10766,3275 10856,3185 10790,3118 10699,3209 10608,3118 10541,3185 10632,3275 10541,3366 10608,3433 10699,3342 10790,3433 "/>
     <polygon class="fil2" points="11571,3366 11480,3275 11571,3185 11504,3118 11413,3209 11322,3118 11255,3185 11346,3275 11255,3366 11322,3433 11413,3342 11504,3433 "/>
     <polygon class="fil2" points="9428,4010 9338,3919 9428,3829 9361,3762 9271,3853 9180,3762 9113,3829 9204,3919 9113,4010 9180,4077 9271,3986 9361,4077 "/>
     <polygon class="fil2" points="10142,4010 10052,3919 10142,3829 10076,3762 9985,3853 9894,3762 9827,3829 9918,3919 9827,4010 9894,4077 9985,3986 10076,4077 "/>
     <polygon class="fil2" points="10856,4010 10766,3919 10856,3829 10790,3762 10699,3853 10608,3762 10541,3829 10632,3919 10541,4010 10608,4077 10699,3986 10790,4077 "/>
     <polygon class="fil2" points="11571,4010 11480,3919 11571,3829 11504,3762 11413,3853 11322,3762 11255,3829 11346,3919 11255,4010 11322,4077 11413,3986 11504,4077 "/>
     <polygon class="fil2" points="9428,1089 9338,999 9428,908 9361,841 9271,932 9180,841 9113,908 9204,999 9113,1089 9180,1156 9271,1066 9361,1156 "/>
     <polygon class="fil2" points="10142,1089 10052,999 10142,908 10076,841 9985,932 9894,841 9827,908 9918,999 9827,1089 9894,1156 9985,1066 10076,1156 "/>
     <polygon class="fil2" points="10856,1089 10766,999 10856,908 10790,841 10699,932 10608,841 10541,908 10632,999 10541,1089 10608,1156 10699,1066 10790,1156 "/>
     <polygon class="fil2" points="11571,1089 11480,999 11571,908 11504,841 11413,932 11322,841 11255,908 11346,999 11255,1089 11322,1156 11413,1066 11504,1156 "/>
     <polygon class="fil2" points="9428,1867 9338,1777 9428,1686 9361,1619 9271,1710 9180,1619 9113,1686 9204,1777 9113,1867 9180,1934 9271,1844 9361,1934 "/>
     <polygon class="fil2" points="10142,1867 10052,1777 10142,1686 10076,1619 9985,1710 9894,1619 9827,1686 9918,1777 9827,1867 9894,1934 9985,1844 10076,1934 "/>
     <polygon class="fil2" points="10856,1867 10766,1777 10856,1686 10790,1619 10699,1710 10608,1619 10541,1686 10632,1777 10541,1867 10608,1934 10699,1844 10790,1934 "/>
     <polygon class="fil2" points="11571,1867 11480,1777 11571,1686 11504,1619 11413,1710 11322,1619 11255,1686 11346,1777 11255,1867 11322,1934 11413,1844 11504,1934 "/>
     <polygon class="fil2" points="9428,2588 9338,2497 9428,2407 9361,2340 9271,2431 9180,2340 9113,2407 9204,2497 9113,2588 9180,2655 9271,2564 9361,2655 "/>
     <polygon class="fil2" points="10142,2588 10052,2497 10142,2407 10076,2340 9985,2431 9894,2340 9827,2407 9918,2497 9827,2588 9894,2655 9985,2564 10076,2655 "/>
     <polygon class="fil2" points="10856,2588 10766,2497 10856,2407 10790,2340 10699,2431 10608,2340 10541,2407 10632,2497 10541,2588 10608,2655 10699,2564 10790,2655 "/>
     <polygon class="fil2" points="11571,2588 11480,2497 11571,2407 11504,2340 11413,2431 11322,2340 11255,2407 11346,2497 11255,2588 11322,2655 11413,2564 11504,2655 "/>
     <polygon class="fil2" points="9428,3366 9338,3275 9428,3185 9361,3118 9271,3209 9180,3118 9113,3185 9204,3275 9113,3366 9180,3433 9271,3342 9361,3433 "/>
     <polygon class="fil2" points="10142,3366 10052,3275 10142,3185 10076,3118 9985,3209 9894,3118 9827,3185 9918,3275 9827,3366 9894,3433 9985,3342 10076,3433 "/>
     <polygon class="fil2" points="10856,3366 10766,3275 10856,3185 10790,3118 10699,3209 10608,3118 10541,3185 10632,3275 10541,3366 10608,3433 10699,3342 10790,3433 "/>
     <polygon class="fil2" points="11571,3366 11480,3275 11571,3185 11504,3118 11413,3209 11322,3118 11255,3185 11346,3275 11255,3366 11322,3433 11413,3342 11504,3433 "/>
     <polygon class="fil2" points="9428,4010 9338,3919 9428,3829 9361,3762 9271,3853 9180,3762 9113,3829 9204,3919 9113,4010 9180,4077 9271,3986 9361,4077 "/>
     <polygon class="fil2" points="10142,4010 10052,3919 10142,3829 10076,3762 9985,3853 9894,3762 9827,3829 9918,3919 9827,4010 9894,4077 9985,3986 10076,4077 "/>
     <polygon class="fil2" points="10856,4010 10766,3919 10856,3829 10790,3762 10699,3853 10608,3762 10541,3829 10632,3919 10541,4010 10608,4077 10699,3986 10790,4077 "/>
     <polygon class="fil2" points="11571,4010 11480,3919 11571,3829 11504,3762 11413,3853 11322,3762 11255,3829 11346,3919 11255,4010 11322,4077 11413,3986 11504,4077 "/>
    </g>
    <g>
     <polygon class="fil2" points="12244,1089 12153,999 12244,908 12177,841 12087,932 11996,841 11929,908 12020,999 11929,1089 11996,1156 12087,1066 12177,1156 "/>
     <polygon class="fil2" points="12958,1089 12868,999 12958,908 12891,841 12801,932 12710,841 12643,908 12734,999 12643,1089 12710,1156 12801,1066 12891,1156 "/>
     <polygon class="fil2" points="13672,1089 13582,999 13672,908 13606,841 13515,932 13424,841 13357,908 13448,999 13357,1089 13424,1156 13515,1066 13606,1156 "/>
     <polygon class="fil2" points="14386,1089 14296,999 14386,908 14320,841 14229,932 14138,841 14071,908 14162,999 14071,1089 14138,1156 14229,1066 14320,1156 "/>
     <polygon class="fil2" points="12244,1867 12153,1777 12244,1686 12177,1619 12087,1710 11996,1619 11929,1686 12020,1777 11929,1867 11996,1934 12087,1844 12177,1934 "/>
     <polygon class="fil2" points="12958,1867 12868,1777 12958,1686 12891,1619 12801,1710 12710,1619 12643,1686 12734,1777 12643,1867 12710,1934 12801,1844 12891,1934 "/>
     <polygon class="fil2" points="13672,1867 13582,1777 13672,1686 13606,1619 13515,1710 13424,1619 13357,1686 13448,1777 13357,1867 13424,1934 13515,1844 13606,1934 "/>
     <polygon class="fil2" points="14386,1867 14296,1777 14386,1686 14320,1619 14229,1710 14138,1619 14071,1686 14162,1777 14071,1867 14138,1934 14229,1844 14320,1934 "/>
     <polygon class="fil2" points="12244,2588 12153,2497 12244,2407 12177,2340 12087,2431 11996,2340 11929,2407 12020,2497 11929,2588 11996,2655 12087,2564 12177,2655 "/>
     <polygon class="fil2" points="12958,2588 12868,2497 12958,2407 12891,2340 12801,2431 12710,2340 12643,2407 12734,2497 12643,2588 12710,2655 12801,2564 12891,2655 "/>
     <polygon class="fil2" points="13672,2588 13582,2497 13672,2407 13606,2340 13515,2431 13424,2340 13357,2407 13448,2497 13357,2588 13424,2655 13515,2564 13606,2655 "/>
     <polygon class="fil2" points="14386,2588 14296,2497 14386,2407 14320,2340 14229,2431 14138,2340 14071,2407 14162,2497 14071,2588 14138,2655 14229,2564 14320,2655 "/>
     <polygon class="fil2" points="12244,3366 12153,3275 12244,3185 12177,3118 12087,3209 11996,3118 11929,3185 12020,3275 11929,3366 11996,3433 12087,3342 12177,3433 "/>
     <polygon class="fil2" points="12958,3366 12868,3275 12958,3185 12891,3118 12801,3209 12710,3118 12643,3185 12734,3275 12643,3366 12710,3433 12801,3342 12891,3433 "/>
     <polygon class="fil2" points="13672,3366 13582,3275 13672,3185 13606,3118 13515,3209 13424,3118 13357,3185 13448,3275 13357,3366 13424,3433 13515,3342 13606,3433 "/>
     <polygon class="fil2" points="14386,3366 14296,3275 14386,3185 14320,3118 14229,3209 14138,3118 14071,3185 14162,3275 14071,3366 14138,3433 14229,3342 14320,3433 "/>
     <polygon class="fil2" points="12244,4010 12153,3919 12244,3829 12177,3762 12087,3853 11996,3762 11929,3829 12020,3919 11929,4010 11996,4077 12087,3986 12177,4077 "/>
     <polygon class="fil2" points="12958,4010 12868,3919 12958,3829 12891,3762 12801,3853 12710,3762 12643,3829 12734,3919 12643,4010 12710,4077 12801,3986 12891,4077 "/>
     <polygon class="fil2" points="13672,4010 13582,3919 13672,3829 13606,3762 13515,3853 13424,3762 13357,3829 13448,3919 13357,4010 13424,4077 13515,3986 13606,4077 "/>
     <polygon class="fil2" points="14386,4010 14296,3919 14386,3829 14320,3762 14229,3853 14138,3762 14071,3829 14162,3919 14071,4010 14138,4077 14229,3986 14320,4077 "/>
     <polygon class="fil2" points="12244,1089 12153,999 12244,908 12177,841 12087,932 11996,841 11929,908 12020,999 11929,1089 11996,1156 12087,1066 12177,1156 "/>
     <polygon class="fil2" points="12958,1089 12868,999 12958,908 12891,841 12801,932 12710,841 12643,908 12734,999 12643,1089 12710,1156 12801,1066 12891,1156 "/>
     <polygon class="fil2" points="13672,1089 13582,999 13672,908 13606,841 13515,932 13424,841 13357,908 13448,999 13357,1089 13424,1156 13515,1066 13606,1156 "/>
     <polygon class="fil2" points="14386,1089 14296,999 14386,908 14320,841 14229,932 14138,841 14071,908 14162,999 14071,1089 14138,1156 14229,1066 14320,1156 "/>
     <polygon class="fil2" points="12244,1867 12153,1777 12244,1686 12177,1619 12087,1710 11996,1619 11929,1686 12020,1777 11929,1867 11996,1934 12087,1844 12177,1934 "/>
     <polygon class="fil2" points="12958,1867 12868,1777 12958,1686 12891,1619 12801,1710 12710,1619 12643,1686 12734,1777 12643,1867 12710,1934 12801,1844 12891,1934 "/>
     <polygon class="fil2" points="13672,1867 13582,1777 13672,1686 13606,1619 13515,1710 13424,1619 13357,1686 13448,1777 13357,1867 13424,1934 13515,1844 13606,1934 "/>
     <polygon class="fil2" points="14386,1867 14296,1777 14386,1686 14320,1619 14229,1710 14138,1619 14071,1686 14162,1777 14071,1867 14138,1934 14229,1844 14320,1934 "/>
     <polygon class="fil2" points="12244,2588 12153,2497 12244,2407 12177,2340 12087,2431 11996,2340 11929,2407 12020,2497 11929,2588 11996,2655 12087,2564 12177,2655 "/>
     <polygon class="fil2" points="12958,2588 12868,2497 12958,2407 12891,2340 12801,2431 12710,2340 12643,2407 12734,2497 12643,2588 12710,2655 12801,2564 12891,2655 "/>
     <polygon class="fil2" points="13672,2588 13582,2497 13672,2407 13606,2340 13515,2431 13424,2340 13357,2407 13448,2497 13357,2588 13424,2655 13515,2564 13606,2655 "/>
     <polygon class="fil2" points="14386,2588 14296,2497 14386,2407 14320,2340 14229,2431 14138,2340 14071,2407 14162,2497 14071,2588 14138,2655 14229,2564 14320,2655 "/>
     <polygon class="fil2" points="12244,3366 12153,3275 12244,3185 12177,3118 12087,3209 11996,3118 11929,3185 12020,3275 11929,3366 11996,3433 12087,3342 12177,3433 "/>
     <polygon class="fil2" points="12958,3366 12868,3275 12958,3185 12891,3118 12801,3209 12710,3118 12643,3185 12734,3275 12643,3366 12710,3433 12801,3342 12891,3433 "/>
     <polygon class="fil2" points="13672,3366 13582,3275 13672,3185 13606,3118 13515,3209 13424,3118 13357,3185 13448,3275 13357,3366 13424,3433 13515,3342 13606,3433 "/>
     <polygon class="fil2" points="14386,3366 14296,3275 14386,3185 14320,3118 14229,3209 14138,3118 14071,3185 14162,3275 14071,3366 14138,3433 14229,3342 14320,3433 "/>
     <polygon class="fil2" points="12244,4010 12153,3919 12244,3829 12177,3762 12087,3853 11996,3762 11929,3829 12020,3919 11929,4010 11996,4077 12087,3986 12177,4077 "/>
     <polygon class="fil2" points="12958,4010 12868,3919 12958,3829 12891,3762 12801,3853 12710,3762 12643,3829 12734,3919 12643,4010 12710,4077 12801,3986 12891,4077 "/>
     <polygon class="fil2" points="13672,4010 13582,3919 13672,3829 13606,3762 13515,3853 13424,3762 13357,3829 13448,3919 13357,4010 13424,4077 13515,3986 13606,4077 "/>
     <polygon class="fil2" points="14386,4010 14296,3919 14386,3829 14320,3762 14229,3853 14138,3762 14071,3829 14162,3919 14071,4010 14138,4077 14229,3986 14320,4077 "/>
    </g>
   </g>
   <path class="fil3" d="M30685 7922c1719,0 3331,455 4723,1251l0 4643c-1090,-1413 -2800,-2324 -4723,-2324 -3294,0 -5964,2670 -5964,5964 0,868 186,1693 519,2437l-3775 0c-205,-778 -314,-1595 -314,-2437 0,-5266 4268,-9534 9534,-9534z"/>
   <path class="fil4" d="M4 5792c1698,223 3010,1677 3010,3437 0,1760 -1312,3213 -3010,3437l0 -1317c978,-210 1711,-1079 1711,-2120 0,-1041 -733,-1910 -1711,-2120l0 -1317z"/>
   <path class="fil4" d="M34806 14581c210,0 412,32 602,93l0 808c-178,-98 -384,-155 -602,-155 -689,0 -1247,558 -1247,1247 0,689 558,1247 1247,1247 218,0 424,-57 602,-155l0 808c-190,61 -392,93 -602,93 -1101,0 -1993,-892 -1993,-1993 0,-1101 892,-1993 1993,-1993z"/>
   <g>
    <polygon class="fil2" points="19768,17517 19500,17339 19289,17504 19254,17460 19497,17270 19766,17448 19998,17270 20261,17448 20499,17270 20757,17448 21001,17270 21253,17448 21502,17270 21749,17448 21986,17281 22019,17328 21748,17517 21502,17339 21253,17517 21001,17339 20758,17517 20501,17339 20263,17517 20000,17339 "/>
    <polygon class="fil2" points="19768,17883 19500,17706 19289,17871 19254,17826 19497,17636 19766,17814 19998,17636 20261,17814 20499,17636 20757,17814 21001,17636 21253,17814 21502,17636 21749,17814 21986,17648 22019,17694 21748,17883 21502,17705 21253,17883 21001,17705 20758,17883 20501,17705 20263,17883 20000,17706 "/>
    <polygon class="fil2" points="19768,18249 19500,18072 19289,18237 19254,18193 19497,18003 19766,18180 19998,18003 20261,18180 20499,18003 20757,18180 21001,18003 21253,18180 21502,18003 21749,18180 21986,18014 22019,18060 21748,18249 21502,18072 21253,18249 21001,18072 20758,18249 20501,18072 20263,18249 20000,18072 "/>
    <polygon class="fil2" points="19768,17517 19500,17339 19289,17504 19254,17460 19497,17270 19766,17448 19998,17270 20261,17448 20499,17270 20757,17448 21001,17270 21253,17448 21502,17270 21749,17448 21986,17281 22019,17328 21748,17517 21502,17339 21253,17517 21001,17339 20758,17517 20501,17339 20263,17517 20000,17339 "/>
    <polygon class="fil2" points="19768,17883 19500,17706 19289,17871 19254,17826 19497,17636 19766,17814 19998,17636 20261,17814 20499,17636 20757,17814 21001,17636 21253,17814 21502,17636 21749,17814 21986,17648 22019,17694 21748,17883 21502,17705 21253,17883 21001,17705 20758,17883 20501,17705 20263,17883 20000,17706 "/>
    <polygon class="fil2" points="19768,18249 19500,18072 19289,18237 19254,18193 19497,18003 19766,18180 19998,18003 20261,18180 20499,18003 20757,18180 21001,18003 21253,18180 21502,18003 21749,18180 21986,18014 22019,18060 21748,18249 21502,18072 21253,18249 21001,18072 20758,18249 20501,18072 20263,18249 20000,18072 "/>
   </g>
   <g>
    <polygon class="fil2" points="7711,13879 7443,13701 7232,13867 7197,13822 7440,13632 7709,13810 7941,13632 8205,13810 8443,13632 8700,13810 8944,13632 9196,13810 9445,13632 9692,13810 9929,13644 9962,13690 9691,13879 9445,13701 9196,13879 8944,13701 8701,13879 8444,13701 8206,13879 7943,13701 "/>
    <polygon class="fil2" points="7711,14245 7443,14068 7232,14233 7197,14189 7440,13999 7709,14176 7941,13999 8205,14176 8443,13999 8700,14176 8944,13999 9196,14176 9445,13999 9692,14176 9929,14010 9962,14056 9691,14245 9445,14068 9196,14245 8944,14068 8701,14245 8444,14068 8206,14245 7943,14068 "/>
    <polygon class="fil2" points="7711,14612 7443,14434 7232,14599 7197,14555 7440,14365 7709,14543 7941,14365 8205,14543 8443,14365 8700,14543 8944,14365 9196,14543 9445,14365 9692,14543 9929,14376 9962,14423 9691,14612 9445,14434 9196,14612 8944,14434 8701,14612 8444,14434 8206,14612 7943,14434 "/>
    <polygon class="fil2" points="7711,13879 7443,13701 7232,13867 7197,13822 7440,13632 7709,13810 7941,13632 8205,13810 8443,13632 8700,13810 8944,13632 9196,13810 9445,13632 9692,13810 9929,13644 9962,13690 9691,13879 9445,13701 9196,13879 8944,13701 8701,13879 8444,13701 8206,13879 7943,13701 "/>
    <polygon class="fil2" points="7711,14245 7443,14068 7232,14233 7197,14189 7440,13999 7709,14176 7941,13999 8205,14176 8443,13999 8700,14176 8944,13999 9196,14176 9445,13999 9692,14176 9929,14010 9962,14056 9691,14245 9445,14068 9196,14245 8944,14068 8701,14245 8444,14068 8206,14245 7943,14068 "/>
    <polygon class="fil2" points="7711,14612 7443,14434 7232,14599 7197,14555 7440,14365 7709,14543 7941,14365 8205,14543 8443,14365 8700,14543 8944,14365 9196,14543 9445,14365 9692,14543 9929,14376 9962,14423 9691,14612 9445,14434 9196,14612 8944,14434 8701,14612 8444,14434 8206,14612 7943,14434 "/>
   </g>
   <path class="fil1" d="M11441 8154c-316,-501 -167,-1165 335,-1482 502,-316 1165,-167 1482,335 317,502 167,1165 -335,1482 -501,317 -1165,167 -1482,-335z"/>
   <path class="fil5" d="M12566 7750c71,113 222,147 335,76 113,-72 147,-222 76,-335 -72,-114 -222,-148 -336,-76 -113,72 -147,222 -75,335l0 0zm206 145c-92,0 -181,-45 -233,-128l0 0c-81,-128 -42,-298 86,-379 128,-80 297,-42 378,86 81,128 43,298 -85,378 -46,29 -96,43 -146,43z"/>
   <path class="fil5" d="M13054 8069l-17 -27c233,-147 302,-455 156,-688 -147,-232 -456,-302 -688,-155 -233,147 -302,455 -155,688l-27 16c-156,-247 -82,-575 165,-731 247,-156 575,-82 731,165 156,248 82,575 -165,732z"/>
   <path class="fil5" d="M12773 8496c-296,0 -580,-152 -742,-408 -257,-408 -135,-950 273,-1207 408,-258 949,-136 1207,272l-27 17c-248,-393 -770,-511 -1163,-263 -394,249 -512,771 -263,1164 187,297 544,448 888,375l7 31c-60,12 -120,19 -180,19z"/>
   <path class="fil5" d="M12773 8716c-364,0 -720,-180 -929,-510 -123,-195 -181,-419 -167,-649l31 2c-13,223 43,441 163,630 313,496 972,645 1469,332 496,-314 645,-973 331,-1469 -152,-241 -388,-407 -665,-470 -278,-63 -563,-14 -803,138l-17 -26c247,-157 541,-207 827,-143 285,65 529,237 685,484 323,511 169,1189 -342,1512 -181,115 -383,169 -583,169z"/>
   <polygon class="fil6" points="27884,901 27645,901 27645,662 27395,662 27395,901 27156,901 27156,1151 27395,1151 27395,1390 27645,1390 27645,1151 27884,1151 "/>
   <polygon class="fil7" points="28257,763 28018,763 28018,524 27767,524 27767,763 27528,763 27528,1013 27767,1013 27767,1252 28018,1252 28018,1013 28257,1013 "/>
   <polygon class="fil5" points="27884,901 27645,901 27645,662 27395,662 27395,901 27156,901 27156,1151 27395,1151 27395,1390 27645,1390 27645,1151 27884,1151 "/>
   <polygon class="fil1 str0" points="28257,763 28018,763 28018,524 27767,524 27767,763 27528,763 27528,1013 27767,1013 27767,1252 28018,1252 28018,1013 28257,1013 "/>
   <g>
    <polygon class="fil2" points="35408,1222 35193,1438 35193,1437 33867,2764 33126,3504 33168,3546 33909,2806 35235,1479 35235,1479 35408,1306 "/>
    <polygon class="fil2" points="35408,1753 34132,3029 33392,3770 33433,3811 34174,3071 35408,1836 "/>
    <polygon class="fil2" points="35408,2283 34397,3294 33657,4035 33699,4077 34439,3336 35408,2367 "/>
    <polygon class="fil2" points="35408,2814 34663,3560 33922,4300 33943,4321 33964,4342 34704,3601 35408,2897 "/>
    <polygon class="fil2" points="35408,5467 35249,5626 35269,5647 35290,5668 35408,5550 "/>
    <polygon class="fil2" points="35408,692 34928,1172 34928,1172 33602,2499 32861,3239 32903,3281 33643,2540 34970,1214 34970,1214 35408,775 "/>
    <polygon class="fil2" points="35408,3345 34928,3825 34188,4565 34229,4607 34970,3867 35408,3428 "/>
    <polygon class="fil2" points="35408,3875 35193,4090 34453,4831 34494,4872 35235,4132 35408,3959 "/>
    <polygon class="fil2" points="35408,4406 34718,5096 34760,5138 35408,4489 "/>
    <polygon class="fil2" points="35408,4936 34983,5361 35025,5403 35408,5020 "/>
    <polygon class="fil2" points="35408,1222 35193,1438 35193,1437 33867,2764 33126,3504 33168,3546 33909,2806 35235,1479 35235,1479 35408,1306 "/>
    <polygon class="fil2" points="35408,1753 34132,3029 33392,3770 33433,3811 34174,3071 35408,1836 "/>
    <polygon class="fil2" points="35408,2283 34397,3294 33657,4035 33699,4077 34439,3336 35408,2367 "/>
    <polygon class="fil2" points="35408,2814 34663,3560 33922,4300 33943,4321 33964,4342 34704,3601 35408,2897 "/>
    <polygon class="fil2" points="35408,5467 35249,5626 35269,5647 35290,5668 35408,5550 "/>
    <polygon class="fil2" points="35408,692 34928,1172 34928,1172 33602,2499 32861,3239 32903,3281 33643,2540 34970,1214 34970,1214 35408,775 "/>
    <polygon class="fil2" points="35408,3345 34928,3825 34188,4565 34229,4607 34970,3867 35408,3428 "/>
    <polygon class="fil2" points="35408,3875 35193,4090 34453,4831 34494,4872 35235,4132 35408,3959 "/>
    <polygon class="fil2" points="35408,4406 34718,5096 34760,5138 35408,4489 "/>
    <polygon class="fil2" points="35408,4936 34983,5361 35025,5403 35408,5020 "/>
   </g>
   <path class="fil8" style="mask:url(#id2)" d="M3712 -23c4,67 6,133 6,200 0,1915 -1553,3467 -3468,3467 -83,0 -165,-3 -246,-8l0 -1304c81,9 163,14 246,14 1198,0 2169,-971 2169,-2169 0,-67 -3,-134 -9,-200l1302 0z"/>
  </g>
 </g>
</svg>
