<svg width="1922" height="942" viewBox="0 0 1922 942" fill="none" xmlns="http://www.w3.org/2000/svg">
<path fill-rule="evenodd" clip-rule="evenodd" d="M4.54012 3.75487L3.24295 2.39222L4.54012 1.01442L3.57445 0L2.27727 1.3778L0.965677 0L0 1.01442L1.31159 2.39222L0 3.75487L0.965677 4.76929L2.27727 3.40664L3.57445 4.76929L4.54012 3.75487Z" fill="#BF0900"/>
<path fill-rule="evenodd" clip-rule="evenodd" d="M14.8311 3.75487L13.534 2.39222L14.8311 1.01442L13.8799 0L12.5683 1.3778L11.2567 0L10.291 1.01442L11.6026 2.39222L10.291 3.75487L11.2567 4.76929L12.5683 3.40664L13.8799 4.76929L14.8311 3.75487Z" fill="#BF0900"/>
<path fill-rule="evenodd" clip-rule="evenodd" d="M25.122 3.75487L23.8248 2.39222L25.122 1.01442L24.1708 0L22.8592 1.3778L21.5476 0L20.5819 1.01442L21.8935 2.39222L20.5819 3.75487L21.5476 4.76929L22.8592 3.40664L24.1708 4.76929L25.122 3.75487Z" fill="#BF0900"/>
<path fill-rule="evenodd" clip-rule="evenodd" d="M35.4273 3.75487L34.1157 2.39222L35.4273 1.01442L34.4616 0L33.1501 1.3778L31.8385 0L30.8728 1.01442L32.1844 2.39222L30.8728 3.75487L31.8385 4.76929L33.1501 3.40664L34.4616 4.76929L35.4273 3.75487Z" fill="#BF0900"/>
<path fill-rule="evenodd" clip-rule="evenodd" d="M4.54011 15.5343L3.24293 14.1716L4.54011 12.7938L3.57443 11.7794L2.27726 13.1572L0.965674 11.7794L0 12.7938L1.31159 14.1716L0 15.5343L0.965674 16.5487L2.27726 15.1861L3.57443 16.5487L4.54011 15.5343Z" fill="#BF0900"/>
<path fill-rule="evenodd" clip-rule="evenodd" d="M14.8311 15.5343L13.534 14.1716L14.8311 12.7938L13.8799 11.7794L12.5683 13.1572L11.2567 11.7794L10.291 12.7938L11.6026 14.1716L10.291 15.5343L11.2567 16.5487L12.5683 15.1861L13.8799 16.5487L14.8311 15.5343Z" fill="#BF0900"/>
<path fill-rule="evenodd" clip-rule="evenodd" d="M25.122 15.5343L23.8248 14.1716L25.122 12.7938L24.1708 11.7794L22.8592 13.1572L21.5476 11.7794L20.5819 12.7938L21.8935 14.1716L20.5819 15.5343L21.5476 16.5487L22.8592 15.1861L24.1708 16.5487L25.122 15.5343Z" fill="#BF0900"/>
<path fill-rule="evenodd" clip-rule="evenodd" d="M35.4273 15.5343L34.1157 14.1716L35.4273 12.7938L34.4616 11.7794L33.1501 13.1572L31.8385 11.7794L30.8728 12.7938L32.1844 14.1716L30.8728 15.5343L31.8385 16.5487L33.1501 15.1861L34.4616 16.5487L35.4273 15.5343Z" fill="#BF0900"/>
<path fill-rule="evenodd" clip-rule="evenodd" d="M4.54011 26.4506L3.24293 25.0728L4.54011 23.7102L3.57443 22.6957L2.27726 24.0735L0.965674 22.6957L0 23.7102L1.31159 25.0728L0 26.4506L0.965674 27.465L2.27726 26.0872L3.57443 27.465L4.54011 26.4506Z" fill="#BF0900"/>
<path fill-rule="evenodd" clip-rule="evenodd" d="M14.8311 26.4506L13.534 25.0728L14.8311 23.7102L13.8799 22.6957L12.5683 24.0735L11.2567 22.6957L10.291 23.7102L11.6026 25.0728L10.291 26.4506L11.2567 27.465L12.5683 26.0872L13.8799 27.465L14.8311 26.4506Z" fill="#BF0900"/>
<path fill-rule="evenodd" clip-rule="evenodd" d="M25.122 26.4506L23.8248 25.0728L25.122 23.7102L24.1708 22.6957L22.8592 24.0735L21.5476 22.6957L20.5819 23.7102L21.8935 25.0728L20.5819 26.4506L21.5476 27.465L22.8592 26.0872L24.1708 27.465L25.122 26.4506Z" fill="#BF0900"/>
<path fill-rule="evenodd" clip-rule="evenodd" d="M35.4273 26.4506L34.1157 25.0728L35.4273 23.7102L34.4616 22.6957L33.1501 24.0735L31.8385 22.6957L30.8728 23.7102L32.1844 25.0728L30.8728 26.4506L31.8385 27.465L33.1501 26.0872L34.4616 27.465L35.4273 26.4506Z" fill="#BF0900"/>
<path fill-rule="evenodd" clip-rule="evenodd" d="M4.54011 38.23L3.24293 36.8522L4.54011 35.4896L3.57443 34.4752L2.27726 35.853L0.965674 34.4752L0 35.4896L1.31159 36.8522L0 38.23L0.965674 39.2444L2.27726 37.8667L3.57443 39.2444L4.54011 38.23Z" fill="#BF0900"/>
<path fill-rule="evenodd" clip-rule="evenodd" d="M14.8311 38.23L13.534 36.8522L14.8311 35.4896L13.8799 34.4752L12.5683 35.853L11.2567 34.4752L10.291 35.4896L11.6026 36.8522L10.291 38.23L11.2567 39.2444L12.5683 37.8667L13.8799 39.2444L14.8311 38.23Z" fill="#BF0900"/>
<path fill-rule="evenodd" clip-rule="evenodd" d="M25.122 38.23L23.8248 36.8522L25.122 35.4896L24.1708 34.4752L22.8592 35.853L21.5476 34.4752L20.5819 35.4896L21.8935 36.8522L20.5819 38.23L21.5476 39.2444L22.8592 37.8667L24.1708 39.2444L25.122 38.23Z" fill="#BF0900"/>
<path fill-rule="evenodd" clip-rule="evenodd" d="M35.4273 38.23L34.1157 36.8522L35.4273 35.4896L34.4616 34.4752L33.1501 35.853L31.8385 34.4752L30.8728 35.4896L32.1844 36.8522L30.8728 38.23L31.8385 39.2444L33.1501 37.8667L34.4616 39.2444L35.4273 38.23Z" fill="#BF0900"/>
<path fill-rule="evenodd" clip-rule="evenodd" d="M4.54011 47.9805L3.24293 46.6027L4.54011 45.2401L3.57443 44.2256L2.27726 45.6034L0.965674 44.2256L0 45.2401L1.31159 46.6027L0 47.9805L0.965674 48.9949L2.27726 47.6171L3.57443 48.9949L4.54011 47.9805Z" fill="#BF0900"/>
<path fill-rule="evenodd" clip-rule="evenodd" d="M14.8311 47.9805L13.534 46.6027L14.8311 45.2401L13.8799 44.2256L12.5683 45.6034L11.2567 44.2256L10.291 45.2401L11.6026 46.6027L10.291 47.9805L11.2567 48.9949L12.5683 47.6171L13.8799 48.9949L14.8311 47.9805Z" fill="#BF0900"/>
<path fill-rule="evenodd" clip-rule="evenodd" d="M25.122 47.9805L23.8248 46.6027L25.122 45.2401L24.1708 44.2256L22.8592 45.6034L21.5476 44.2256L20.5819 45.2401L21.8935 46.6027L20.5819 47.9805L21.5476 48.9949L22.8592 47.6171L24.1708 48.9949L25.122 47.9805Z" fill="#BF0900"/>
<path fill-rule="evenodd" clip-rule="evenodd" d="M35.4273 47.9805L34.1157 46.6027L35.4273 45.2401L34.4616 44.2256L33.1501 45.6034L31.8385 44.2256L30.8728 45.2401L32.1844 46.6027L30.8728 47.9805L31.8385 48.9949L33.1501 47.6171L34.4616 48.9949L35.4273 47.9805Z" fill="#BF0900"/>
<path fill-rule="evenodd" clip-rule="evenodd" d="M4.54012 3.75487L3.24295 2.39222L4.54012 1.01442L3.57445 0L2.27727 1.3778L0.965677 0L0 1.01442L1.31159 2.39222L0 3.75487L0.965677 4.76929L2.27727 3.40664L3.57445 4.76929L4.54012 3.75487Z" fill="#BF0900"/>
<path fill-rule="evenodd" clip-rule="evenodd" d="M14.8311 3.75487L13.534 2.39222L14.8311 1.01442L13.8799 0L12.5683 1.3778L11.2567 0L10.291 1.01442L11.6026 2.39222L10.291 3.75487L11.2567 4.76929L12.5683 3.40664L13.8799 4.76929L14.8311 3.75487Z" fill="#BF0900"/>
<path fill-rule="evenodd" clip-rule="evenodd" d="M25.122 3.75487L23.8248 2.39222L25.122 1.01442L24.1708 0L22.8592 1.3778L21.5476 0L20.5819 1.01442L21.8935 2.39222L20.5819 3.75487L21.5476 4.76929L22.8592 3.40664L24.1708 4.76929L25.122 3.75487Z" fill="#BF0900"/>
<path fill-rule="evenodd" clip-rule="evenodd" d="M35.4273 3.75487L34.1157 2.39222L35.4273 1.01442L34.4616 0L33.1501 1.3778L31.8385 0L30.8728 1.01442L32.1844 2.39222L30.8728 3.75487L31.8385 4.76929L33.1501 3.40664L34.4616 4.76929L35.4273 3.75487Z" fill="#BF0900"/>
<path fill-rule="evenodd" clip-rule="evenodd" d="M4.54011 15.5343L3.24293 14.1716L4.54011 12.7938L3.57443 11.7794L2.27726 13.1572L0.965674 11.7794L0 12.7938L1.31159 14.1716L0 15.5343L0.965674 16.5487L2.27726 15.1861L3.57443 16.5487L4.54011 15.5343Z" fill="#BF0900"/>
<path fill-rule="evenodd" clip-rule="evenodd" d="M14.8311 15.5343L13.534 14.1716L14.8311 12.7938L13.8799 11.7794L12.5683 13.1572L11.2567 11.7794L10.291 12.7938L11.6026 14.1716L10.291 15.5343L11.2567 16.5487L12.5683 15.1861L13.8799 16.5487L14.8311 15.5343Z" fill="#BF0900"/>
<path fill-rule="evenodd" clip-rule="evenodd" d="M25.122 15.5343L23.8248 14.1716L25.122 12.7938L24.1708 11.7794L22.8592 13.1572L21.5476 11.7794L20.5819 12.7938L21.8935 14.1716L20.5819 15.5343L21.5476 16.5487L22.8592 15.1861L24.1708 16.5487L25.122 15.5343Z" fill="#BF0900"/>
<path fill-rule="evenodd" clip-rule="evenodd" d="M35.4273 15.5343L34.1157 14.1716L35.4273 12.7938L34.4616 11.7794L33.1501 13.1572L31.8385 11.7794L30.8728 12.7938L32.1844 14.1716L30.8728 15.5343L31.8385 16.5487L33.1501 15.1861L34.4616 16.5487L35.4273 15.5343Z" fill="#BF0900"/>
<path fill-rule="evenodd" clip-rule="evenodd" d="M4.54011 26.4506L3.24293 25.0728L4.54011 23.7102L3.57443 22.6957L2.27726 24.0735L0.965674 22.6957L0 23.7102L1.31159 25.0728L0 26.4506L0.965674 27.465L2.27726 26.0872L3.57443 27.465L4.54011 26.4506Z" fill="#BF0900"/>
<path fill-rule="evenodd" clip-rule="evenodd" d="M14.8311 26.4506L13.534 25.0728L14.8311 23.7102L13.8799 22.6957L12.5683 24.0735L11.2567 22.6957L10.291 23.7102L11.6026 25.0728L10.291 26.4506L11.2567 27.465L12.5683 26.0872L13.8799 27.465L14.8311 26.4506Z" fill="#BF0900"/>
<path fill-rule="evenodd" clip-rule="evenodd" d="M25.122 26.4506L23.8248 25.0728L25.122 23.7102L24.1708 22.6957L22.8592 24.0735L21.5476 22.6957L20.5819 23.7102L21.8935 25.0728L20.5819 26.4506L21.5476 27.465L22.8592 26.0872L24.1708 27.465L25.122 26.4506Z" fill="#BF0900"/>
<path fill-rule="evenodd" clip-rule="evenodd" d="M35.4273 26.4506L34.1157 25.0728L35.4273 23.7102L34.4616 22.6957L33.1501 24.0735L31.8385 22.6957L30.8728 23.7102L32.1844 25.0728L30.8728 26.4506L31.8385 27.465L33.1501 26.0872L34.4616 27.465L35.4273 26.4506Z" fill="#BF0900"/>
<path fill-rule="evenodd" clip-rule="evenodd" d="M4.54011 38.23L3.24293 36.8522L4.54011 35.4896L3.57443 34.4752L2.27726 35.853L0.965674 34.4752L0 35.4896L1.31159 36.8522L0 38.23L0.965674 39.2444L2.27726 37.8667L3.57443 39.2444L4.54011 38.23Z" fill="#BF0900"/>
<path fill-rule="evenodd" clip-rule="evenodd" d="M14.8311 38.23L13.534 36.8522L14.8311 35.4896L13.8799 34.4752L12.5683 35.853L11.2567 34.4752L10.291 35.4896L11.6026 36.8522L10.291 38.23L11.2567 39.2444L12.5683 37.8667L13.8799 39.2444L14.8311 38.23Z" fill="#BF0900"/>
<path fill-rule="evenodd" clip-rule="evenodd" d="M25.122 38.23L23.8248 36.8522L25.122 35.4896L24.1708 34.4752L22.8592 35.853L21.5476 34.4752L20.5819 35.4896L21.8935 36.8522L20.5819 38.23L21.5476 39.2444L22.8592 37.8667L24.1708 39.2444L25.122 38.23Z" fill="#BF0900"/>
<path fill-rule="evenodd" clip-rule="evenodd" d="M35.4273 38.23L34.1157 36.8522L35.4273 35.4896L34.4616 34.4752L33.1501 35.853L31.8385 34.4752L30.8728 35.4896L32.1844 36.8522L30.8728 38.23L31.8385 39.2444L33.1501 37.8667L34.4616 39.2444L35.4273 38.23Z" fill="#BF0900"/>
<path fill-rule="evenodd" clip-rule="evenodd" d="M4.54011 47.9805L3.24293 46.6027L4.54011 45.2401L3.57443 44.2256L2.27726 45.6034L0.965674 44.2256L0 45.2401L1.31159 46.6027L0 47.9805L0.965674 48.9949L2.27726 47.6171L3.57443 48.9949L4.54011 47.9805Z" fill="#BF0900"/>
<path fill-rule="evenodd" clip-rule="evenodd" d="M14.8311 47.9805L13.534 46.6027L14.8311 45.2401L13.8799 44.2256L12.5683 45.6034L11.2567 44.2256L10.291 45.2401L11.6026 46.6027L10.291 47.9805L11.2567 48.9949L12.5683 47.6171L13.8799 48.9949L14.8311 47.9805Z" fill="#BF0900"/>
<path fill-rule="evenodd" clip-rule="evenodd" d="M25.122 47.9805L23.8248 46.6027L25.122 45.2401L24.1708 44.2256L22.8592 45.6034L21.5476 44.2256L20.5819 45.2401L21.8935 46.6027L20.5819 47.9805L21.5476 48.9949L22.8592 47.6171L24.1708 48.9949L25.122 47.9805Z" fill="#BF0900"/>
<path fill-rule="evenodd" clip-rule="evenodd" d="M35.4273 47.9805L34.1157 46.6027L35.4273 45.2401L34.4616 44.2256L33.1501 45.6034L31.8385 44.2256L30.8728 45.2401L32.1844 46.6027L30.8728 47.9805L31.8385 48.9949L33.1501 47.6171L34.4616 48.9949L35.4273 47.9805Z" fill="#BF0900"/>
<path fill-rule="evenodd" clip-rule="evenodd" d="M45.1275 3.75487L43.8159 2.39222L45.1275 1.01442L44.1618 0L42.8647 1.3778L41.5531 0L40.5874 1.01442L41.899 2.39222L40.5874 3.75487L41.5531 4.76929L42.8647 3.40664L44.1618 4.76929L45.1275 3.75487Z" fill="#BF0900"/>
<path fill-rule="evenodd" clip-rule="evenodd" d="M55.4182 3.75487L54.121 2.39222L55.4182 1.01442L54.4525 0L53.1553 1.3778L51.8437 0L50.8781 1.01442L52.1896 2.39222L50.8781 3.75487L51.8437 4.76929L53.1553 3.40664L54.4525 4.76929L55.4182 3.75487Z" fill="#BF0900"/>
<path fill-rule="evenodd" clip-rule="evenodd" d="M65.7091 3.75487L64.4119 2.39222L65.7091 1.01442L64.7578 0L63.4462 1.3778L62.1346 0L61.1689 1.01442L62.4805 2.39222L61.1689 3.75487L62.1346 4.76929L63.4462 3.40664L64.7578 4.76929L65.7091 3.75487Z" fill="#BF0900"/>
<path fill-rule="evenodd" clip-rule="evenodd" d="M76 3.75487L74.7028 2.39222L76 1.01442L75.0487 0L73.7371 1.3778L72.4255 0L71.4598 1.01442L72.7714 2.39222L71.4598 3.75487L72.4255 4.76929L73.7371 3.40664L75.0487 4.76929L76 3.75487Z" fill="#BF0900"/>
<path fill-rule="evenodd" clip-rule="evenodd" d="M45.1273 15.5343L43.8157 14.1716L45.1273 12.7938L44.1616 11.7794L42.8644 13.1572L41.5528 11.7794L40.5872 12.7938L41.8987 14.1716L40.5872 15.5343L41.5528 16.5487L42.8644 15.1861L44.1616 16.5487L45.1273 15.5343Z" fill="#BF0900"/>
<path fill-rule="evenodd" clip-rule="evenodd" d="M55.4182 15.5343L54.121 14.1716L55.4182 12.7938L54.4525 11.7794L53.1553 13.1572L51.8437 11.7794L50.8781 12.7938L52.1896 14.1716L50.8781 15.5343L51.8437 16.5487L53.1553 15.1861L54.4525 16.5487L55.4182 15.5343Z" fill="#BF0900"/>
<path fill-rule="evenodd" clip-rule="evenodd" d="M65.7091 15.5343L64.4119 14.1716L65.7091 12.7938L64.7578 11.7794L63.4462 13.1572L62.1346 11.7794L61.1689 12.7938L62.4805 14.1716L61.1689 15.5343L62.1346 16.5487L63.4462 15.1861L64.7578 16.5487L65.7091 15.5343Z" fill="#BF0900"/>
<path fill-rule="evenodd" clip-rule="evenodd" d="M76 15.5343L74.7028 14.1716L76 12.7938L75.0487 11.7794L73.7371 13.1572L72.4255 11.7794L71.4598 12.7938L72.7714 14.1716L71.4598 15.5343L72.4255 16.5487L73.7371 15.1861L75.0487 16.5487L76 15.5343Z" fill="#BF0900"/>
<path fill-rule="evenodd" clip-rule="evenodd" d="M45.1273 26.4506L43.8157 25.0728L45.1273 23.7102L44.1616 22.6957L42.8644 24.0735L41.5528 22.6957L40.5872 23.7102L41.8987 25.0728L40.5872 26.4506L41.5528 27.465L42.8644 26.0872L44.1616 27.465L45.1273 26.4506Z" fill="#BF0900"/>
<path fill-rule="evenodd" clip-rule="evenodd" d="M55.4182 26.4506L54.121 25.0728L55.4182 23.7102L54.4525 22.6957L53.1553 24.0735L51.8437 22.6957L50.8781 23.7102L52.1896 25.0728L50.8781 26.4506L51.8437 27.465L53.1553 26.0872L54.4525 27.465L55.4182 26.4506Z" fill="#BF0900"/>
<path fill-rule="evenodd" clip-rule="evenodd" d="M65.7091 26.4506L64.4119 25.0728L65.7091 23.7102L64.7578 22.6957L63.4462 24.0735L62.1346 22.6957L61.1689 23.7102L62.4805 25.0728L61.1689 26.4506L62.1346 27.465L63.4462 26.0872L64.7578 27.465L65.7091 26.4506Z" fill="#BF0900"/>
<path fill-rule="evenodd" clip-rule="evenodd" d="M76 26.4506L74.7028 25.0728L76 23.7102L75.0487 22.6957L73.7371 24.0735L72.4255 22.6957L71.4598 23.7102L72.7714 25.0728L71.4598 26.4506L72.4255 27.465L73.7371 26.0872L75.0487 27.465L76 26.4506Z" fill="#BF0900"/>
<path fill-rule="evenodd" clip-rule="evenodd" d="M45.1273 38.23L43.8157 36.8522L45.1273 35.4896L44.1616 34.4752L42.8644 35.853L41.5528 34.4752L40.5872 35.4896L41.8987 36.8522L40.5872 38.23L41.5528 39.2444L42.8644 37.8667L44.1616 39.2444L45.1273 38.23Z" fill="#BF0900"/>
<path fill-rule="evenodd" clip-rule="evenodd" d="M55.4182 38.23L54.121 36.8522L55.4182 35.4896L54.4525 34.4752L53.1553 35.853L51.8437 34.4752L50.8781 35.4896L52.1896 36.8522L50.8781 38.23L51.8437 39.2444L53.1553 37.8667L54.4525 39.2444L55.4182 38.23Z" fill="#BF0900"/>
<path fill-rule="evenodd" clip-rule="evenodd" d="M65.7091 38.23L64.4119 36.8522L65.7091 35.4896L64.7578 34.4752L63.4462 35.853L62.1346 34.4752L61.1689 35.4896L62.4805 36.8522L61.1689 38.23L62.1346 39.2444L63.4462 37.8667L64.7578 39.2444L65.7091 38.23Z" fill="#BF0900"/>
<path fill-rule="evenodd" clip-rule="evenodd" d="M76 38.23L74.7028 36.8522L76 35.4896L75.0487 34.4752L73.7371 35.853L72.4255 34.4752L71.4598 35.4896L72.7714 36.8522L71.4598 38.23L72.4255 39.2444L73.7371 37.8667L75.0487 39.2444L76 38.23Z" fill="#BF0900"/>
<path fill-rule="evenodd" clip-rule="evenodd" d="M45.1273 47.9805L43.8157 46.6027L45.1273 45.2401L44.1616 44.2256L42.8644 45.6034L41.5528 44.2256L40.5872 45.2401L41.8987 46.6027L40.5872 47.9805L41.5528 48.9949L42.8644 47.6171L44.1616 48.9949L45.1273 47.9805Z" fill="#BF0900"/>
<path fill-rule="evenodd" clip-rule="evenodd" d="M55.4182 47.9805L54.121 46.6027L55.4182 45.2401L54.4525 44.2256L53.1553 45.6034L51.8437 44.2256L50.8781 45.2401L52.1896 46.6027L50.8781 47.9805L51.8437 48.9949L53.1553 47.6171L54.4525 48.9949L55.4182 47.9805Z" fill="#BF0900"/>
<path fill-rule="evenodd" clip-rule="evenodd" d="M65.7091 47.9805L64.4119 46.6027L65.7091 45.2401L64.7578 44.2256L63.4462 45.6034L62.1346 44.2256L61.1689 45.2401L62.4805 46.6027L61.1689 47.9805L62.1346 48.9949L63.4462 47.6171L64.7578 48.9949L65.7091 47.9805Z" fill="#BF0900"/>
<path fill-rule="evenodd" clip-rule="evenodd" d="M76 47.9805L74.7028 46.6027L76 45.2401L75.0487 44.2256L73.7371 45.6034L72.4255 44.2256L71.4598 45.2401L72.7714 46.6027L71.4598 47.9805L72.4255 48.9949L73.7371 47.6171L75.0487 48.9949L76 47.9805Z" fill="#BF0900"/>
<path fill-rule="evenodd" clip-rule="evenodd" d="M45.1275 3.75487L43.8159 2.39222L45.1275 1.01442L44.1618 0L42.8647 1.3778L41.5531 0L40.5874 1.01442L41.899 2.39222L40.5874 3.75487L41.5531 4.76929L42.8647 3.40664L44.1618 4.76929L45.1275 3.75487Z" fill="#BF0900"/>
<path fill-rule="evenodd" clip-rule="evenodd" d="M55.4182 3.75487L54.121 2.39222L55.4182 1.01442L54.4525 0L53.1553 1.3778L51.8437 0L50.8781 1.01442L52.1896 2.39222L50.8781 3.75487L51.8437 4.76929L53.1553 3.40664L54.4525 4.76929L55.4182 3.75487Z" fill="#BF0900"/>
<path fill-rule="evenodd" clip-rule="evenodd" d="M65.7091 3.75487L64.4119 2.39222L65.7091 1.01442L64.7578 0L63.4462 1.3778L62.1346 0L61.1689 1.01442L62.4805 2.39222L61.1689 3.75487L62.1346 4.76929L63.4462 3.40664L64.7578 4.76929L65.7091 3.75487Z" fill="#BF0900"/>
<path fill-rule="evenodd" clip-rule="evenodd" d="M76 3.75487L74.7028 2.39222L76 1.01442L75.0487 0L73.7371 1.3778L72.4255 0L71.4598 1.01442L72.7714 2.39222L71.4598 3.75487L72.4255 4.76929L73.7371 3.40664L75.0487 4.76929L76 3.75487Z" fill="#BF0900"/>
<path fill-rule="evenodd" clip-rule="evenodd" d="M45.1273 15.5343L43.8157 14.1716L45.1273 12.7938L44.1616 11.7794L42.8644 13.1572L41.5528 11.7794L40.5872 12.7938L41.8987 14.1716L40.5872 15.5343L41.5528 16.5487L42.8644 15.1861L44.1616 16.5487L45.1273 15.5343Z" fill="#BF0900"/>
<path fill-rule="evenodd" clip-rule="evenodd" d="M55.4182 15.5343L54.121 14.1716L55.4182 12.7938L54.4525 11.7794L53.1553 13.1572L51.8437 11.7794L50.8781 12.7938L52.1896 14.1716L50.8781 15.5343L51.8437 16.5487L53.1553 15.1861L54.4525 16.5487L55.4182 15.5343Z" fill="#BF0900"/>
<path fill-rule="evenodd" clip-rule="evenodd" d="M65.7091 15.5343L64.4119 14.1716L65.7091 12.7938L64.7578 11.7794L63.4462 13.1572L62.1346 11.7794L61.1689 12.7938L62.4805 14.1716L61.1689 15.5343L62.1346 16.5487L63.4462 15.1861L64.7578 16.5487L65.7091 15.5343Z" fill="#BF0900"/>
<path fill-rule="evenodd" clip-rule="evenodd" d="M76 15.5343L74.7028 14.1716L76 12.7938L75.0487 11.7794L73.7371 13.1572L72.4255 11.7794L71.4598 12.7938L72.7714 14.1716L71.4598 15.5343L72.4255 16.5487L73.7371 15.1861L75.0487 16.5487L76 15.5343Z" fill="#BF0900"/>
<path fill-rule="evenodd" clip-rule="evenodd" d="M45.1273 26.4506L43.8157 25.0728L45.1273 23.7102L44.1616 22.6957L42.8644 24.0735L41.5528 22.6957L40.5872 23.7102L41.8987 25.0728L40.5872 26.4506L41.5528 27.465L42.8644 26.0872L44.1616 27.465L45.1273 26.4506Z" fill="#BF0900"/>
<path fill-rule="evenodd" clip-rule="evenodd" d="M55.4182 26.4506L54.121 25.0728L55.4182 23.7102L54.4525 22.6957L53.1553 24.0735L51.8437 22.6957L50.8781 23.7102L52.1896 25.0728L50.8781 26.4506L51.8437 27.465L53.1553 26.0872L54.4525 27.465L55.4182 26.4506Z" fill="#BF0900"/>
<path fill-rule="evenodd" clip-rule="evenodd" d="M65.7091 26.4506L64.4119 25.0728L65.7091 23.7102L64.7578 22.6957L63.4462 24.0735L62.1346 22.6957L61.1689 23.7102L62.4805 25.0728L61.1689 26.4506L62.1346 27.465L63.4462 26.0872L64.7578 27.465L65.7091 26.4506Z" fill="#BF0900"/>
<path fill-rule="evenodd" clip-rule="evenodd" d="M76 26.4506L74.7028 25.0728L76 23.7102L75.0487 22.6957L73.7371 24.0735L72.4255 22.6957L71.4598 23.7102L72.7714 25.0728L71.4598 26.4506L72.4255 27.465L73.7371 26.0872L75.0487 27.465L76 26.4506Z" fill="#BF0900"/>
<path fill-rule="evenodd" clip-rule="evenodd" d="M45.1273 38.23L43.8157 36.8522L45.1273 35.4896L44.1616 34.4752L42.8644 35.853L41.5528 34.4752L40.5872 35.4896L41.8987 36.8522L40.5872 38.23L41.5528 39.2444L42.8644 37.8667L44.1616 39.2444L45.1273 38.23Z" fill="#BF0900"/>
<path fill-rule="evenodd" clip-rule="evenodd" d="M55.4182 38.23L54.121 36.8522L55.4182 35.4896L54.4525 34.4752L53.1553 35.853L51.8437 34.4752L50.8781 35.4896L52.1896 36.8522L50.8781 38.23L51.8437 39.2444L53.1553 37.8667L54.4525 39.2444L55.4182 38.23Z" fill="#BF0900"/>
<path fill-rule="evenodd" clip-rule="evenodd" d="M65.7091 38.23L64.4119 36.8522L65.7091 35.4896L64.7578 34.4752L63.4462 35.853L62.1346 34.4752L61.1689 35.4896L62.4805 36.8522L61.1689 38.23L62.1346 39.2444L63.4462 37.8667L64.7578 39.2444L65.7091 38.23Z" fill="#BF0900"/>
<path fill-rule="evenodd" clip-rule="evenodd" d="M76 38.23L74.7028 36.8522L76 35.4896L75.0487 34.4752L73.7371 35.853L72.4255 34.4752L71.4598 35.4896L72.7714 36.8522L71.4598 38.23L72.4255 39.2444L73.7371 37.8667L75.0487 39.2444L76 38.23Z" fill="#BF0900"/>
<path fill-rule="evenodd" clip-rule="evenodd" d="M45.1273 47.9805L43.8157 46.6027L45.1273 45.2401L44.1616 44.2256L42.8644 45.6034L41.5528 44.2256L40.5872 45.2401L41.8987 46.6027L40.5872 47.9805L41.5528 48.9949L42.8644 47.6171L44.1616 48.9949L45.1273 47.9805Z" fill="#BF0900"/>
<path fill-rule="evenodd" clip-rule="evenodd" d="M55.4182 47.9805L54.121 46.6027L55.4182 45.2401L54.4525 44.2256L53.1553 45.6034L51.8437 44.2256L50.8781 45.2401L52.1896 46.6027L50.8781 47.9805L51.8437 48.9949L53.1553 47.6171L54.4525 48.9949L55.4182 47.9805Z" fill="#BF0900"/>
<path fill-rule="evenodd" clip-rule="evenodd" d="M65.7091 47.9805L64.4119 46.6027L65.7091 45.2401L64.7578 44.2256L63.4462 45.6034L62.1346 44.2256L61.1689 45.2401L62.4805 46.6027L61.1689 47.9805L62.1346 48.9949L63.4462 47.6171L64.7578 48.9949L65.7091 47.9805Z" fill="#BF0900"/>
<path fill-rule="evenodd" clip-rule="evenodd" d="M76 47.9805L74.7028 46.6027L76 45.2401L75.0487 44.2256L73.7371 45.6034L72.4255 44.2256L71.4598 45.2401L72.7714 46.6027L71.4598 47.9805L72.4255 48.9949L73.7371 47.6171L75.0487 48.9949L76 47.9805Z" fill="#BF0900"/>
<path fill-rule="evenodd" clip-rule="evenodd" d="M34.018 891.059L32.5843 889.552L34.018 888.03L32.9507 886.908L31.517 888.431L30.0673 886.908L29 888.03L30.4497 889.552L29 891.059L30.0673 892.18L31.517 890.674L32.9507 892.18L34.018 891.059Z" fill="#BF0900"/>
<path fill-rule="evenodd" clip-rule="evenodd" d="M45.3922 891.059L43.9585 889.552L45.3922 888.03L44.3408 886.908L42.8911 888.431L41.4415 886.908L40.3741 888.03L41.8238 889.552L40.3741 891.059L41.4415 892.18L42.8911 890.674L44.3408 892.18L45.3922 891.059Z" fill="#BF0900"/>
<path fill-rule="evenodd" clip-rule="evenodd" d="M56.7666 891.059L55.3328 889.552L56.7666 888.03L55.7152 886.908L54.2655 888.431L52.8159 886.908L51.7485 888.03L53.1982 889.552L51.7485 891.059L52.8159 892.18L54.2655 890.674L55.7152 892.18L56.7666 891.059Z" fill="#BF0900"/>
<path fill-rule="evenodd" clip-rule="evenodd" d="M68.1565 891.059L66.7069 889.552L68.1565 888.03L67.0892 886.908L65.6395 888.431L64.1899 886.908L63.1226 888.03L64.5722 889.552L63.1226 891.059L64.1899 892.18L65.6395 890.674L67.0892 892.18L68.1565 891.059Z" fill="#BF0900"/>
<path fill-rule="evenodd" clip-rule="evenodd" d="M34.018 904.078L32.5843 902.572L34.018 901.049L32.9507 899.928L31.517 901.451L30.0673 899.928L29 901.049L30.4497 902.572L29 904.078L30.0673 905.199L31.517 903.693L32.9507 905.199L34.018 904.078Z" fill="#BF0900"/>
<path fill-rule="evenodd" clip-rule="evenodd" d="M45.3922 904.078L43.9585 902.572L45.3922 901.049L44.3408 899.928L42.8911 901.451L41.4415 899.928L40.3741 901.049L41.8238 902.572L40.3741 904.078L41.4415 905.199L42.8911 903.693L44.3408 905.199L45.3922 904.078Z" fill="#BF0900"/>
<path fill-rule="evenodd" clip-rule="evenodd" d="M56.7666 904.078L55.3328 902.572L56.7666 901.049L55.7152 899.928L54.2655 901.451L52.8159 899.928L51.7485 901.049L53.1982 902.572L51.7485 904.078L52.8159 905.199L54.2655 903.693L55.7152 905.199L56.7666 904.078Z" fill="#BF0900"/>
<path fill-rule="evenodd" clip-rule="evenodd" d="M68.1565 904.078L66.7069 902.572L68.1565 901.049L67.0892 899.928L65.6395 901.451L64.1899 899.928L63.1226 901.049L64.5722 902.572L63.1226 904.078L64.1899 905.199L65.6395 903.693L67.0892 905.199L68.1565 904.078Z" fill="#BF0900"/>
<path fill-rule="evenodd" clip-rule="evenodd" d="M34.018 916.143L32.5843 914.621L34.018 913.114L32.9507 911.993L31.517 913.516L30.0673 911.993L29 913.114L30.4497 914.621L29 916.143L30.0673 917.265L31.517 915.742L32.9507 917.265L34.018 916.143Z" fill="#BF0900"/>
<path fill-rule="evenodd" clip-rule="evenodd" d="M45.3922 916.143L43.9585 914.621L45.3922 913.114L44.3408 911.993L42.8911 913.516L41.4415 911.993L40.3741 913.114L41.8238 914.621L40.3741 916.143L41.4415 917.265L42.8911 915.742L44.3408 917.265L45.3922 916.143Z" fill="#BF0900"/>
<path fill-rule="evenodd" clip-rule="evenodd" d="M56.7666 916.143L55.3328 914.621L56.7666 913.114L55.7152 911.993L54.2655 913.516L52.8159 911.993L51.7485 913.114L53.1982 914.621L51.7485 916.143L52.8159 917.265L54.2655 915.742L55.7152 917.265L56.7666 916.143Z" fill="#BF0900"/>
<path fill-rule="evenodd" clip-rule="evenodd" d="M68.1565 916.143L66.7069 914.621L68.1565 913.114L67.0892 911.993L65.6395 913.516L64.1899 911.993L63.1226 913.114L64.5722 914.621L63.1226 916.143L64.1899 917.265L65.6395 915.742L67.0892 917.265L68.1565 916.143Z" fill="#BF0900"/>
<path fill-rule="evenodd" clip-rule="evenodd" d="M34.018 929.163L32.5843 927.64L34.018 926.134L32.9507 925.013L31.517 926.536L30.0673 925.013L29 926.134L30.4497 927.64L29 929.163L30.0673 930.284L31.517 928.761L32.9507 930.284L34.018 929.163Z" fill="#BF0900"/>
<path fill-rule="evenodd" clip-rule="evenodd" d="M45.3922 929.163L43.9585 927.64L45.3922 926.134L44.3408 925.013L42.8911 926.536L41.4415 925.013L40.3741 926.134L41.8238 927.64L40.3741 929.163L41.4415 930.284L42.8911 928.761L44.3408 930.284L45.3922 929.163Z" fill="#BF0900"/>
<path fill-rule="evenodd" clip-rule="evenodd" d="M56.7666 929.163L55.3328 927.64L56.7666 926.134L55.7152 925.013L54.2655 926.536L52.8159 925.013L51.7485 926.134L53.1982 927.64L51.7485 929.163L52.8159 930.284L54.2655 928.761L55.7152 930.284L56.7666 929.163Z" fill="#BF0900"/>
<path fill-rule="evenodd" clip-rule="evenodd" d="M68.1565 929.163L66.7069 927.64L68.1565 926.134L67.0892 925.013L65.6395 926.536L64.1899 925.013L63.1226 926.134L64.5722 927.64L63.1226 929.163L64.1899 930.284L65.6395 928.761L67.0892 930.284L68.1565 929.163Z" fill="#BF0900"/>
<path fill-rule="evenodd" clip-rule="evenodd" d="M34.018 939.94L32.5843 938.417L34.018 936.911L32.9507 935.79L31.517 937.312L30.0673 935.79L29 936.911L30.4497 938.417L29 939.94L30.0673 941.061L31.517 939.538L32.9507 941.061L34.018 939.94Z" fill="#BF0900"/>
<path fill-rule="evenodd" clip-rule="evenodd" d="M45.3922 939.94L43.9585 938.417L45.3922 936.911L44.3408 935.79L42.8911 937.312L41.4415 935.79L40.3741 936.911L41.8238 938.417L40.3741 939.94L41.4415 941.061L42.8911 939.538L44.3408 941.061L45.3922 939.94Z" fill="#BF0900"/>
<path fill-rule="evenodd" clip-rule="evenodd" d="M56.7666 939.94L55.3328 938.417L56.7666 936.911L55.7152 935.79L54.2655 937.312L52.8159 935.79L51.7485 936.911L53.1982 938.417L51.7485 939.94L52.8159 941.061L54.2655 939.538L55.7152 941.061L56.7666 939.94Z" fill="#BF0900"/>
<path fill-rule="evenodd" clip-rule="evenodd" d="M68.1565 939.94L66.7069 938.417L68.1565 936.911L67.0892 935.79L65.6395 937.312L64.1899 935.79L63.1226 936.911L64.5722 938.417L63.1226 939.94L64.1899 941.061L65.6395 939.538L67.0892 941.061L68.1565 939.94Z" fill="#BF0900"/>
<path fill-rule="evenodd" clip-rule="evenodd" d="M34.018 891.059L32.5843 889.552L34.018 888.03L32.9507 886.908L31.517 888.431L30.0673 886.908L29 888.03L30.4497 889.552L29 891.059L30.0673 892.18L31.517 890.674L32.9507 892.18L34.018 891.059Z" fill="#BF0900"/>
<path fill-rule="evenodd" clip-rule="evenodd" d="M45.3922 891.059L43.9585 889.552L45.3922 888.03L44.3408 886.908L42.8911 888.431L41.4415 886.908L40.3741 888.03L41.8238 889.552L40.3741 891.059L41.4415 892.18L42.8911 890.674L44.3408 892.18L45.3922 891.059Z" fill="#BF0900"/>
<path fill-rule="evenodd" clip-rule="evenodd" d="M56.7666 891.059L55.3328 889.552L56.7666 888.03L55.7152 886.908L54.2655 888.431L52.8159 886.908L51.7485 888.03L53.1982 889.552L51.7485 891.059L52.8159 892.18L54.2655 890.674L55.7152 892.18L56.7666 891.059Z" fill="#BF0900"/>
<path fill-rule="evenodd" clip-rule="evenodd" d="M68.1565 891.059L66.7069 889.552L68.1565 888.03L67.0892 886.908L65.6395 888.431L64.1899 886.908L63.1226 888.03L64.5722 889.552L63.1226 891.059L64.1899 892.18L65.6395 890.674L67.0892 892.18L68.1565 891.059Z" fill="#BF0900"/>
<path fill-rule="evenodd" clip-rule="evenodd" d="M34.018 904.078L32.5843 902.572L34.018 901.049L32.9507 899.928L31.517 901.451L30.0673 899.928L29 901.049L30.4497 902.572L29 904.078L30.0673 905.199L31.517 903.693L32.9507 905.199L34.018 904.078Z" fill="#BF0900"/>
<path fill-rule="evenodd" clip-rule="evenodd" d="M45.3922 904.078L43.9585 902.572L45.3922 901.049L44.3408 899.928L42.8911 901.451L41.4415 899.928L40.3741 901.049L41.8238 902.572L40.3741 904.078L41.4415 905.199L42.8911 903.693L44.3408 905.199L45.3922 904.078Z" fill="#BF0900"/>
<path fill-rule="evenodd" clip-rule="evenodd" d="M56.7666 904.078L55.3328 902.572L56.7666 901.049L55.7152 899.928L54.2655 901.451L52.8159 899.928L51.7485 901.049L53.1982 902.572L51.7485 904.078L52.8159 905.199L54.2655 903.693L55.7152 905.199L56.7666 904.078Z" fill="#BF0900"/>
<path fill-rule="evenodd" clip-rule="evenodd" d="M68.1565 904.078L66.7069 902.572L68.1565 901.049L67.0892 899.928L65.6395 901.451L64.1899 899.928L63.1226 901.049L64.5722 902.572L63.1226 904.078L64.1899 905.199L65.6395 903.693L67.0892 905.199L68.1565 904.078Z" fill="#BF0900"/>
<path fill-rule="evenodd" clip-rule="evenodd" d="M34.018 916.143L32.5843 914.621L34.018 913.114L32.9507 911.993L31.517 913.516L30.0673 911.993L29 913.114L30.4497 914.621L29 916.143L30.0673 917.265L31.517 915.742L32.9507 917.265L34.018 916.143Z" fill="#BF0900"/>
<path fill-rule="evenodd" clip-rule="evenodd" d="M45.3922 916.143L43.9585 914.621L45.3922 913.114L44.3408 911.993L42.8911 913.516L41.4415 911.993L40.3741 913.114L41.8238 914.621L40.3741 916.143L41.4415 917.265L42.8911 915.742L44.3408 917.265L45.3922 916.143Z" fill="#BF0900"/>
<path fill-rule="evenodd" clip-rule="evenodd" d="M56.7666 916.143L55.3328 914.621L56.7666 913.114L55.7152 911.993L54.2655 913.516L52.8159 911.993L51.7485 913.114L53.1982 914.621L51.7485 916.143L52.8159 917.265L54.2655 915.742L55.7152 917.265L56.7666 916.143Z" fill="#BF0900"/>
<path fill-rule="evenodd" clip-rule="evenodd" d="M68.1565 916.143L66.7069 914.621L68.1565 913.114L67.0892 911.993L65.6395 913.516L64.1899 911.993L63.1226 913.114L64.5722 914.621L63.1226 916.143L64.1899 917.265L65.6395 915.742L67.0892 917.265L68.1565 916.143Z" fill="#BF0900"/>
<path fill-rule="evenodd" clip-rule="evenodd" d="M34.018 929.163L32.5843 927.64L34.018 926.134L32.9507 925.013L31.517 926.536L30.0673 925.013L29 926.134L30.4497 927.64L29 929.163L30.0673 930.284L31.517 928.761L32.9507 930.284L34.018 929.163Z" fill="#BF0900"/>
<path fill-rule="evenodd" clip-rule="evenodd" d="M45.3922 929.163L43.9585 927.64L45.3922 926.134L44.3408 925.013L42.8911 926.536L41.4415 925.013L40.3741 926.134L41.8238 927.64L40.3741 929.163L41.4415 930.284L42.8911 928.761L44.3408 930.284L45.3922 929.163Z" fill="#BF0900"/>
<path fill-rule="evenodd" clip-rule="evenodd" d="M56.7666 929.163L55.3328 927.64L56.7666 926.134L55.7152 925.013L54.2655 926.536L52.8159 925.013L51.7485 926.134L53.1982 927.64L51.7485 929.163L52.8159 930.284L54.2655 928.761L55.7152 930.284L56.7666 929.163Z" fill="#BF0900"/>
<path fill-rule="evenodd" clip-rule="evenodd" d="M68.1565 929.163L66.7069 927.64L68.1565 926.134L67.0892 925.013L65.6395 926.536L64.1899 925.013L63.1226 926.134L64.5722 927.64L63.1226 929.163L64.1899 930.284L65.6395 928.761L67.0892 930.284L68.1565 929.163Z" fill="#BF0900"/>
<path fill-rule="evenodd" clip-rule="evenodd" d="M34.018 939.94L32.5843 938.417L34.018 936.911L32.9507 935.79L31.517 937.312L30.0673 935.79L29 936.911L30.4497 938.417L29 939.94L30.0673 941.061L31.517 939.538L32.9507 941.061L34.018 939.94Z" fill="#BF0900"/>
<path fill-rule="evenodd" clip-rule="evenodd" d="M45.3922 939.94L43.9585 938.417L45.3922 936.911L44.3408 935.79L42.8911 937.312L41.4415 935.79L40.3741 936.911L41.8238 938.417L40.3741 939.94L41.4415 941.061L42.8911 939.538L44.3408 941.061L45.3922 939.94Z" fill="#BF0900"/>
<path fill-rule="evenodd" clip-rule="evenodd" d="M56.7666 939.94L55.3328 938.417L56.7666 936.911L55.7152 935.79L54.2655 937.312L52.8159 935.79L51.7485 936.911L53.1982 938.417L51.7485 939.94L52.8159 941.061L54.2655 939.538L55.7152 941.061L56.7666 939.94Z" fill="#BF0900"/>
<path fill-rule="evenodd" clip-rule="evenodd" d="M68.1565 939.94L66.7069 938.417L68.1565 936.911L67.0892 935.79L65.6395 937.312L64.1899 935.79L63.1226 936.911L64.5722 938.417L63.1226 939.94L64.1899 941.061L65.6395 939.538L67.0892 941.061L68.1565 939.94Z" fill="#BF0900"/>
<path fill-rule="evenodd" clip-rule="evenodd" d="M78.878 891.059L77.4284 889.552L78.878 888.03L77.8107 886.908L76.377 888.431L74.9273 886.908L73.86 888.03L75.3096 889.552L73.86 891.059L74.9273 892.18L76.377 890.674L77.8107 892.18L78.878 891.059Z" fill="#BF0900"/>
<path fill-rule="evenodd" clip-rule="evenodd" d="M90.2517 891.059L88.818 889.552L90.2517 888.03L89.1844 886.908L87.7506 888.431L86.301 886.908L85.2336 888.03L86.6833 889.552L85.2336 891.059L86.301 892.18L87.7506 890.674L89.1844 892.18L90.2517 891.059Z" fill="#BF0900"/>
<path fill-rule="evenodd" clip-rule="evenodd" d="M101.626 891.059L100.192 889.552L101.626 888.03L100.574 886.908L99.1248 888.431L97.6751 886.908L96.6078 888.03L98.0574 889.552L96.6078 891.059L97.6751 892.18L99.1248 890.674L100.574 892.18L101.626 891.059Z" fill="#BF0900"/>
<path fill-rule="evenodd" clip-rule="evenodd" d="M113 891.059L111.566 889.552L113 888.03L111.949 886.908L110.499 888.431L109.049 886.908L107.982 888.03L109.432 889.552L107.982 891.059L109.049 892.18L110.499 890.674L111.949 892.18L113 891.059Z" fill="#BF0900"/>
<path fill-rule="evenodd" clip-rule="evenodd" d="M78.8775 904.078L77.4279 902.572L78.8775 901.049L77.8102 899.928L76.3765 901.451L74.9268 899.928L73.8595 901.049L75.3091 902.572L73.8595 904.078L74.9268 905.199L76.3765 903.693L77.8102 905.199L78.8775 904.078Z" fill="#BF0900"/>
<path fill-rule="evenodd" clip-rule="evenodd" d="M90.2517 904.078L88.818 902.572L90.2517 901.049L89.1844 899.928L87.7506 901.451L86.301 899.928L85.2336 901.049L86.6833 902.572L85.2336 904.078L86.301 905.199L87.7506 903.693L89.1844 905.199L90.2517 904.078Z" fill="#BF0900"/>
<path fill-rule="evenodd" clip-rule="evenodd" d="M101.626 904.078L100.192 902.572L101.626 901.049L100.574 899.928L99.1248 901.451L97.6751 899.928L96.6078 901.049L98.0574 902.572L96.6078 904.078L97.6751 905.199L99.1248 903.693L100.574 905.199L101.626 904.078Z" fill="#BF0900"/>
<path fill-rule="evenodd" clip-rule="evenodd" d="M113 904.078L111.566 902.572L113 901.049L111.949 899.928L110.499 901.451L109.049 899.928L107.982 901.049L109.432 902.572L107.982 904.078L109.049 905.199L110.499 903.693L111.949 905.199L113 904.078Z" fill="#BF0900"/>
<path fill-rule="evenodd" clip-rule="evenodd" d="M78.8775 916.143L77.4279 914.621L78.8775 913.114L77.8102 911.993L76.3765 913.516L74.9268 911.993L73.8595 913.114L75.3091 914.621L73.8595 916.143L74.9268 917.265L76.3765 915.742L77.8102 917.265L78.8775 916.143Z" fill="#BF0900"/>
<path fill-rule="evenodd" clip-rule="evenodd" d="M90.2517 916.143L88.818 914.621L90.2517 913.114L89.1844 911.993L87.7506 913.516L86.301 911.993L85.2336 913.114L86.6833 914.621L85.2336 916.143L86.301 917.265L87.7506 915.742L89.1844 917.265L90.2517 916.143Z" fill="#BF0900"/>
<path fill-rule="evenodd" clip-rule="evenodd" d="M101.626 916.143L100.192 914.621L101.626 913.114L100.574 911.993L99.1248 913.516L97.6751 911.993L96.6078 913.114L98.0574 914.621L96.6078 916.143L97.6751 917.265L99.1248 915.742L100.574 917.265L101.626 916.143Z" fill="#BF0900"/>
<path fill-rule="evenodd" clip-rule="evenodd" d="M113 916.143L111.566 914.621L113 913.114L111.949 911.993L110.499 913.516L109.049 911.993L107.982 913.114L109.432 914.621L107.982 916.143L109.049 917.265L110.499 915.742L111.949 917.265L113 916.143Z" fill="#BF0900"/>
<path fill-rule="evenodd" clip-rule="evenodd" d="M78.8775 929.163L77.4279 927.64L78.8775 926.134L77.8102 925.013L76.3765 926.536L74.9268 925.013L73.8595 926.134L75.3091 927.64L73.8595 929.163L74.9268 930.284L76.3765 928.761L77.8102 930.284L78.8775 929.163Z" fill="#BF0900"/>
<path fill-rule="evenodd" clip-rule="evenodd" d="M90.2517 929.163L88.818 927.64L90.2517 926.134L89.1844 925.013L87.7506 926.536L86.301 925.013L85.2336 926.134L86.6833 927.64L85.2336 929.163L86.301 930.284L87.7506 928.761L89.1844 930.284L90.2517 929.163Z" fill="#BF0900"/>
<path fill-rule="evenodd" clip-rule="evenodd" d="M101.626 929.163L100.192 927.64L101.626 926.134L100.574 925.013L99.1248 926.536L97.6751 925.013L96.6078 926.134L98.0574 927.64L96.6078 929.163L97.6751 930.284L99.1248 928.761L100.574 930.284L101.626 929.163Z" fill="#BF0900"/>
<path fill-rule="evenodd" clip-rule="evenodd" d="M113 929.163L111.566 927.64L113 926.134L111.949 925.013L110.499 926.536L109.049 925.013L107.982 926.134L109.432 927.64L107.982 929.163L109.049 930.284L110.499 928.761L111.949 930.284L113 929.163Z" fill="#BF0900"/>
<path fill-rule="evenodd" clip-rule="evenodd" d="M78.8775 939.94L77.4279 938.417L78.8775 936.911L77.8102 935.79L76.3765 937.312L74.9268 935.79L73.8595 936.911L75.3091 938.417L73.8595 939.94L74.9268 941.061L76.3765 939.538L77.8102 941.061L78.8775 939.94Z" fill="#BF0900"/>
<path fill-rule="evenodd" clip-rule="evenodd" d="M90.2517 939.94L88.818 938.417L90.2517 936.911L89.1844 935.79L87.7506 937.312L86.301 935.79L85.2336 936.911L86.6833 938.417L85.2336 939.94L86.301 941.061L87.7506 939.538L89.1844 941.061L90.2517 939.94Z" fill="#BF0900"/>
<path fill-rule="evenodd" clip-rule="evenodd" d="M101.626 939.94L100.192 938.417L101.626 936.911L100.574 935.79L99.1248 937.312L97.6751 935.79L96.6078 936.911L98.0574 938.417L96.6078 939.94L97.6751 941.061L99.1248 939.538L100.574 941.061L101.626 939.94Z" fill="#BF0900"/>
<path fill-rule="evenodd" clip-rule="evenodd" d="M113 939.94L111.566 938.417L113 936.911L111.949 935.79L110.499 937.312L109.049 935.79L107.982 936.911L109.432 938.417L107.982 939.94L109.049 941.061L110.499 939.538L111.949 941.061L113 939.94Z" fill="#BF0900"/>
<path fill-rule="evenodd" clip-rule="evenodd" d="M78.878 891.059L77.4284 889.552L78.878 888.03L77.8107 886.908L76.377 888.431L74.9273 886.908L73.86 888.03L75.3096 889.552L73.86 891.059L74.9273 892.18L76.377 890.674L77.8107 892.18L78.878 891.059Z" fill="#BF0900"/>
<path fill-rule="evenodd" clip-rule="evenodd" d="M90.2517 891.059L88.818 889.552L90.2517 888.03L89.1844 886.908L87.7506 888.431L86.301 886.908L85.2336 888.03L86.6833 889.552L85.2336 891.059L86.301 892.18L87.7506 890.674L89.1844 892.18L90.2517 891.059Z" fill="#BF0900"/>
<path fill-rule="evenodd" clip-rule="evenodd" d="M101.626 891.059L100.192 889.552L101.626 888.03L100.574 886.908L99.1248 888.431L97.6751 886.908L96.6078 888.03L98.0574 889.552L96.6078 891.059L97.6751 892.18L99.1248 890.674L100.574 892.18L101.626 891.059Z" fill="#BF0900"/>
<path fill-rule="evenodd" clip-rule="evenodd" d="M113 891.059L111.566 889.552L113 888.03L111.949 886.908L110.499 888.431L109.049 886.908L107.982 888.03L109.432 889.552L107.982 891.059L109.049 892.18L110.499 890.674L111.949 892.18L113 891.059Z" fill="#BF0900"/>
<path fill-rule="evenodd" clip-rule="evenodd" d="M78.8775 904.078L77.4279 902.572L78.8775 901.049L77.8102 899.928L76.3765 901.451L74.9268 899.928L73.8595 901.049L75.3091 902.572L73.8595 904.078L74.9268 905.199L76.3765 903.693L77.8102 905.199L78.8775 904.078Z" fill="#BF0900"/>
<path fill-rule="evenodd" clip-rule="evenodd" d="M90.2517 904.078L88.818 902.572L90.2517 901.049L89.1844 899.928L87.7506 901.451L86.301 899.928L85.2336 901.049L86.6833 902.572L85.2336 904.078L86.301 905.199L87.7506 903.693L89.1844 905.199L90.2517 904.078Z" fill="#BF0900"/>
<path fill-rule="evenodd" clip-rule="evenodd" d="M101.626 904.078L100.192 902.572L101.626 901.049L100.574 899.928L99.1248 901.451L97.6751 899.928L96.6078 901.049L98.0574 902.572L96.6078 904.078L97.6751 905.199L99.1248 903.693L100.574 905.199L101.626 904.078Z" fill="#BF0900"/>
<path fill-rule="evenodd" clip-rule="evenodd" d="M113 904.078L111.566 902.572L113 901.049L111.949 899.928L110.499 901.451L109.049 899.928L107.982 901.049L109.432 902.572L107.982 904.078L109.049 905.199L110.499 903.693L111.949 905.199L113 904.078Z" fill="#BF0900"/>
<path fill-rule="evenodd" clip-rule="evenodd" d="M78.8775 916.143L77.4279 914.621L78.8775 913.114L77.8102 911.993L76.3765 913.516L74.9268 911.993L73.8595 913.114L75.3091 914.621L73.8595 916.143L74.9268 917.265L76.3765 915.742L77.8102 917.265L78.8775 916.143Z" fill="#BF0900"/>
<path fill-rule="evenodd" clip-rule="evenodd" d="M90.2517 916.143L88.818 914.621L90.2517 913.114L89.1844 911.993L87.7506 913.516L86.301 911.993L85.2336 913.114L86.6833 914.621L85.2336 916.143L86.301 917.265L87.7506 915.742L89.1844 917.265L90.2517 916.143Z" fill="#BF0900"/>
<path fill-rule="evenodd" clip-rule="evenodd" d="M101.626 916.143L100.192 914.621L101.626 913.114L100.574 911.993L99.1248 913.516L97.6751 911.993L96.6078 913.114L98.0574 914.621L96.6078 916.143L97.6751 917.265L99.1248 915.742L100.574 917.265L101.626 916.143Z" fill="#BF0900"/>
<path fill-rule="evenodd" clip-rule="evenodd" d="M113 916.143L111.566 914.621L113 913.114L111.949 911.993L110.499 913.516L109.049 911.993L107.982 913.114L109.432 914.621L107.982 916.143L109.049 917.265L110.499 915.742L111.949 917.265L113 916.143Z" fill="#BF0900"/>
<path fill-rule="evenodd" clip-rule="evenodd" d="M78.8775 929.163L77.4279 927.64L78.8775 926.134L77.8102 925.013L76.3765 926.536L74.9268 925.013L73.8595 926.134L75.3091 927.64L73.8595 929.163L74.9268 930.284L76.3765 928.761L77.8102 930.284L78.8775 929.163Z" fill="#BF0900"/>
<path fill-rule="evenodd" clip-rule="evenodd" d="M90.2517 929.163L88.818 927.64L90.2517 926.134L89.1844 925.013L87.7506 926.536L86.301 925.013L85.2336 926.134L86.6833 927.64L85.2336 929.163L86.301 930.284L87.7506 928.761L89.1844 930.284L90.2517 929.163Z" fill="#BF0900"/>
<path fill-rule="evenodd" clip-rule="evenodd" d="M101.626 929.163L100.192 927.64L101.626 926.134L100.574 925.013L99.1248 926.536L97.6751 925.013L96.6078 926.134L98.0574 927.64L96.6078 929.163L97.6751 930.284L99.1248 928.761L100.574 930.284L101.626 929.163Z" fill="#BF0900"/>
<path fill-rule="evenodd" clip-rule="evenodd" d="M113 929.163L111.566 927.64L113 926.134L111.949 925.013L110.499 926.536L109.049 925.013L107.982 926.134L109.432 927.64L107.982 929.163L109.049 930.284L110.499 928.761L111.949 930.284L113 929.163Z" fill="#BF0900"/>
<path fill-rule="evenodd" clip-rule="evenodd" d="M78.8775 939.94L77.4279 938.417L78.8775 936.911L77.8102 935.79L76.3765 937.312L74.9268 935.79L73.8595 936.911L75.3091 938.417L73.8595 939.94L74.9268 941.061L76.3765 939.538L77.8102 941.061L78.8775 939.94Z" fill="#BF0900"/>
<path fill-rule="evenodd" clip-rule="evenodd" d="M90.2517 939.94L88.818 938.417L90.2517 936.911L89.1844 935.79L87.7506 937.312L86.301 935.79L85.2336 936.911L86.6833 938.417L85.2336 939.94L86.301 941.061L87.7506 939.538L89.1844 941.061L90.2517 939.94Z" fill="#BF0900"/>
<path fill-rule="evenodd" clip-rule="evenodd" d="M101.626 939.94L100.192 938.417L101.626 936.911L100.574 935.79L99.1248 937.312L97.6751 935.79L96.6078 936.911L98.0574 938.417L96.6078 939.94L97.6751 941.061L99.1248 939.538L100.574 941.061L101.626 939.94Z" fill="#BF0900"/>
<path fill-rule="evenodd" clip-rule="evenodd" d="M113 939.94L111.566 938.417L113 936.911L111.949 935.79L110.499 937.312L109.049 935.79L107.982 936.911L109.432 938.417L107.982 939.94L109.049 941.061L110.499 939.538L111.949 941.061L113 939.94Z" fill="#BF0900"/>
<path fill-rule="evenodd" clip-rule="evenodd" d="M1909.01 37C1913.54 37 1917.9 37.7225 1922 39.0998V57.3437C1918.16 55.131 1913.71 53.844 1909.01 53.844C1894.14 53.844 1882.1 66.443 1882.1 82C1882.1 97.5569 1894.14 110.156 1909.01 110.156C1913.71 110.156 1918.16 108.869 1922 106.656V124.9C1917.9 126.277 1913.54 127 1909.01 127C1885.25 127 1866 106.86 1866 82C1866 57.1405 1885.25 37 1909.01 37Z" fill="url(#paint0_linear)"/>
<path d="M117 294C60.3101 294 14 339.911 14 397C14 453.69 59.9109 500 117 500C173.69 500 220 454.089 220 397C220 339.911 174.089 294 117 294Z" fill="url(#paint1_linear)"/>
<path d="M1838 720C1807.18 720 1782 744.961 1782 776C1782 806.822 1806.96 832 1838 832C1868.82 832 1894 807.039 1894 776C1894 744.961 1869.04 720 1838 720Z" fill="url(#paint2_linear)"/>
<defs>
<linearGradient id="paint0_linear" x1="1894" y1="37" x2="1894" y2="127" gradientUnits="userSpaceOnUse">
<stop stop-color="#BF0900"/>
<stop offset="1" stop-color="#F8F8F8" stop-opacity="0"/>
</linearGradient>
<linearGradient id="paint1_linear" x1="16.5335" y1="396.737" x2="214.43" y2="396.737" gradientUnits="userSpaceOnUse">
<stop stop-color="#BF0900"/>
<stop offset="1" stop-color="#BF0900" stop-opacity="0"/>
</linearGradient>
<linearGradient id="paint2_linear" x1="1783.38" y1="775.857" x2="1890.97" y2="775.857" gradientUnits="userSpaceOnUse">
<stop stop-color="#BF0900"/>
<stop offset="1" stop-color="#BF0900" stop-opacity="0"/>
</linearGradient>
</defs>
</svg>
