<svg width="1922" height="664" viewBox="0 0 1922 664" fill="none" xmlns="http://www.w3.org/2000/svg">
<path fill-rule="evenodd" clip-rule="evenodd" d="M69.1699 10.4487L67.9785 9.19716L69.1699 7.93171L68.283 7L67.0916 8.26545L65.8869 7L65 7.93171L66.2046 9.19716L65 10.4487L65.8869 11.3804L67.0916 10.1289L68.283 11.3804L69.1699 10.4487Z" fill="#BF0900"/>
<path fill-rule="evenodd" clip-rule="evenodd" d="M78.6218 10.4487L77.4304 9.19716L78.6218 7.93171L77.7481 7L76.5435 8.26545L75.3388 7L74.4519 7.93171L75.6566 9.19716L74.4519 10.4487L75.3388 11.3804L76.5435 10.1289L77.7481 11.3804L78.6218 10.4487Z" fill="#BF0900"/>
<path fill-rule="evenodd" clip-rule="evenodd" d="M88.0736 10.4487L86.8822 9.19716L88.0736 7.93171L87.1999 7L85.9953 8.26545L84.7906 7L83.9037 7.93171L85.1083 9.19716L83.9037 10.4487L84.7906 11.3804L85.9953 10.1289L87.1999 11.3804L88.0736 10.4487Z" fill="#BF0900"/>
<path fill-rule="evenodd" clip-rule="evenodd" d="M97.5386 10.4487L96.334 9.19716L97.5386 7.93171L96.6517 7L95.447 8.26545L94.2424 7L93.3555 7.93171L94.5601 9.19716L93.3555 10.4487L94.2424 11.3804L95.447 10.1289L96.6517 11.3804L97.5386 10.4487Z" fill="#BF0900"/>
<path fill-rule="evenodd" clip-rule="evenodd" d="M69.1699 21.2676L67.9785 20.0161L69.1699 18.7506L68.283 17.8189L67.0916 19.0844L65.8869 17.8189L65 18.7506L66.2046 20.0161L65 21.2676L65.8869 22.1993L67.0916 20.9478L68.283 22.1993L69.1699 21.2676Z" fill="#BF0900"/>
<path fill-rule="evenodd" clip-rule="evenodd" d="M78.6218 21.2676L77.4304 20.0161L78.6218 18.7506L77.7481 17.8189L76.5435 19.0844L75.3388 17.8189L74.4519 18.7506L75.6566 20.0161L74.4519 21.2676L75.3388 22.1993L76.5435 20.9478L77.7481 22.1993L78.6218 21.2676Z" fill="#BF0900"/>
<path fill-rule="evenodd" clip-rule="evenodd" d="M88.0736 21.2676L86.8822 20.0161L88.0736 18.7506L87.1999 17.8189L85.9953 19.0844L84.7906 17.8189L83.9037 18.7506L85.1083 20.0161L83.9037 21.2676L84.7906 22.1993L85.9953 20.9478L87.1999 22.1993L88.0736 21.2676Z" fill="#BF0900"/>
<path fill-rule="evenodd" clip-rule="evenodd" d="M97.5386 21.2676L96.334 20.0161L97.5386 18.7506L96.6517 17.8189L95.447 19.0844L94.2424 17.8189L93.3555 18.7506L94.5601 20.0161L93.3555 21.2676L94.2424 22.1993L95.447 20.9478L96.6517 22.1993L97.5386 21.2676Z" fill="#BF0900"/>
<path fill-rule="evenodd" clip-rule="evenodd" d="M69.1699 31.2939L67.9785 30.0284L69.1699 28.7769L68.283 27.8452L67.0916 29.1106L65.8869 27.8452L65 28.7769L66.2046 30.0284L65 31.2939L65.8869 32.2256L67.0916 30.9601L68.283 32.2256L69.1699 31.2939Z" fill="#BF0900"/>
<path fill-rule="evenodd" clip-rule="evenodd" d="M78.6218 31.2939L77.4304 30.0284L78.6218 28.7769L77.7481 27.8452L76.5435 29.1106L75.3388 27.8452L74.4519 28.7769L75.6566 30.0284L74.4519 31.2939L75.3388 32.2256L76.5435 30.9601L77.7481 32.2256L78.6218 31.2939Z" fill="#BF0900"/>
<path fill-rule="evenodd" clip-rule="evenodd" d="M88.0736 31.2939L86.8822 30.0284L88.0736 28.7769L87.1999 27.8452L85.9953 29.1106L84.7906 27.8452L83.9037 28.7769L85.1083 30.0284L83.9037 31.2939L84.7906 32.2256L85.9953 30.9601L87.1999 32.2256L88.0736 31.2939Z" fill="#BF0900"/>
<path fill-rule="evenodd" clip-rule="evenodd" d="M97.5386 31.2939L96.334 30.0284L97.5386 28.7769L96.6517 27.8452L95.447 29.1106L94.2424 27.8452L93.3555 28.7769L94.5601 30.0284L93.3555 31.2939L94.2424 32.2256L95.447 30.9601L96.6517 32.2256L97.5386 31.2939Z" fill="#BF0900"/>
<path fill-rule="evenodd" clip-rule="evenodd" d="M69.1699 42.1128L67.9785 40.8474L69.1699 39.5958L68.283 38.6641L67.0916 39.9296L65.8869 38.6641L65 39.5958L66.2046 40.8474L65 42.1128L65.8869 43.0445L67.0916 41.7791L68.283 43.0445L69.1699 42.1128Z" fill="#BF0900"/>
<path fill-rule="evenodd" clip-rule="evenodd" d="M78.6218 42.1128L77.4304 40.8474L78.6218 39.5958L77.7481 38.6641L76.5435 39.9296L75.3388 38.6641L74.4519 39.5958L75.6566 40.8474L74.4519 42.1128L75.3388 43.0445L76.5435 41.7791L77.7481 43.0445L78.6218 42.1128Z" fill="#BF0900"/>
<path fill-rule="evenodd" clip-rule="evenodd" d="M88.0736 42.1128L86.8822 40.8474L88.0736 39.5958L87.1999 38.6641L85.9953 39.9296L84.7906 38.6641L83.9037 39.5958L85.1083 40.8474L83.9037 42.1128L84.7906 43.0445L85.9953 41.7791L87.1999 43.0445L88.0736 42.1128Z" fill="#BF0900"/>
<path fill-rule="evenodd" clip-rule="evenodd" d="M97.5386 42.1128L96.334 40.8474L97.5386 39.5958L96.6517 38.6641L95.447 39.9296L94.2424 38.6641L93.3555 39.5958L94.5601 40.8474L93.3555 42.1128L94.2424 43.0445L95.447 41.7791L96.6517 43.0445L97.5386 42.1128Z" fill="#BF0900"/>
<path fill-rule="evenodd" clip-rule="evenodd" d="M69.1699 51.0683L67.9785 49.8028L69.1699 48.5513L68.283 47.6196L67.0916 48.885L65.8869 47.6196L65 48.5513L66.2046 49.8028L65 51.0683L65.8869 52L67.0916 50.7345L68.283 52L69.1699 51.0683Z" fill="#BF0900"/>
<path fill-rule="evenodd" clip-rule="evenodd" d="M78.6218 51.0683L77.4304 49.8028L78.6218 48.5513L77.7481 47.6196L76.5435 48.885L75.3388 47.6196L74.4519 48.5513L75.6566 49.8028L74.4519 51.0683L75.3388 52L76.5435 50.7345L77.7481 52L78.6218 51.0683Z" fill="#BF0900"/>
<path fill-rule="evenodd" clip-rule="evenodd" d="M88.0736 51.0683L86.8822 49.8028L88.0736 48.5513L87.1999 47.6196L85.9953 48.885L84.7906 47.6196L83.9037 48.5513L85.1083 49.8028L83.9037 51.0683L84.7906 52L85.9953 50.7345L87.1999 52L88.0736 51.0683Z" fill="#BF0900"/>
<path fill-rule="evenodd" clip-rule="evenodd" d="M97.5386 51.0683L96.334 49.8028L97.5386 48.5513L96.6517 47.6196L95.447 48.885L94.2424 47.6196L93.3555 48.5513L94.5601 49.8028L93.3555 51.0683L94.2424 52L95.447 50.7345L96.6517 52L97.5386 51.0683Z" fill="#BF0900"/>
<path fill-rule="evenodd" clip-rule="evenodd" d="M69.1699 10.4487L67.9785 9.19716L69.1699 7.93171L68.283 7L67.0916 8.26545L65.8869 7L65 7.93171L66.2046 9.19716L65 10.4487L65.8869 11.3804L67.0916 10.1289L68.283 11.3804L69.1699 10.4487Z" fill="#BF0900"/>
<path fill-rule="evenodd" clip-rule="evenodd" d="M78.6218 10.4487L77.4304 9.19716L78.6218 7.93171L77.7481 7L76.5435 8.26545L75.3388 7L74.4519 7.93171L75.6566 9.19716L74.4519 10.4487L75.3388 11.3804L76.5435 10.1289L77.7481 11.3804L78.6218 10.4487Z" fill="#BF0900"/>
<path fill-rule="evenodd" clip-rule="evenodd" d="M88.0736 10.4487L86.8822 9.19716L88.0736 7.93171L87.1999 7L85.9953 8.26545L84.7906 7L83.9037 7.93171L85.1083 9.19716L83.9037 10.4487L84.7906 11.3804L85.9953 10.1289L87.1999 11.3804L88.0736 10.4487Z" fill="#BF0900"/>
<path fill-rule="evenodd" clip-rule="evenodd" d="M97.5386 10.4487L96.334 9.19716L97.5386 7.93171L96.6517 7L95.447 8.26545L94.2424 7L93.3555 7.93171L94.5601 9.19716L93.3555 10.4487L94.2424 11.3804L95.447 10.1289L96.6517 11.3804L97.5386 10.4487Z" fill="#BF0900"/>
<path fill-rule="evenodd" clip-rule="evenodd" d="M69.1699 21.2676L67.9785 20.0161L69.1699 18.7506L68.283 17.8189L67.0916 19.0844L65.8869 17.8189L65 18.7506L66.2046 20.0161L65 21.2676L65.8869 22.1993L67.0916 20.9478L68.283 22.1993L69.1699 21.2676Z" fill="#BF0900"/>
<path fill-rule="evenodd" clip-rule="evenodd" d="M78.6218 21.2676L77.4304 20.0161L78.6218 18.7506L77.7481 17.8189L76.5435 19.0844L75.3388 17.8189L74.4519 18.7506L75.6566 20.0161L74.4519 21.2676L75.3388 22.1993L76.5435 20.9478L77.7481 22.1993L78.6218 21.2676Z" fill="#BF0900"/>
<path fill-rule="evenodd" clip-rule="evenodd" d="M88.0736 21.2676L86.8822 20.0161L88.0736 18.7506L87.1999 17.8189L85.9953 19.0844L84.7906 17.8189L83.9037 18.7506L85.1083 20.0161L83.9037 21.2676L84.7906 22.1993L85.9953 20.9478L87.1999 22.1993L88.0736 21.2676Z" fill="#BF0900"/>
<path fill-rule="evenodd" clip-rule="evenodd" d="M97.5386 21.2676L96.334 20.0161L97.5386 18.7506L96.6517 17.8189L95.447 19.0844L94.2424 17.8189L93.3555 18.7506L94.5601 20.0161L93.3555 21.2676L94.2424 22.1993L95.447 20.9478L96.6517 22.1993L97.5386 21.2676Z" fill="#BF0900"/>
<path fill-rule="evenodd" clip-rule="evenodd" d="M69.1699 31.2939L67.9785 30.0284L69.1699 28.7769L68.283 27.8452L67.0916 29.1106L65.8869 27.8452L65 28.7769L66.2046 30.0284L65 31.2939L65.8869 32.2256L67.0916 30.9601L68.283 32.2256L69.1699 31.2939Z" fill="#BF0900"/>
<path fill-rule="evenodd" clip-rule="evenodd" d="M78.6218 31.2939L77.4304 30.0284L78.6218 28.7769L77.7481 27.8452L76.5435 29.1106L75.3388 27.8452L74.4519 28.7769L75.6566 30.0284L74.4519 31.2939L75.3388 32.2256L76.5435 30.9601L77.7481 32.2256L78.6218 31.2939Z" fill="#BF0900"/>
<path fill-rule="evenodd" clip-rule="evenodd" d="M88.0736 31.2939L86.8822 30.0284L88.0736 28.7769L87.1999 27.8452L85.9953 29.1106L84.7906 27.8452L83.9037 28.7769L85.1083 30.0284L83.9037 31.2939L84.7906 32.2256L85.9953 30.9601L87.1999 32.2256L88.0736 31.2939Z" fill="#BF0900"/>
<path fill-rule="evenodd" clip-rule="evenodd" d="M97.5386 31.2939L96.334 30.0284L97.5386 28.7769L96.6517 27.8452L95.447 29.1106L94.2424 27.8452L93.3555 28.7769L94.5601 30.0284L93.3555 31.2939L94.2424 32.2256L95.447 30.9601L96.6517 32.2256L97.5386 31.2939Z" fill="#BF0900"/>
<path fill-rule="evenodd" clip-rule="evenodd" d="M69.1699 42.1128L67.9785 40.8474L69.1699 39.5958L68.283 38.6641L67.0916 39.9296L65.8869 38.6641L65 39.5958L66.2046 40.8474L65 42.1128L65.8869 43.0445L67.0916 41.7791L68.283 43.0445L69.1699 42.1128Z" fill="#BF0900"/>
<path fill-rule="evenodd" clip-rule="evenodd" d="M78.6218 42.1128L77.4304 40.8474L78.6218 39.5958L77.7481 38.6641L76.5435 39.9296L75.3388 38.6641L74.4519 39.5958L75.6566 40.8474L74.4519 42.1128L75.3388 43.0445L76.5435 41.7791L77.7481 43.0445L78.6218 42.1128Z" fill="#BF0900"/>
<path fill-rule="evenodd" clip-rule="evenodd" d="M88.0736 42.1128L86.8822 40.8474L88.0736 39.5958L87.1999 38.6641L85.9953 39.9296L84.7906 38.6641L83.9037 39.5958L85.1083 40.8474L83.9037 42.1128L84.7906 43.0445L85.9953 41.7791L87.1999 43.0445L88.0736 42.1128Z" fill="#BF0900"/>
<path fill-rule="evenodd" clip-rule="evenodd" d="M97.5386 42.1128L96.334 40.8474L97.5386 39.5958L96.6517 38.6641L95.447 39.9296L94.2424 38.6641L93.3555 39.5958L94.5601 40.8474L93.3555 42.1128L94.2424 43.0445L95.447 41.7791L96.6517 43.0445L97.5386 42.1128Z" fill="#BF0900"/>
<path fill-rule="evenodd" clip-rule="evenodd" d="M69.1699 51.0683L67.9785 49.8028L69.1699 48.5513L68.283 47.6196L67.0916 48.885L65.8869 47.6196L65 48.5513L66.2046 49.8028L65 51.0683L65.8869 52L67.0916 50.7345L68.283 52L69.1699 51.0683Z" fill="#BF0900"/>
<path fill-rule="evenodd" clip-rule="evenodd" d="M78.6218 51.0683L77.4304 49.8028L78.6218 48.5513L77.7481 47.6196L76.5435 48.885L75.3388 47.6196L74.4519 48.5513L75.6566 49.8028L74.4519 51.0683L75.3388 52L76.5435 50.7345L77.7481 52L78.6218 51.0683Z" fill="#BF0900"/>
<path fill-rule="evenodd" clip-rule="evenodd" d="M88.0736 51.0683L86.8822 49.8028L88.0736 48.5513L87.1999 47.6196L85.9953 48.885L84.7906 47.6196L83.9037 48.5513L85.1083 49.8028L83.9037 51.0683L84.7906 52L85.9953 50.7345L87.1999 52L88.0736 51.0683Z" fill="#BF0900"/>
<path fill-rule="evenodd" clip-rule="evenodd" d="M97.5386 51.0683L96.334 49.8028L97.5386 48.5513L96.6517 47.6196L95.447 48.885L94.2424 47.6196L93.3555 48.5513L94.5601 49.8028L93.3555 51.0683L94.2424 52L95.447 50.7345L96.6517 52L97.5386 51.0683Z" fill="#BF0900"/>
<path fill-rule="evenodd" clip-rule="evenodd" d="M106.448 10.4487L105.243 9.19716L106.448 7.93171L105.561 7L104.37 8.26545L103.165 7L102.278 7.93171L103.483 9.19716L102.278 10.4487L103.165 11.3804L104.37 10.1289L105.561 11.3804L106.448 10.4487Z" fill="#BF0900"/>
<path fill-rule="evenodd" clip-rule="evenodd" d="M115.899 10.4487L114.708 9.19716L115.899 7.93171L115.012 7L113.821 8.26545L112.616 7L111.729 7.93171L112.934 9.19716L111.729 10.4487L112.616 11.3804L113.821 10.1289L115.012 11.3804L115.899 10.4487Z" fill="#BF0900"/>
<path fill-rule="evenodd" clip-rule="evenodd" d="M125.351 10.4487L124.16 9.19716L125.351 7.93171L124.478 7L123.273 8.26545L122.068 7L121.181 7.93171L122.386 9.19716L121.181 10.4487L122.068 11.3804L123.273 10.1289L124.478 11.3804L125.351 10.4487Z" fill="#BF0900"/>
<path fill-rule="evenodd" clip-rule="evenodd" d="M134.803 10.4487L133.612 9.19716L134.803 7.93171L133.929 7L132.725 8.26545L131.52 7L130.633 7.93171L131.838 9.19716L130.633 10.4487L131.52 11.3804L132.725 10.1289L133.929 11.3804L134.803 10.4487Z" fill="#BF0900"/>
<path fill-rule="evenodd" clip-rule="evenodd" d="M106.448 21.2676L105.243 20.0161L106.448 18.7506L105.561 17.8189L104.369 19.0844L103.165 17.8189L102.278 18.7506L103.482 20.0161L102.278 21.2676L103.165 22.1993L104.369 20.9478L105.561 22.1993L106.448 21.2676Z" fill="#BF0900"/>
<path fill-rule="evenodd" clip-rule="evenodd" d="M115.899 21.2676L114.708 20.0161L115.899 18.7506L115.012 17.8189L113.821 19.0844L112.616 17.8189L111.729 18.7506L112.934 20.0161L111.729 21.2676L112.616 22.1993L113.821 20.9478L115.012 22.1993L115.899 21.2676Z" fill="#BF0900"/>
<path fill-rule="evenodd" clip-rule="evenodd" d="M125.351 21.2676L124.16 20.0161L125.351 18.7506L124.478 17.8189L123.273 19.0844L122.068 17.8189L121.181 18.7506L122.386 20.0161L121.181 21.2676L122.068 22.1993L123.273 20.9478L124.478 22.1993L125.351 21.2676Z" fill="#BF0900"/>
<path fill-rule="evenodd" clip-rule="evenodd" d="M134.803 21.2676L133.612 20.0161L134.803 18.7506L133.929 17.8189L132.725 19.0844L131.52 17.8189L130.633 18.7506L131.838 20.0161L130.633 21.2676L131.52 22.1993L132.725 20.9478L133.929 22.1993L134.803 21.2676Z" fill="#BF0900"/>
<path fill-rule="evenodd" clip-rule="evenodd" d="M106.448 31.2939L105.243 30.0284L106.448 28.7769L105.561 27.8452L104.369 29.1106L103.165 27.8452L102.278 28.7769L103.482 30.0284L102.278 31.2939L103.165 32.2256L104.369 30.9601L105.561 32.2256L106.448 31.2939Z" fill="#BF0900"/>
<path fill-rule="evenodd" clip-rule="evenodd" d="M115.899 31.2939L114.708 30.0284L115.899 28.7769L115.012 27.8452L113.821 29.1106L112.616 27.8452L111.729 28.7769L112.934 30.0284L111.729 31.2939L112.616 32.2256L113.821 30.9601L115.012 32.2256L115.899 31.2939Z" fill="#BF0900"/>
<path fill-rule="evenodd" clip-rule="evenodd" d="M125.351 31.2939L124.16 30.0284L125.351 28.7769L124.478 27.8452L123.273 29.1106L122.068 27.8452L121.181 28.7769L122.386 30.0284L121.181 31.2939L122.068 32.2256L123.273 30.9601L124.478 32.2256L125.351 31.2939Z" fill="#BF0900"/>
<path fill-rule="evenodd" clip-rule="evenodd" d="M134.803 31.2939L133.612 30.0284L134.803 28.7769L133.929 27.8452L132.725 29.1106L131.52 27.8452L130.633 28.7769L131.838 30.0284L130.633 31.2939L131.52 32.2256L132.725 30.9601L133.929 32.2256L134.803 31.2939Z" fill="#BF0900"/>
<path fill-rule="evenodd" clip-rule="evenodd" d="M106.448 42.1128L105.243 40.8474L106.448 39.5958L105.561 38.6641L104.369 39.9296L103.165 38.6641L102.278 39.5958L103.482 40.8474L102.278 42.1128L103.165 43.0445L104.369 41.7791L105.561 43.0445L106.448 42.1128Z" fill="#BF0900"/>
<path fill-rule="evenodd" clip-rule="evenodd" d="M115.899 42.1128L114.708 40.8474L115.899 39.5958L115.012 38.6641L113.821 39.9296L112.616 38.6641L111.729 39.5958L112.934 40.8474L111.729 42.1128L112.616 43.0445L113.821 41.7791L115.012 43.0445L115.899 42.1128Z" fill="#BF0900"/>
<path fill-rule="evenodd" clip-rule="evenodd" d="M125.351 42.1128L124.16 40.8474L125.351 39.5958L124.478 38.6641L123.273 39.9296L122.068 38.6641L121.181 39.5958L122.386 40.8474L121.181 42.1128L122.068 43.0445L123.273 41.7791L124.478 43.0445L125.351 42.1128Z" fill="#BF0900"/>
<path fill-rule="evenodd" clip-rule="evenodd" d="M134.803 42.1128L133.612 40.8474L134.803 39.5958L133.929 38.6641L132.725 39.9296L131.52 38.6641L130.633 39.5958L131.838 40.8474L130.633 42.1128L131.52 43.0445L132.725 41.7791L133.929 43.0445L134.803 42.1128Z" fill="#BF0900"/>
<path fill-rule="evenodd" clip-rule="evenodd" d="M106.448 51.0683L105.243 49.8028L106.448 48.5513L105.561 47.6196L104.369 48.885L103.165 47.6196L102.278 48.5513L103.482 49.8028L102.278 51.0683L103.165 52L104.369 50.7345L105.561 52L106.448 51.0683Z" fill="#BF0900"/>
<path fill-rule="evenodd" clip-rule="evenodd" d="M115.899 51.0683L114.708 49.8028L115.899 48.5513L115.012 47.6196L113.821 48.885L112.616 47.6196L111.729 48.5513L112.934 49.8028L111.729 51.0683L112.616 52L113.821 50.7345L115.012 52L115.899 51.0683Z" fill="#BF0900"/>
<path fill-rule="evenodd" clip-rule="evenodd" d="M125.351 51.0683L124.16 49.8028L125.351 48.5513L124.478 47.6196L123.273 48.885L122.068 47.6196L121.181 48.5513L122.386 49.8028L121.181 51.0683L122.068 52L123.273 50.7345L124.478 52L125.351 51.0683Z" fill="#BF0900"/>
<path fill-rule="evenodd" clip-rule="evenodd" d="M134.803 51.0683L133.612 49.8028L134.803 48.5513L133.929 47.6196L132.725 48.885L131.52 47.6196L130.633 48.5513L131.838 49.8028L130.633 51.0683L131.52 52L132.725 50.7345L133.929 52L134.803 51.0683Z" fill="#BF0900"/>
<path fill-rule="evenodd" clip-rule="evenodd" d="M106.448 10.4487L105.243 9.19716L106.448 7.93171L105.561 7L104.37 8.26545L103.165 7L102.278 7.93171L103.483 9.19716L102.278 10.4487L103.165 11.3804L104.37 10.1289L105.561 11.3804L106.448 10.4487Z" fill="#BF0900"/>
<path fill-rule="evenodd" clip-rule="evenodd" d="M115.899 10.4487L114.708 9.19716L115.899 7.93171L115.012 7L113.821 8.26545L112.616 7L111.729 7.93171L112.934 9.19716L111.729 10.4487L112.616 11.3804L113.821 10.1289L115.012 11.3804L115.899 10.4487Z" fill="#BF0900"/>
<path fill-rule="evenodd" clip-rule="evenodd" d="M125.351 10.4487L124.16 9.19716L125.351 7.93171L124.478 7L123.273 8.26545L122.068 7L121.181 7.93171L122.386 9.19716L121.181 10.4487L122.068 11.3804L123.273 10.1289L124.478 11.3804L125.351 10.4487Z" fill="#BF0900"/>
<path fill-rule="evenodd" clip-rule="evenodd" d="M134.803 10.4487L133.612 9.19716L134.803 7.93171L133.929 7L132.725 8.26545L131.52 7L130.633 7.93171L131.838 9.19716L130.633 10.4487L131.52 11.3804L132.725 10.1289L133.929 11.3804L134.803 10.4487Z" fill="#BF0900"/>
<path fill-rule="evenodd" clip-rule="evenodd" d="M106.448 21.2676L105.243 20.0161L106.448 18.7506L105.561 17.8189L104.369 19.0844L103.165 17.8189L102.278 18.7506L103.482 20.0161L102.278 21.2676L103.165 22.1993L104.369 20.9478L105.561 22.1993L106.448 21.2676Z" fill="#BF0900"/>
<path fill-rule="evenodd" clip-rule="evenodd" d="M115.899 21.2676L114.708 20.0161L115.899 18.7506L115.012 17.8189L113.821 19.0844L112.616 17.8189L111.729 18.7506L112.934 20.0161L111.729 21.2676L112.616 22.1993L113.821 20.9478L115.012 22.1993L115.899 21.2676Z" fill="#BF0900"/>
<path fill-rule="evenodd" clip-rule="evenodd" d="M125.351 21.2676L124.16 20.0161L125.351 18.7506L124.478 17.8189L123.273 19.0844L122.068 17.8189L121.181 18.7506L122.386 20.0161L121.181 21.2676L122.068 22.1993L123.273 20.9478L124.478 22.1993L125.351 21.2676Z" fill="#BF0900"/>
<path fill-rule="evenodd" clip-rule="evenodd" d="M134.803 21.2676L133.612 20.0161L134.803 18.7506L133.929 17.8189L132.725 19.0844L131.52 17.8189L130.633 18.7506L131.838 20.0161L130.633 21.2676L131.52 22.1993L132.725 20.9478L133.929 22.1993L134.803 21.2676Z" fill="#BF0900"/>
<path fill-rule="evenodd" clip-rule="evenodd" d="M106.448 31.2939L105.243 30.0284L106.448 28.7769L105.561 27.8452L104.369 29.1106L103.165 27.8452L102.278 28.7769L103.482 30.0284L102.278 31.2939L103.165 32.2256L104.369 30.9601L105.561 32.2256L106.448 31.2939Z" fill="#BF0900"/>
<path fill-rule="evenodd" clip-rule="evenodd" d="M115.899 31.2939L114.708 30.0284L115.899 28.7769L115.012 27.8452L113.821 29.1106L112.616 27.8452L111.729 28.7769L112.934 30.0284L111.729 31.2939L112.616 32.2256L113.821 30.9601L115.012 32.2256L115.899 31.2939Z" fill="#BF0900"/>
<path fill-rule="evenodd" clip-rule="evenodd" d="M125.351 31.2939L124.16 30.0284L125.351 28.7769L124.478 27.8452L123.273 29.1106L122.068 27.8452L121.181 28.7769L122.386 30.0284L121.181 31.2939L122.068 32.2256L123.273 30.9601L124.478 32.2256L125.351 31.2939Z" fill="#BF0900"/>
<path fill-rule="evenodd" clip-rule="evenodd" d="M134.803 31.2939L133.612 30.0284L134.803 28.7769L133.929 27.8452L132.725 29.1106L131.52 27.8452L130.633 28.7769L131.838 30.0284L130.633 31.2939L131.52 32.2256L132.725 30.9601L133.929 32.2256L134.803 31.2939Z" fill="#BF0900"/>
<path fill-rule="evenodd" clip-rule="evenodd" d="M106.448 42.1128L105.243 40.8474L106.448 39.5958L105.561 38.6641L104.369 39.9296L103.165 38.6641L102.278 39.5958L103.482 40.8474L102.278 42.1128L103.165 43.0445L104.369 41.7791L105.561 43.0445L106.448 42.1128Z" fill="#BF0900"/>
<path fill-rule="evenodd" clip-rule="evenodd" d="M115.899 42.1128L114.708 40.8474L115.899 39.5958L115.012 38.6641L113.821 39.9296L112.616 38.6641L111.729 39.5958L112.934 40.8474L111.729 42.1128L112.616 43.0445L113.821 41.7791L115.012 43.0445L115.899 42.1128Z" fill="#BF0900"/>
<path fill-rule="evenodd" clip-rule="evenodd" d="M125.351 42.1128L124.16 40.8474L125.351 39.5958L124.478 38.6641L123.273 39.9296L122.068 38.6641L121.181 39.5958L122.386 40.8474L121.181 42.1128L122.068 43.0445L123.273 41.7791L124.478 43.0445L125.351 42.1128Z" fill="#BF0900"/>
<path fill-rule="evenodd" clip-rule="evenodd" d="M134.803 42.1128L133.612 40.8474L134.803 39.5958L133.929 38.6641L132.725 39.9296L131.52 38.6641L130.633 39.5958L131.838 40.8474L130.633 42.1128L131.52 43.0445L132.725 41.7791L133.929 43.0445L134.803 42.1128Z" fill="#BF0900"/>
<path fill-rule="evenodd" clip-rule="evenodd" d="M106.448 51.0683L105.243 49.8028L106.448 48.5513L105.561 47.6196L104.369 48.885L103.165 47.6196L102.278 48.5513L103.482 49.8028L102.278 51.0683L103.165 52L104.369 50.7345L105.561 52L106.448 51.0683Z" fill="#BF0900"/>
<path fill-rule="evenodd" clip-rule="evenodd" d="M115.899 51.0683L114.708 49.8028L115.899 48.5513L115.012 47.6196L113.821 48.885L112.616 47.6196L111.729 48.5513L112.934 49.8028L111.729 51.0683L112.616 52L113.821 50.7345L115.012 52L115.899 51.0683Z" fill="#BF0900"/>
<path fill-rule="evenodd" clip-rule="evenodd" d="M125.351 51.0683L124.16 49.8028L125.351 48.5513L124.478 47.6196L123.273 48.885L122.068 47.6196L121.181 48.5513L122.386 49.8028L121.181 51.0683L122.068 52L123.273 50.7345L124.478 52L125.351 51.0683Z" fill="#BF0900"/>
<path fill-rule="evenodd" clip-rule="evenodd" d="M134.803 51.0683L133.612 49.8028L134.803 48.5513L133.929 47.6196L132.725 48.885L131.52 47.6196L130.633 48.5513L131.838 49.8028L130.633 51.0683L131.52 52L132.725 50.7345L133.929 52L134.803 51.0683Z" fill="#BF0900"/>
<path fill-rule="evenodd" clip-rule="evenodd" d="M1756.02 300.15L1754.58 298.644L1756.02 297.121L1754.95 296L1753.52 297.523L1752.07 296L1751 297.121L1752.45 298.644L1751 300.15L1752.07 301.271L1753.52 299.765L1754.95 301.271L1756.02 300.15Z" fill="#BF0900"/>
<path fill-rule="evenodd" clip-rule="evenodd" d="M1767.39 300.15L1765.96 298.644L1767.39 297.121L1766.34 296L1764.89 297.523L1763.44 296L1762.37 297.121L1763.82 298.644L1762.37 300.15L1763.44 301.271L1764.89 299.765L1766.34 301.271L1767.39 300.15Z" fill="#BF0900"/>
<path fill-rule="evenodd" clip-rule="evenodd" d="M1778.77 300.15L1777.33 298.644L1778.77 297.121L1777.72 296L1776.27 297.523L1774.82 296L1773.75 297.121L1775.2 298.644L1773.75 300.15L1774.82 301.271L1776.27 299.765L1777.72 301.271L1778.77 300.15Z" fill="#BF0900"/>
<path fill-rule="evenodd" clip-rule="evenodd" d="M1790.16 300.15L1788.71 298.644L1790.16 297.121L1789.09 296L1787.64 297.523L1786.19 296L1785.12 297.121L1786.57 298.644L1785.12 300.15L1786.19 301.271L1787.64 299.765L1789.09 301.271L1790.16 300.15Z" fill="#BF0900"/>
<path fill-rule="evenodd" clip-rule="evenodd" d="M1756.02 313.17L1754.58 311.663L1756.02 310.141L1754.95 309.019L1753.52 310.542L1752.07 309.019L1751 310.141L1752.45 311.663L1751 313.17L1752.07 314.291L1753.52 312.785L1754.95 314.291L1756.02 313.17Z" fill="#BF0900"/>
<path fill-rule="evenodd" clip-rule="evenodd" d="M1767.39 313.17L1765.96 311.663L1767.39 310.141L1766.34 309.019L1764.89 310.542L1763.44 309.019L1762.37 310.141L1763.82 311.663L1762.37 313.17L1763.44 314.291L1764.89 312.785L1766.34 314.291L1767.39 313.17Z" fill="#BF0900"/>
<path fill-rule="evenodd" clip-rule="evenodd" d="M1778.77 313.17L1777.33 311.663L1778.77 310.141L1777.72 309.019L1776.27 310.542L1774.82 309.019L1773.75 310.141L1775.2 311.663L1773.75 313.17L1774.82 314.291L1776.27 312.785L1777.72 314.291L1778.77 313.17Z" fill="#BF0900"/>
<path fill-rule="evenodd" clip-rule="evenodd" d="M1790.16 313.17L1788.71 311.663L1790.16 310.141L1789.09 309.019L1787.64 310.542L1786.19 309.019L1785.12 310.141L1786.57 311.663L1785.12 313.17L1786.19 314.291L1787.64 312.785L1789.09 314.291L1790.16 313.17Z" fill="#BF0900"/>
<path fill-rule="evenodd" clip-rule="evenodd" d="M1756.02 325.235L1754.58 323.712L1756.02 322.206L1754.95 321.085L1753.52 322.608L1752.07 321.085L1751 322.206L1752.45 323.712L1751 325.235L1752.07 326.356L1753.52 324.833L1754.95 326.356L1756.02 325.235Z" fill="#BF0900"/>
<path fill-rule="evenodd" clip-rule="evenodd" d="M1767.39 325.235L1765.96 323.712L1767.39 322.206L1766.34 321.085L1764.89 322.608L1763.44 321.085L1762.37 322.206L1763.82 323.712L1762.37 325.235L1763.44 326.356L1764.89 324.833L1766.34 326.356L1767.39 325.235Z" fill="#BF0900"/>
<path fill-rule="evenodd" clip-rule="evenodd" d="M1778.77 325.235L1777.33 323.712L1778.77 322.206L1777.72 321.085L1776.27 322.608L1774.82 321.085L1773.75 322.206L1775.2 323.712L1773.75 325.235L1774.82 326.356L1776.27 324.833L1777.72 326.356L1778.77 325.235Z" fill="#BF0900"/>
<path fill-rule="evenodd" clip-rule="evenodd" d="M1790.16 325.235L1788.71 323.712L1790.16 322.206L1789.09 321.085L1787.64 322.608L1786.19 321.085L1785.12 322.206L1786.57 323.712L1785.12 325.235L1786.19 326.356L1787.64 324.833L1789.09 326.356L1790.16 325.235Z" fill="#BF0900"/>
<path fill-rule="evenodd" clip-rule="evenodd" d="M1756.02 338.254L1754.58 336.732L1756.02 335.225L1754.95 334.104L1753.52 335.627L1752.07 334.104L1751 335.225L1752.45 336.732L1751 338.254L1752.07 339.376L1753.52 337.853L1754.95 339.376L1756.02 338.254Z" fill="#BF0900"/>
<path fill-rule="evenodd" clip-rule="evenodd" d="M1767.39 338.254L1765.96 336.732L1767.39 335.225L1766.34 334.104L1764.89 335.627L1763.44 334.104L1762.37 335.225L1763.82 336.732L1762.37 338.254L1763.44 339.376L1764.89 337.853L1766.34 339.376L1767.39 338.254Z" fill="#BF0900"/>
<path fill-rule="evenodd" clip-rule="evenodd" d="M1778.77 338.254L1777.33 336.732L1778.77 335.225L1777.72 334.104L1776.27 335.627L1774.82 334.104L1773.75 335.225L1775.2 336.732L1773.75 338.254L1774.82 339.376L1776.27 337.853L1777.72 339.376L1778.77 338.254Z" fill="#BF0900"/>
<path fill-rule="evenodd" clip-rule="evenodd" d="M1790.16 338.254L1788.71 336.732L1790.16 335.225L1789.09 334.104L1787.64 335.627L1786.19 334.104L1785.12 335.225L1786.57 336.732L1785.12 338.254L1786.19 339.376L1787.64 337.853L1789.09 339.376L1790.16 338.254Z" fill="#BF0900"/>
<path fill-rule="evenodd" clip-rule="evenodd" d="M1756.02 349.031L1754.58 347.508L1756.02 346.002L1754.95 344.881L1753.52 346.404L1752.07 344.881L1751 346.002L1752.45 347.508L1751 349.031L1752.07 350.152L1753.52 348.63L1754.95 350.152L1756.02 349.031Z" fill="#BF0900"/>
<path fill-rule="evenodd" clip-rule="evenodd" d="M1767.39 349.031L1765.96 347.508L1767.39 346.002L1766.34 344.881L1764.89 346.404L1763.44 344.881L1762.37 346.002L1763.82 347.508L1762.37 349.031L1763.44 350.152L1764.89 348.63L1766.34 350.152L1767.39 349.031Z" fill="#BF0900"/>
<path fill-rule="evenodd" clip-rule="evenodd" d="M1778.77 349.031L1777.33 347.508L1778.77 346.002L1777.72 344.881L1776.27 346.404L1774.82 344.881L1773.75 346.002L1775.2 347.508L1773.75 349.031L1774.82 350.152L1776.27 348.63L1777.72 350.152L1778.77 349.031Z" fill="#BF0900"/>
<path fill-rule="evenodd" clip-rule="evenodd" d="M1790.16 349.031L1788.71 347.508L1790.16 346.002L1789.09 344.881L1787.64 346.404L1786.19 344.881L1785.12 346.002L1786.57 347.508L1785.12 349.031L1786.19 350.152L1787.64 348.63L1789.09 350.152L1790.16 349.031Z" fill="#BF0900"/>
<path fill-rule="evenodd" clip-rule="evenodd" d="M1756.02 300.15L1754.58 298.644L1756.02 297.121L1754.95 296L1753.52 297.523L1752.07 296L1751 297.121L1752.45 298.644L1751 300.15L1752.07 301.271L1753.52 299.765L1754.95 301.271L1756.02 300.15Z" fill="#BF0900"/>
<path fill-rule="evenodd" clip-rule="evenodd" d="M1767.39 300.15L1765.96 298.644L1767.39 297.121L1766.34 296L1764.89 297.523L1763.44 296L1762.37 297.121L1763.82 298.644L1762.37 300.15L1763.44 301.271L1764.89 299.765L1766.34 301.271L1767.39 300.15Z" fill="#BF0900"/>
<path fill-rule="evenodd" clip-rule="evenodd" d="M1778.77 300.15L1777.33 298.644L1778.77 297.121L1777.72 296L1776.27 297.523L1774.82 296L1773.75 297.121L1775.2 298.644L1773.75 300.15L1774.82 301.271L1776.27 299.765L1777.72 301.271L1778.77 300.15Z" fill="#BF0900"/>
<path fill-rule="evenodd" clip-rule="evenodd" d="M1790.16 300.15L1788.71 298.644L1790.16 297.121L1789.09 296L1787.64 297.523L1786.19 296L1785.12 297.121L1786.57 298.644L1785.12 300.15L1786.19 301.271L1787.64 299.765L1789.09 301.271L1790.16 300.15Z" fill="#BF0900"/>
<path fill-rule="evenodd" clip-rule="evenodd" d="M1756.02 313.17L1754.58 311.663L1756.02 310.141L1754.95 309.019L1753.52 310.542L1752.07 309.019L1751 310.141L1752.45 311.663L1751 313.17L1752.07 314.291L1753.52 312.785L1754.95 314.291L1756.02 313.17Z" fill="#BF0900"/>
<path fill-rule="evenodd" clip-rule="evenodd" d="M1767.39 313.17L1765.96 311.663L1767.39 310.141L1766.34 309.019L1764.89 310.542L1763.44 309.019L1762.37 310.141L1763.82 311.663L1762.37 313.17L1763.44 314.291L1764.89 312.785L1766.34 314.291L1767.39 313.17Z" fill="#BF0900"/>
<path fill-rule="evenodd" clip-rule="evenodd" d="M1778.77 313.17L1777.33 311.663L1778.77 310.141L1777.72 309.019L1776.27 310.542L1774.82 309.019L1773.75 310.141L1775.2 311.663L1773.75 313.17L1774.82 314.291L1776.27 312.785L1777.72 314.291L1778.77 313.17Z" fill="#BF0900"/>
<path fill-rule="evenodd" clip-rule="evenodd" d="M1790.16 313.17L1788.71 311.663L1790.16 310.141L1789.09 309.019L1787.64 310.542L1786.19 309.019L1785.12 310.141L1786.57 311.663L1785.12 313.17L1786.19 314.291L1787.64 312.785L1789.09 314.291L1790.16 313.17Z" fill="#BF0900"/>
<path fill-rule="evenodd" clip-rule="evenodd" d="M1756.02 325.235L1754.58 323.712L1756.02 322.206L1754.95 321.085L1753.52 322.608L1752.07 321.085L1751 322.206L1752.45 323.712L1751 325.235L1752.07 326.356L1753.52 324.833L1754.95 326.356L1756.02 325.235Z" fill="#BF0900"/>
<path fill-rule="evenodd" clip-rule="evenodd" d="M1767.39 325.235L1765.96 323.712L1767.39 322.206L1766.34 321.085L1764.89 322.608L1763.44 321.085L1762.37 322.206L1763.82 323.712L1762.37 325.235L1763.44 326.356L1764.89 324.833L1766.34 326.356L1767.39 325.235Z" fill="#BF0900"/>
<path fill-rule="evenodd" clip-rule="evenodd" d="M1778.77 325.235L1777.33 323.712L1778.77 322.206L1777.72 321.085L1776.27 322.608L1774.82 321.085L1773.75 322.206L1775.2 323.712L1773.75 325.235L1774.82 326.356L1776.27 324.833L1777.72 326.356L1778.77 325.235Z" fill="#BF0900"/>
<path fill-rule="evenodd" clip-rule="evenodd" d="M1790.16 325.235L1788.71 323.712L1790.16 322.206L1789.09 321.085L1787.64 322.608L1786.19 321.085L1785.12 322.206L1786.57 323.712L1785.12 325.235L1786.19 326.356L1787.64 324.833L1789.09 326.356L1790.16 325.235Z" fill="#BF0900"/>
<path fill-rule="evenodd" clip-rule="evenodd" d="M1756.02 338.254L1754.58 336.732L1756.02 335.225L1754.95 334.104L1753.52 335.627L1752.07 334.104L1751 335.225L1752.45 336.732L1751 338.254L1752.07 339.376L1753.52 337.853L1754.95 339.376L1756.02 338.254Z" fill="#BF0900"/>
<path fill-rule="evenodd" clip-rule="evenodd" d="M1767.39 338.254L1765.96 336.732L1767.39 335.225L1766.34 334.104L1764.89 335.627L1763.44 334.104L1762.37 335.225L1763.82 336.732L1762.37 338.254L1763.44 339.376L1764.89 337.853L1766.34 339.376L1767.39 338.254Z" fill="#BF0900"/>
<path fill-rule="evenodd" clip-rule="evenodd" d="M1778.77 338.254L1777.33 336.732L1778.77 335.225L1777.72 334.104L1776.27 335.627L1774.82 334.104L1773.75 335.225L1775.2 336.732L1773.75 338.254L1774.82 339.376L1776.27 337.853L1777.72 339.376L1778.77 338.254Z" fill="#BF0900"/>
<path fill-rule="evenodd" clip-rule="evenodd" d="M1790.16 338.254L1788.71 336.732L1790.16 335.225L1789.09 334.104L1787.64 335.627L1786.19 334.104L1785.12 335.225L1786.57 336.732L1785.12 338.254L1786.19 339.376L1787.64 337.853L1789.09 339.376L1790.16 338.254Z" fill="#BF0900"/>
<path fill-rule="evenodd" clip-rule="evenodd" d="M1756.02 349.031L1754.58 347.508L1756.02 346.002L1754.95 344.881L1753.52 346.404L1752.07 344.881L1751 346.002L1752.45 347.508L1751 349.031L1752.07 350.152L1753.52 348.63L1754.95 350.152L1756.02 349.031Z" fill="#BF0900"/>
<path fill-rule="evenodd" clip-rule="evenodd" d="M1767.39 349.031L1765.96 347.508L1767.39 346.002L1766.34 344.881L1764.89 346.404L1763.44 344.881L1762.37 346.002L1763.82 347.508L1762.37 349.031L1763.44 350.152L1764.89 348.63L1766.34 350.152L1767.39 349.031Z" fill="#BF0900"/>
<path fill-rule="evenodd" clip-rule="evenodd" d="M1778.77 349.031L1777.33 347.508L1778.77 346.002L1777.72 344.881L1776.27 346.404L1774.82 344.881L1773.75 346.002L1775.2 347.508L1773.75 349.031L1774.82 350.152L1776.27 348.63L1777.72 350.152L1778.77 349.031Z" fill="#BF0900"/>
<path fill-rule="evenodd" clip-rule="evenodd" d="M1790.16 349.031L1788.71 347.508L1790.16 346.002L1789.09 344.881L1787.64 346.404L1786.19 344.881L1785.12 346.002L1786.57 347.508L1785.12 349.031L1786.19 350.152L1787.64 348.63L1789.09 350.152L1790.16 349.031Z" fill="#BF0900"/>
<path fill-rule="evenodd" clip-rule="evenodd" d="M1800.88 300.15L1799.43 298.644L1800.88 297.121L1799.81 296L1798.38 297.523L1796.93 296L1795.86 297.121L1797.31 298.644L1795.86 300.15L1796.93 301.271L1798.38 299.765L1799.81 301.271L1800.88 300.15Z" fill="#BF0900"/>
<path fill-rule="evenodd" clip-rule="evenodd" d="M1812.25 300.15L1810.82 298.644L1812.25 297.121L1811.18 296L1809.75 297.523L1808.3 296L1807.23 297.121L1808.68 298.644L1807.23 300.15L1808.3 301.271L1809.75 299.765L1811.18 301.271L1812.25 300.15Z" fill="#BF0900"/>
<path fill-rule="evenodd" clip-rule="evenodd" d="M1823.63 300.15L1822.19 298.644L1823.63 297.121L1822.57 296L1821.12 297.523L1819.67 296L1818.61 297.121L1820.06 298.644L1818.61 300.15L1819.67 301.271L1821.12 299.765L1822.57 301.271L1823.63 300.15Z" fill="#BF0900"/>
<path fill-rule="evenodd" clip-rule="evenodd" d="M1835 300.15L1833.57 298.644L1835 297.121L1833.95 296L1832.5 297.523L1831.05 296L1829.98 297.121L1831.43 298.644L1829.98 300.15L1831.05 301.271L1832.5 299.765L1833.95 301.271L1835 300.15Z" fill="#BF0900"/>
<path fill-rule="evenodd" clip-rule="evenodd" d="M1800.88 313.17L1799.43 311.663L1800.88 310.141L1799.81 309.019L1798.38 310.542L1796.93 309.019L1795.86 310.141L1797.31 311.663L1795.86 313.17L1796.93 314.291L1798.38 312.785L1799.81 314.291L1800.88 313.17Z" fill="#BF0900"/>
<path fill-rule="evenodd" clip-rule="evenodd" d="M1812.25 313.17L1810.82 311.663L1812.25 310.141L1811.18 309.019L1809.75 310.542L1808.3 309.019L1807.23 310.141L1808.68 311.663L1807.23 313.17L1808.3 314.291L1809.75 312.785L1811.18 314.291L1812.25 313.17Z" fill="#BF0900"/>
<path fill-rule="evenodd" clip-rule="evenodd" d="M1823.63 313.17L1822.19 311.663L1823.63 310.141L1822.57 309.019L1821.12 310.542L1819.67 309.019L1818.61 310.141L1820.06 311.663L1818.61 313.17L1819.67 314.291L1821.12 312.785L1822.57 314.291L1823.63 313.17Z" fill="#BF0900"/>
<path fill-rule="evenodd" clip-rule="evenodd" d="M1835 313.17L1833.57 311.663L1835 310.141L1833.95 309.019L1832.5 310.542L1831.05 309.019L1829.98 310.141L1831.43 311.663L1829.98 313.17L1831.05 314.291L1832.5 312.785L1833.95 314.291L1835 313.17Z" fill="#BF0900"/>
<path fill-rule="evenodd" clip-rule="evenodd" d="M1800.88 325.235L1799.43 323.712L1800.88 322.206L1799.81 321.085L1798.38 322.608L1796.93 321.085L1795.86 322.206L1797.31 323.712L1795.86 325.235L1796.93 326.356L1798.38 324.833L1799.81 326.356L1800.88 325.235Z" fill="#BF0900"/>
<path fill-rule="evenodd" clip-rule="evenodd" d="M1812.25 325.235L1810.82 323.712L1812.25 322.206L1811.18 321.085L1809.75 322.608L1808.3 321.085L1807.23 322.206L1808.68 323.712L1807.23 325.235L1808.3 326.356L1809.75 324.833L1811.18 326.356L1812.25 325.235Z" fill="#BF0900"/>
<path fill-rule="evenodd" clip-rule="evenodd" d="M1823.63 325.235L1822.19 323.712L1823.63 322.206L1822.57 321.085L1821.12 322.608L1819.67 321.085L1818.61 322.206L1820.06 323.712L1818.61 325.235L1819.67 326.356L1821.12 324.833L1822.57 326.356L1823.63 325.235Z" fill="#BF0900"/>
<path fill-rule="evenodd" clip-rule="evenodd" d="M1835 325.235L1833.57 323.712L1835 322.206L1833.95 321.085L1832.5 322.608L1831.05 321.085L1829.98 322.206L1831.43 323.712L1829.98 325.235L1831.05 326.356L1832.5 324.833L1833.95 326.356L1835 325.235Z" fill="#BF0900"/>
<path fill-rule="evenodd" clip-rule="evenodd" d="M1800.88 338.254L1799.43 336.732L1800.88 335.225L1799.81 334.104L1798.38 335.627L1796.93 334.104L1795.86 335.225L1797.31 336.732L1795.86 338.254L1796.93 339.376L1798.38 337.853L1799.81 339.376L1800.88 338.254Z" fill="#BF0900"/>
<path fill-rule="evenodd" clip-rule="evenodd" d="M1812.25 338.254L1810.82 336.732L1812.25 335.225L1811.18 334.104L1809.75 335.627L1808.3 334.104L1807.23 335.225L1808.68 336.732L1807.23 338.254L1808.3 339.376L1809.75 337.853L1811.18 339.376L1812.25 338.254Z" fill="#BF0900"/>
<path fill-rule="evenodd" clip-rule="evenodd" d="M1823.63 338.254L1822.19 336.732L1823.63 335.225L1822.57 334.104L1821.12 335.627L1819.67 334.104L1818.61 335.225L1820.06 336.732L1818.61 338.254L1819.67 339.376L1821.12 337.853L1822.57 339.376L1823.63 338.254Z" fill="#BF0900"/>
<path fill-rule="evenodd" clip-rule="evenodd" d="M1835 338.254L1833.57 336.732L1835 335.225L1833.95 334.104L1832.5 335.627L1831.05 334.104L1829.98 335.225L1831.43 336.732L1829.98 338.254L1831.05 339.376L1832.5 337.853L1833.95 339.376L1835 338.254Z" fill="#BF0900"/>
<path fill-rule="evenodd" clip-rule="evenodd" d="M1800.88 349.031L1799.43 347.508L1800.88 346.002L1799.81 344.881L1798.38 346.404L1796.93 344.881L1795.86 346.002L1797.31 347.508L1795.86 349.031L1796.93 350.152L1798.38 348.63L1799.81 350.152L1800.88 349.031Z" fill="#BF0900"/>
<path fill-rule="evenodd" clip-rule="evenodd" d="M1812.25 349.031L1810.82 347.508L1812.25 346.002L1811.18 344.881L1809.75 346.404L1808.3 344.881L1807.23 346.002L1808.68 347.508L1807.23 349.031L1808.3 350.152L1809.75 348.63L1811.18 350.152L1812.25 349.031Z" fill="#BF0900"/>
<path fill-rule="evenodd" clip-rule="evenodd" d="M1823.63 349.031L1822.19 347.508L1823.63 346.002L1822.57 344.881L1821.12 346.404L1819.67 344.881L1818.61 346.002L1820.06 347.508L1818.61 349.031L1819.67 350.152L1821.12 348.63L1822.57 350.152L1823.63 349.031Z" fill="#BF0900"/>
<path fill-rule="evenodd" clip-rule="evenodd" d="M1835 349.031L1833.57 347.508L1835 346.002L1833.95 344.881L1832.5 346.404L1831.05 344.881L1829.98 346.002L1831.43 347.508L1829.98 349.031L1831.05 350.152L1832.5 348.63L1833.95 350.152L1835 349.031Z" fill="#BF0900"/>
<path fill-rule="evenodd" clip-rule="evenodd" d="M1800.88 300.15L1799.43 298.644L1800.88 297.121L1799.81 296L1798.38 297.523L1796.93 296L1795.86 297.121L1797.31 298.644L1795.86 300.15L1796.93 301.271L1798.38 299.765L1799.81 301.271L1800.88 300.15Z" fill="#BF0900"/>
<path fill-rule="evenodd" clip-rule="evenodd" d="M1812.25 300.15L1810.82 298.644L1812.25 297.121L1811.18 296L1809.75 297.523L1808.3 296L1807.23 297.121L1808.68 298.644L1807.23 300.15L1808.3 301.271L1809.75 299.765L1811.18 301.271L1812.25 300.15Z" fill="#BF0900"/>
<path fill-rule="evenodd" clip-rule="evenodd" d="M1823.63 300.15L1822.19 298.644L1823.63 297.121L1822.57 296L1821.12 297.523L1819.67 296L1818.61 297.121L1820.06 298.644L1818.61 300.15L1819.67 301.271L1821.12 299.765L1822.57 301.271L1823.63 300.15Z" fill="#BF0900"/>
<path fill-rule="evenodd" clip-rule="evenodd" d="M1835 300.15L1833.57 298.644L1835 297.121L1833.95 296L1832.5 297.523L1831.05 296L1829.98 297.121L1831.43 298.644L1829.98 300.15L1831.05 301.271L1832.5 299.765L1833.95 301.271L1835 300.15Z" fill="#BF0900"/>
<path fill-rule="evenodd" clip-rule="evenodd" d="M1800.88 313.17L1799.43 311.663L1800.88 310.141L1799.81 309.019L1798.38 310.542L1796.93 309.019L1795.86 310.141L1797.31 311.663L1795.86 313.17L1796.93 314.291L1798.38 312.785L1799.81 314.291L1800.88 313.17Z" fill="#BF0900"/>
<path fill-rule="evenodd" clip-rule="evenodd" d="M1812.25 313.17L1810.82 311.663L1812.25 310.141L1811.18 309.019L1809.75 310.542L1808.3 309.019L1807.23 310.141L1808.68 311.663L1807.23 313.17L1808.3 314.291L1809.75 312.785L1811.18 314.291L1812.25 313.17Z" fill="#BF0900"/>
<path fill-rule="evenodd" clip-rule="evenodd" d="M1823.63 313.17L1822.19 311.663L1823.63 310.141L1822.57 309.019L1821.12 310.542L1819.67 309.019L1818.61 310.141L1820.06 311.663L1818.61 313.17L1819.67 314.291L1821.12 312.785L1822.57 314.291L1823.63 313.17Z" fill="#BF0900"/>
<path fill-rule="evenodd" clip-rule="evenodd" d="M1835 313.17L1833.57 311.663L1835 310.141L1833.95 309.019L1832.5 310.542L1831.05 309.019L1829.98 310.141L1831.43 311.663L1829.98 313.17L1831.05 314.291L1832.5 312.785L1833.95 314.291L1835 313.17Z" fill="#BF0900"/>
<path fill-rule="evenodd" clip-rule="evenodd" d="M1800.88 325.235L1799.43 323.712L1800.88 322.206L1799.81 321.085L1798.38 322.608L1796.93 321.085L1795.86 322.206L1797.31 323.712L1795.86 325.235L1796.93 326.356L1798.38 324.833L1799.81 326.356L1800.88 325.235Z" fill="#BF0900"/>
<path fill-rule="evenodd" clip-rule="evenodd" d="M1812.25 325.235L1810.82 323.712L1812.25 322.206L1811.18 321.085L1809.75 322.608L1808.3 321.085L1807.23 322.206L1808.68 323.712L1807.23 325.235L1808.3 326.356L1809.75 324.833L1811.18 326.356L1812.25 325.235Z" fill="#BF0900"/>
<path fill-rule="evenodd" clip-rule="evenodd" d="M1823.63 325.235L1822.19 323.712L1823.63 322.206L1822.57 321.085L1821.12 322.608L1819.67 321.085L1818.61 322.206L1820.06 323.712L1818.61 325.235L1819.67 326.356L1821.12 324.833L1822.57 326.356L1823.63 325.235Z" fill="#BF0900"/>
<path fill-rule="evenodd" clip-rule="evenodd" d="M1835 325.235L1833.57 323.712L1835 322.206L1833.95 321.085L1832.5 322.608L1831.05 321.085L1829.98 322.206L1831.43 323.712L1829.98 325.235L1831.05 326.356L1832.5 324.833L1833.95 326.356L1835 325.235Z" fill="#BF0900"/>
<path fill-rule="evenodd" clip-rule="evenodd" d="M1800.88 338.254L1799.43 336.732L1800.88 335.225L1799.81 334.104L1798.38 335.627L1796.93 334.104L1795.86 335.225L1797.31 336.732L1795.86 338.254L1796.93 339.376L1798.38 337.853L1799.81 339.376L1800.88 338.254Z" fill="#BF0900"/>
<path fill-rule="evenodd" clip-rule="evenodd" d="M1812.25 338.254L1810.82 336.732L1812.25 335.225L1811.18 334.104L1809.75 335.627L1808.3 334.104L1807.23 335.225L1808.68 336.732L1807.23 338.254L1808.3 339.376L1809.75 337.853L1811.18 339.376L1812.25 338.254Z" fill="#BF0900"/>
<path fill-rule="evenodd" clip-rule="evenodd" d="M1823.63 338.254L1822.19 336.732L1823.63 335.225L1822.57 334.104L1821.12 335.627L1819.67 334.104L1818.61 335.225L1820.06 336.732L1818.61 338.254L1819.67 339.376L1821.12 337.853L1822.57 339.376L1823.63 338.254Z" fill="#BF0900"/>
<path fill-rule="evenodd" clip-rule="evenodd" d="M1835 338.254L1833.57 336.732L1835 335.225L1833.95 334.104L1832.5 335.627L1831.05 334.104L1829.98 335.225L1831.43 336.732L1829.98 338.254L1831.05 339.376L1832.5 337.853L1833.95 339.376L1835 338.254Z" fill="#BF0900"/>
<path fill-rule="evenodd" clip-rule="evenodd" d="M1800.88 349.031L1799.43 347.508L1800.88 346.002L1799.81 344.881L1798.38 346.404L1796.93 344.881L1795.86 346.002L1797.31 347.508L1795.86 349.031L1796.93 350.152L1798.38 348.63L1799.81 350.152L1800.88 349.031Z" fill="#BF0900"/>
<path fill-rule="evenodd" clip-rule="evenodd" d="M1812.25 349.031L1810.82 347.508L1812.25 346.002L1811.18 344.881L1809.75 346.404L1808.3 344.881L1807.23 346.002L1808.68 347.508L1807.23 349.031L1808.3 350.152L1809.75 348.63L1811.18 350.152L1812.25 349.031Z" fill="#BF0900"/>
<path fill-rule="evenodd" clip-rule="evenodd" d="M1823.63 349.031L1822.19 347.508L1823.63 346.002L1822.57 344.881L1821.12 346.404L1819.67 344.881L1818.61 346.002L1820.06 347.508L1818.61 349.031L1819.67 350.152L1821.12 348.63L1822.57 350.152L1823.63 349.031Z" fill="#BF0900"/>
<path fill-rule="evenodd" clip-rule="evenodd" d="M1835 349.031L1833.57 347.508L1835 346.002L1833.95 344.881L1832.5 346.404L1831.05 344.881L1829.98 346.002L1831.43 347.508L1829.98 349.031L1831.05 350.152L1832.5 348.63L1833.95 350.152L1835 349.031Z" fill="#BF0900"/>
<path d="M1810 533C1789.09 533 1772 549.938 1772 571C1772 591.915 1788.94 609 1810 609C1830.91 609 1848 592.062 1848 571C1848 549.938 1831.06 533 1810 533Z" fill="url(#paint0_linear)"/>
<path d="M114.5 149C101.566 149 91 159.475 91 172.5C91 185.434 101.475 196 114.5 196C127.434 196 138 185.525 138 172.5C138 159.475 127.525 149 114.5 149Z" fill="url(#paint1_linear)"/>
<defs>
<linearGradient id="paint0_linear" x1="1772.93" y1="570.903" x2="1845.95" y2="570.903" gradientUnits="userSpaceOnUse">
<stop stop-color="#BF0900"/>
<stop offset="1" stop-color="#BF0900" stop-opacity="0"/>
</linearGradient>
<linearGradient id="paint1_linear" x1="91.578" y1="172.44" x2="136.729" y2="172.44" gradientUnits="userSpaceOnUse">
<stop stop-color="#BF0900"/>
<stop offset="1" stop-color="#BF0900" stop-opacity="0"/>
</linearGradient>
</defs>
</svg>
