<svg width="720" height="543" viewBox="0 0 720 543" fill="none" xmlns="http://www.w3.org/2000/svg">
<path d="M720 0H51V513H720V0Z" fill="#F5F5F5"/>
<path d="M667.791 22H2V541H667.791V22Z" stroke="url(#paint0_linear)" stroke-width="3" stroke-miterlimit="10" stroke-linecap="round" stroke-linejoin="round"/>
<path d="M2 82.3166H667.791" stroke="url(#paint1_linear)" stroke-width="3" stroke-miterlimit="10" stroke-linecap="round" stroke-linejoin="round"/>
<path d="M44.314 59.2362C48.5629 59.2362 52.0074 55.7918 52.0074 51.5428C52.0074 47.2938 48.5629 43.8493 44.314 43.8493C40.065 43.8493 36.6205 47.2938 36.6205 51.5428C36.6205 55.7918 40.065 59.2362 44.314 59.2362Z" stroke="url(#paint2_linear)" stroke-width="3" stroke-miterlimit="10" stroke-linecap="round" stroke-linejoin="round"/>
<path d="M84.166 59.2362C88.415 59.2362 91.8594 55.7917 91.8594 51.5428C91.8594 47.2938 88.415 43.8493 84.166 43.8493C79.917 43.8493 76.4725 47.2938 76.4725 51.5428C76.4725 55.7917 79.917 59.2362 84.166 59.2362Z" stroke="url(#paint3_linear)" stroke-width="3" stroke-miterlimit="10" stroke-linecap="round" stroke-linejoin="round"/>
<path d="M124.018 59.2362C128.267 59.2362 131.711 55.7917 131.711 51.5428C131.711 47.2938 128.267 43.8493 124.018 43.8493C119.769 43.8493 116.325 47.2938 116.325 51.5428C116.325 55.7917 119.769 59.2362 124.018 59.2362Z" stroke="url(#paint4_linear)" stroke-width="3" stroke-miterlimit="10" stroke-linecap="round" stroke-linejoin="round"/>
<path d="M446.527 158.943C454.175 158.943 460.376 152.743 460.376 145.095C460.376 137.447 454.175 131.247 446.527 131.247C438.879 131.247 432.679 137.447 432.679 145.095C432.679 152.743 438.879 158.943 446.527 158.943Z" fill="url(#paint5_linear)"/>
<path d="M438.526 144.018L445.143 150.327L454.529 139.71" stroke="url(#paint6_linear)" stroke-width="2" stroke-miterlimit="10" stroke-linecap="round" stroke-linejoin="round"/>
<path d="M605.474 135.709H484.071V141.556H605.474V135.709Z" fill="url(#paint7_linear)"/>
<path d="M574.7 148.634H484.071V154.481H574.7V148.634Z" fill="url(#paint8_linear)"/>
<path d="M446.527 197.718C454.175 197.718 460.376 191.518 460.376 183.87C460.376 176.222 454.175 170.022 446.527 170.022C438.879 170.022 432.679 176.222 432.679 183.87C432.679 191.518 438.879 197.718 446.527 197.718Z" fill="url(#paint9_linear)"/>
<path d="M438.526 182.793L445.143 189.255L454.529 178.638" stroke="url(#paint10_linear)" stroke-width="2" stroke-miterlimit="10" stroke-linecap="round" stroke-linejoin="round"/>
<path d="M605.474 174.484H484.071V180.331H605.474V174.484Z" fill="url(#paint11_linear)"/>
<path d="M574.7 187.563H484.071V193.41H574.7V187.563Z" fill="url(#paint12_linear)"/>
<path d="M446.527 236.647C454.175 236.647 460.376 230.447 460.376 222.799C460.376 215.151 454.175 208.951 446.527 208.951C438.879 208.951 432.679 215.151 432.679 222.799C432.679 230.447 438.879 236.647 446.527 236.647Z" fill="url(#paint13_linear)"/>
<path d="M438.526 221.722L445.143 228.03L454.529 217.414" stroke="url(#paint14_linear)" stroke-width="2" stroke-miterlimit="10" stroke-linecap="round" stroke-linejoin="round"/>
<path d="M605.474 213.413H484.071V219.26H605.474V213.413Z" fill="url(#paint15_linear)"/>
<path d="M574.7 226.338H484.071V232.185H574.7V226.338Z" fill="url(#paint16_linear)"/>
<path d="M640.556 107.705H396.366V263.113H640.556V107.705Z" stroke="url(#paint17_linear)" stroke-width="3" stroke-miterlimit="10" stroke-linecap="round" stroke-linejoin="round"/>
<path d="M587.01 407.134H454.067V307.735" stroke="url(#paint18_linear)" stroke-width="3" stroke-miterlimit="10" stroke-linecap="round" stroke-linejoin="round"/>
<path d="M494.996 320.967H472.07V396.363H494.996V320.967Z" fill="url(#paint19_linear)"/>
<path d="M531.925 348.664H508.998V396.363H531.925V348.664Z" fill="#0C44AC"/>
<path d="M571.469 332.815H548.542V396.363H571.469V332.815Z" fill="url(#paint20_linear)"/>
<path d="M640.556 276.653H396.366V432.061H640.556V276.653Z" stroke="url(#paint21_linear)" stroke-width="3" stroke-miterlimit="10" stroke-linecap="round" stroke-linejoin="round"/>
<path d="M446.527 494.839C454.175 494.839 460.376 488.639 460.376 480.991C460.376 473.343 454.175 467.143 446.527 467.143C438.879 467.143 432.679 473.343 432.679 480.991C432.679 488.639 438.879 494.839 446.527 494.839Z" fill="url(#paint22_linear)"/>
<path d="M438.526 479.914L445.143 486.376L454.529 475.759" stroke="url(#paint23_linear)" stroke-width="2" stroke-miterlimit="10" stroke-linecap="round" stroke-linejoin="round"/>
<path d="M605.474 471.605H484.071V477.452H605.474V471.605Z" fill="url(#paint24_linear)"/>
<path d="M574.7 484.684H484.071V490.531H574.7V484.684Z" fill="url(#paint25_linear)"/>
<path d="M446.527 533.768C454.175 533.768 460.376 527.568 460.376 519.92C460.376 512.272 454.175 506.072 446.527 506.072C438.879 506.072 432.679 512.272 432.679 519.92C432.679 527.568 438.879 533.768 446.527 533.768Z" fill="url(#paint26_linear)"/>
<path d="M438.526 518.843L445.143 525.151L454.529 514.535" stroke="url(#paint27_linear)" stroke-width="2" stroke-miterlimit="10" stroke-linecap="round" stroke-linejoin="round"/>
<path d="M605.474 510.534H484.071V516.381H605.474V510.534Z" fill="url(#paint28_linear)"/>
<path d="M574.7 523.459H484.071V529.306H574.7V523.459Z" fill="url(#paint29_linear)"/>
<path d="M640.556 445.755H396.366V541H640.556V445.755Z" stroke="url(#paint30_linear)" stroke-width="3" stroke-miterlimit="10" stroke-linecap="round" stroke-linejoin="round"/>
<path d="M517.153 138.479L464.376 266.036" stroke="#29314A" stroke-width="4" stroke-miterlimit="10" stroke-linecap="round" stroke-linejoin="round"/>
<path d="M412.061 269.267L432.064 228.8L472.07 204.181L483.918 216.182L510.537 218.49L498.997 269.267L472.839 274.191L462.837 296.964L412.061 269.267Z" fill="#FFB1A5"/>
<path d="M412.061 269.267L462.837 296.964L471.146 277.73L422.216 248.495L412.061 269.267Z" fill="#E2837F"/>
<path d="M483.918 216.182L492.842 224.337C492.842 224.337 485.918 230.954 480.84 230.184C475.762 229.415 469.608 223.26 469.608 223.26" stroke="#E2837F" stroke-miterlimit="10" stroke-linecap="round" stroke-linejoin="round"/>
<path d="M447.143 244.648C447.143 244.648 468.992 247.264 476.993 228.646" stroke="#E2837F" stroke-miterlimit="10" stroke-linecap="round" stroke-linejoin="round"/>
<path d="M487.457 228.03L507.613 231.261" stroke="#E2837F" stroke-miterlimit="10" stroke-linecap="round" stroke-linejoin="round"/>
<path d="M471.608 236.647L504.228 245.725" stroke="#E2837F" stroke-miterlimit="10" stroke-linecap="round" stroke-linejoin="round"/>
<path d="M467.607 239.878L458.683 255.419L474.839 265.882" stroke="#E2837F" stroke-miterlimit="10" stroke-linecap="round" stroke-linejoin="round"/>
<path d="M465.299 244.648L501.151 259.727" stroke="#E2837F" stroke-miterlimit="10" stroke-linecap="round" stroke-linejoin="round"/>
<path d="M184.489 222.337C184.489 222.337 151.407 225.722 143.406 243.109C143.406 243.109 93.2443 262.035 79.3961 288.193C66.3172 312.812 2.61552 387.592 11.2322 459.603C12.4631 469.912 17.0792 479.452 24.7726 486.376C34.3125 494.993 50.3149 504.687 74.3184 504.687V537.461H342.512L334.357 467.143C334.357 467.143 367.131 495.916 405.137 466.066C443.142 436.369 469.762 287.116 469.762 287.116L415.292 255.419L366.516 345.74L307.584 280.5C307.584 280.5 279.887 248.649 236.342 238.493C236.342 238.493 241.42 226.184 184.489 222.337Z" fill="#DA1217"/>
<path d="M170.794 230.338L187.412 537.461H239.266L209.108 230.338H170.794Z" fill="url(#paint31_linear)"/>
<path d="M143.406 243.11C143.406 243.11 130.019 267.729 132.019 274.653C134.02 281.577 156.638 290.04 156.638 290.04" stroke="#29314A" stroke-miterlimit="10" stroke-linecap="round" stroke-linejoin="round"/>
<path d="M148.945 294.963C148.945 294.963 129.711 310.043 133.558 320.044C137.405 330.045 175.564 413.904 175.564 413.904" stroke="#29314A" stroke-miterlimit="10" stroke-linecap="round" stroke-linejoin="round"/>
<path d="M236.342 238.493C236.342 238.493 256.653 268.19 256.653 275.422C256.653 282.654 229.264 287.732 229.264 287.732" stroke="#29314A" stroke-miterlimit="10" stroke-linecap="round" stroke-linejoin="round"/>
<path d="M237.419 290.04C237.419 290.04 257.115 316.197 256.653 323.891C256.191 331.584 228.187 403.595 229.264 413.904" stroke="#29314A" stroke-miterlimit="10" stroke-linecap="round" stroke-linejoin="round"/>
<path d="M334.357 467.143C334.357 467.143 319.739 350.664 313.892 336.508" stroke="#29314A" stroke-miterlimit="10" stroke-linecap="round" stroke-linejoin="round"/>
<path d="M366.669 345.586C366.669 345.586 349.282 369.59 356.206 390.67" stroke="#29314A" stroke-miterlimit="10" stroke-linecap="round" stroke-linejoin="round"/>
<path d="M172.948 269.267L194.336 253.726L212.954 268.498" stroke="#EEEEEE" stroke-miterlimit="10" stroke-linecap="round" stroke-linejoin="round"/>
<path d="M199.26 271.575L205.415 262.497L194.336 253.726L182.181 262.497L190.336 272.191L186.489 439.446L203.261 451.294L218.647 437.908L199.26 271.575Z" fill="#21232B"/>
<path d="M74.3184 504.687L86.6279 336.508" stroke="#29314A" stroke-miterlimit="10" stroke-linecap="round" stroke-linejoin="round"/>
<path d="M403.29 277.73L464.376 313.428" stroke="#29314A" stroke-miterlimit="10" stroke-linecap="round" stroke-linejoin="round"/>
<path d="M169.717 192.487L170.948 240.648C170.948 240.648 175.872 251.726 192.797 251.88C209.723 252.188 209.415 238.493 209.415 238.493L208.184 192.333H169.717V192.487Z" fill="#FFB1A5"/>
<path d="M169.717 192.487L169.871 198.026C170.948 201.103 178.795 219.875 209.108 228.03L208.184 192.487H169.717Z" fill="#E2837F"/>
<path d="M220.032 176.177C219.571 174.638 217.878 172.176 215.57 169.406C211.416 149.865 207.723 122.476 178.026 130.324C157.254 135.863 156.638 156.328 159.1 170.945C156.638 169.714 154.176 169.56 152.176 170.791C148.175 173.099 147.714 179.408 150.945 185.101C154.176 190.794 160.023 193.41 164.024 191.256C164.332 191.102 164.639 190.794 164.947 190.64C173.564 207.566 199.568 221.26 211.262 213.567C222.34 206.181 221.109 194.487 217.724 179.1C219.417 178.485 220.494 177.561 220.032 176.177Z" fill="#FFB1A5"/>
<path d="M217.724 178.946C213.878 180.023 207.107 178.946 207.107 178.946L204.338 178.638C188.489 181.408 183.412 191.563 183.412 191.563C167.563 180.023 172.025 167.098 172.025 167.098L161.87 172.33C168.794 180.793 165.101 190.64 165.101 190.64C173.718 207.566 194.182 224.645 212.8 215.721C224.956 209.874 223.417 196.179 217.724 178.946Z" fill="#29314A"/>
<path d="M159.1 170.945L167.101 180.793C167.101 180.793 176.641 163.098 171.41 145.711C171.41 145.711 178.334 149.096 186.027 145.711C193.721 142.325 207.261 141.71 209.108 145.711C209.108 145.711 219.878 137.248 217.109 126.939C214.339 116.629 186.643 104.935 169.717 124.938L163.255 134.478C163.255 134.478 156.331 129.093 147.56 138.017C140.636 144.941 143.098 165.714 150.637 172.484C150.484 172.33 152.792 168.483 159.1 170.945Z" fill="#29314A"/>
<path d="M208.031 164.79C208.8 171.253 204.953 177.1 199.26 177.715C193.721 178.331 188.489 173.561 187.72 167.098C186.95 160.636 190.797 154.789 196.49 154.173C202.184 153.558 207.261 158.328 208.031 164.79Z" stroke="#21232B" stroke-miterlimit="10"/>
<path d="M229.572 161.405C230.342 167.868 227.726 173.561 223.725 174.022C219.725 174.484 215.878 169.56 215.109 163.098C214.339 156.635 216.955 150.942 220.956 150.48C224.956 150.019 228.803 154.943 229.572 161.405Z" stroke="#21232B" stroke-miterlimit="10"/>
<path d="M208.031 164.79L215.109 163.098" stroke="#21232B" stroke-miterlimit="10"/>
<path d="M159.1 170.945L187.874 167.098" stroke="#21232B" stroke-miterlimit="10"/>
<path d="M178.795 511.457H55.5464L33.5431 352.51H156.946L178.795 511.457Z" fill="#FCE25B"/>
<path d="M26.9268 448.063L42.1598 489.608L78.0113 486.069L76.9342 475.605L86.4741 473.759L88.6282 460.372L93.3982 459.603L93.2443 444.524L50.7765 439.446L51.8536 432.676L80.7809 424.675L75.8571 413.289L35.8512 420.52L26.9268 448.063Z" fill="#FFB1A5"/>
<path d="M88.6282 460.372L42.4677 460.68" stroke="#E2837F" stroke-miterlimit="10" stroke-linecap="round" stroke-linejoin="round"/>
<path d="M76.9342 475.606L48.9301 478.375" stroke="#E2837F" stroke-miterlimit="10" stroke-linecap="round" stroke-linejoin="round"/>
<path d="M50.7765 439.446L42.9292 438.831" stroke="#E2837F" stroke-miterlimit="10" stroke-linecap="round" stroke-linejoin="round"/>
<defs>
<linearGradient id="paint0_linear" x1="334.895" y1="22" x2="334.895" y2="541" gradientUnits="userSpaceOnUse">
<stop stop-color="#D83F3F"/>
<stop offset="0.576042" stop-color="#FF0519"/>
</linearGradient>
<linearGradient id="paint1_linear" x1="-nan" y1="-nan" x2="-nan" y2="-nan" gradientUnits="userSpaceOnUse">
<stop stop-color="#D83F3F"/>
<stop offset="0.576042" stop-color="#FF0519"/>
</linearGradient>
<linearGradient id="paint2_linear" x1="44.314" y1="43.8493" x2="44.314" y2="59.2362" gradientUnits="userSpaceOnUse">
<stop stop-color="#D83F3F"/>
<stop offset="0.576042" stop-color="#FF0519"/>
</linearGradient>
<linearGradient id="paint3_linear" x1="84.166" y1="43.8493" x2="84.166" y2="59.2362" gradientUnits="userSpaceOnUse">
<stop stop-color="#D83F3F"/>
<stop offset="0.576042" stop-color="#FF0519"/>
</linearGradient>
<linearGradient id="paint4_linear" x1="124.018" y1="43.8493" x2="124.018" y2="59.2362" gradientUnits="userSpaceOnUse">
<stop stop-color="#D83F3F"/>
<stop offset="0.576042" stop-color="#FF0519"/>
</linearGradient>
<linearGradient id="paint5_linear" x1="446.527" y1="131.247" x2="446.527" y2="158.943" gradientUnits="userSpaceOnUse">
<stop stop-color="#D83F3F"/>
<stop offset="0.576042" stop-color="#FF0519"/>
</linearGradient>
<linearGradient id="paint6_linear" x1="446.527" y1="139.71" x2="446.527" y2="150.327" gradientUnits="userSpaceOnUse">
<stop stop-color="#D83F3F"/>
<stop offset="0.576042" stop-color="#FF0519"/>
</linearGradient>
<linearGradient id="paint7_linear" x1="544.773" y1="135.709" x2="544.773" y2="141.556" gradientUnits="userSpaceOnUse">
<stop stop-color="#D83F3F"/>
<stop offset="0.576042" stop-color="#FF0519"/>
</linearGradient>
<linearGradient id="paint8_linear" x1="529.386" y1="148.634" x2="529.386" y2="154.481" gradientUnits="userSpaceOnUse">
<stop stop-color="#D83F3F"/>
<stop offset="0.576042" stop-color="#FF0519"/>
</linearGradient>
<linearGradient id="paint9_linear" x1="446.527" y1="170.022" x2="446.527" y2="197.718" gradientUnits="userSpaceOnUse">
<stop stop-color="#D83F3F"/>
<stop offset="0.576042" stop-color="#FF0519"/>
</linearGradient>
<linearGradient id="paint10_linear" x1="446.527" y1="178.638" x2="446.527" y2="189.255" gradientUnits="userSpaceOnUse">
<stop stop-color="#D83F3F"/>
<stop offset="0.576042" stop-color="#FF0519"/>
</linearGradient>
<linearGradient id="paint11_linear" x1="544.773" y1="174.484" x2="544.773" y2="180.331" gradientUnits="userSpaceOnUse">
<stop stop-color="#D83F3F"/>
<stop offset="0.576042" stop-color="#FF0519"/>
</linearGradient>
<linearGradient id="paint12_linear" x1="529.386" y1="187.563" x2="529.386" y2="193.41" gradientUnits="userSpaceOnUse">
<stop stop-color="#D83F3F"/>
<stop offset="0.576042" stop-color="#FF0519"/>
</linearGradient>
<linearGradient id="paint13_linear" x1="446.527" y1="208.951" x2="446.527" y2="236.647" gradientUnits="userSpaceOnUse">
<stop stop-color="#D83F3F"/>
<stop offset="0.576042" stop-color="#FF0519"/>
</linearGradient>
<linearGradient id="paint14_linear" x1="446.527" y1="217.414" x2="446.527" y2="228.03" gradientUnits="userSpaceOnUse">
<stop stop-color="#D83F3F"/>
<stop offset="0.576042" stop-color="#FF0519"/>
</linearGradient>
<linearGradient id="paint15_linear" x1="544.773" y1="213.413" x2="544.773" y2="219.26" gradientUnits="userSpaceOnUse">
<stop stop-color="#D83F3F"/>
<stop offset="0.576042" stop-color="#FF0519"/>
</linearGradient>
<linearGradient id="paint16_linear" x1="529.386" y1="226.338" x2="529.386" y2="232.185" gradientUnits="userSpaceOnUse">
<stop stop-color="#D83F3F"/>
<stop offset="0.576042" stop-color="#FF0519"/>
</linearGradient>
<linearGradient id="paint17_linear" x1="518.461" y1="107.705" x2="518.461" y2="263.113" gradientUnits="userSpaceOnUse">
<stop stop-color="#D83F3F"/>
<stop offset="0.576042" stop-color="#FF0519"/>
</linearGradient>
<linearGradient id="paint18_linear" x1="520.538" y1="307.735" x2="520.538" y2="407.134" gradientUnits="userSpaceOnUse">
<stop stop-color="#D83F3F"/>
<stop offset="0.576042" stop-color="#FF0519"/>
</linearGradient>
<linearGradient id="paint19_linear" x1="483.533" y1="320.967" x2="483.533" y2="396.363" gradientUnits="userSpaceOnUse">
<stop stop-color="#D83F3F"/>
<stop offset="0.576042" stop-color="#FF0519"/>
</linearGradient>
<linearGradient id="paint20_linear" x1="560.006" y1="332.815" x2="560.006" y2="396.363" gradientUnits="userSpaceOnUse">
<stop stop-color="#D83F3F"/>
<stop offset="0.576042" stop-color="#FF0519"/>
</linearGradient>
<linearGradient id="paint21_linear" x1="518.461" y1="276.653" x2="518.461" y2="432.061" gradientUnits="userSpaceOnUse">
<stop stop-color="#D83F3F"/>
<stop offset="0.576042" stop-color="#FF0519"/>
</linearGradient>
<linearGradient id="paint22_linear" x1="446.527" y1="467.143" x2="446.527" y2="494.839" gradientUnits="userSpaceOnUse">
<stop stop-color="#D83F3F"/>
<stop offset="0.576042" stop-color="#FF0519"/>
</linearGradient>
<linearGradient id="paint23_linear" x1="446.527" y1="475.759" x2="446.527" y2="486.376" gradientUnits="userSpaceOnUse">
<stop stop-color="#D83F3F"/>
<stop offset="0.576042" stop-color="#FF0519"/>
</linearGradient>
<linearGradient id="paint24_linear" x1="544.773" y1="471.605" x2="544.773" y2="477.452" gradientUnits="userSpaceOnUse">
<stop stop-color="#D83F3F"/>
<stop offset="0.576042" stop-color="#FF0519"/>
</linearGradient>
<linearGradient id="paint25_linear" x1="529.386" y1="484.684" x2="529.386" y2="490.531" gradientUnits="userSpaceOnUse">
<stop stop-color="#D83F3F"/>
<stop offset="0.576042" stop-color="#FF0519"/>
</linearGradient>
<linearGradient id="paint26_linear" x1="446.527" y1="506.072" x2="446.527" y2="533.768" gradientUnits="userSpaceOnUse">
<stop stop-color="#D83F3F"/>
<stop offset="0.576042" stop-color="#FF0519"/>
</linearGradient>
<linearGradient id="paint27_linear" x1="446.527" y1="514.535" x2="446.527" y2="525.151" gradientUnits="userSpaceOnUse">
<stop stop-color="#D83F3F"/>
<stop offset="0.576042" stop-color="#FF0519"/>
</linearGradient>
<linearGradient id="paint28_linear" x1="544.773" y1="510.534" x2="544.773" y2="516.381" gradientUnits="userSpaceOnUse">
<stop stop-color="#D83F3F"/>
<stop offset="0.576042" stop-color="#FF0519"/>
</linearGradient>
<linearGradient id="paint29_linear" x1="529.386" y1="523.459" x2="529.386" y2="529.306" gradientUnits="userSpaceOnUse">
<stop stop-color="#D83F3F"/>
<stop offset="0.576042" stop-color="#FF0519"/>
</linearGradient>
<linearGradient id="paint30_linear" x1="518.461" y1="445.755" x2="518.461" y2="541" gradientUnits="userSpaceOnUse">
<stop stop-color="#D83F3F"/>
<stop offset="0.576042" stop-color="#FF0519"/>
</linearGradient>
<linearGradient id="paint31_linear" x1="205.03" y1="230.338" x2="205.03" y2="537.461" gradientUnits="userSpaceOnUse">
<stop stop-color="#D83F3F"/>
<stop offset="0.576042" stop-color="#FF0519"/>
</linearGradient>
</defs>
</svg>
